<?xml version="1.0" encoding="utf-8" standalone="no"?>
<!DOCTYPE svg PUBLIC "-//W3C//DTD SVG 1.1//EN"
  "http://www.w3.org/Graphics/SVG/1.1/DTD/svg11.dtd">
<svg xmlns:xlink="http://www.w3.org/1999/xlink" width="460.8pt" height="345.6pt" viewBox="0 0 460.8 345.6" xmlns="http://www.w3.org/2000/svg" version="1.1">
 <metadata>
  <rdf:RDF xmlns:dc="http://purl.org/dc/elements/1.1/" xmlns:cc="http://creativecommons.org/ns#" xmlns:rdf="http://www.w3.org/1999/02/22-rdf-syntax-ns#">
   <cc:Work>
    <dc:type rdf:resource="http://purl.org/dc/dcmitype/StillImage"/>
    <dc:date>2024-09-08T19:50:07.886323</dc:date>
    <dc:format>image/svg+xml</dc:format>
    <dc:creator>
     <cc:Agent>
      <dc:title>Matplotlib v3.9.1, https://matplotlib.org/</dc:title>
     </cc:Agent>
    </dc:creator>
   </cc:Work>
  </rdf:RDF>
 </metadata>
 <defs>
  <style type="text/css">*{stroke-linejoin: round; stroke-linecap: butt}</style>
 </defs>
 <g id="figure_1">
  <g id="patch_1">
   <path d="M 0 345.6 
L 460.8 345.6 
L 460.8 0 
L 0 0 
z
" style="fill: #ffffff"/>
  </g>
  <g id="axes_1">
   <g id="patch_2">
    <path d="M 57.6 307.584 
L 414.72 307.584 
L 414.72 41.472 
L 57.6 41.472 
z
" style="fill: #ffffff"/>
   </g>
   <g id="matplotlib.axis_1">
    <g id="xtick_1">
     <g id="line2d_1">
      <path d="M 72.201297 307.584 
L 72.201297 41.472 
" clip-path="url(#pf5382aa9ff)" style="fill: none; stroke: #b0b0b0; stroke-width: 0.8; stroke-linecap: square"/>
     </g>
     <g id="line2d_2">
      <defs>
       <path id="m0a2e041059" d="M 0 0 
L 0 3.5 
" style="stroke: #000000; stroke-width: 0.8"/>
      </defs>
      <g>
       <use xlink:href="#m0a2e041059" x="72.201297" y="307.584" style="stroke: #000000; stroke-width: 0.8"/>
      </g>
     </g>
     <g id="text_1">
      <!-- 0 -->
      <g transform="translate(69.020047 322.182437) scale(0.1 -0.1)">
       <defs>
        <path id="DejaVuSans-30" d="M 2034 4250 
Q 1547 4250 1301 3770 
Q 1056 3291 1056 2328 
Q 1056 1369 1301 889 
Q 1547 409 2034 409 
Q 2525 409 2770 889 
Q 3016 1369 3016 2328 
Q 3016 3291 2770 3770 
Q 2525 4250 2034 4250 
z
M 2034 4750 
Q 2819 4750 3233 4129 
Q 3647 3509 3647 2328 
Q 3647 1150 3233 529 
Q 2819 -91 2034 -91 
Q 1250 -91 836 529 
Q 422 1150 422 2328 
Q 422 3509 836 4129 
Q 1250 4750 2034 4750 
z
" transform="scale(0.015625)"/>
       </defs>
       <use xlink:href="#DejaVuSans-30"/>
      </g>
     </g>
    </g>
    <g id="xtick_2">
     <g id="line2d_3">
      <path d="M 112.987044 307.584 
L 112.987044 41.472 
" clip-path="url(#pf5382aa9ff)" style="fill: none; stroke: #b0b0b0; stroke-width: 0.8; stroke-linecap: square"/>
     </g>
     <g id="line2d_4">
      <g>
       <use xlink:href="#m0a2e041059" x="112.987044" y="307.584" style="stroke: #000000; stroke-width: 0.8"/>
      </g>
     </g>
     <g id="text_2">
      <!-- 25 -->
      <g transform="translate(106.624544 322.182437) scale(0.1 -0.1)">
       <defs>
        <path id="DejaVuSans-32" d="M 1228 531 
L 3431 531 
L 3431 0 
L 469 0 
L 469 531 
Q 828 903 1448 1529 
Q 2069 2156 2228 2338 
Q 2531 2678 2651 2914 
Q 2772 3150 2772 3378 
Q 2772 3750 2511 3984 
Q 2250 4219 1831 4219 
Q 1534 4219 1204 4116 
Q 875 4013 500 3803 
L 500 4441 
Q 881 4594 1212 4672 
Q 1544 4750 1819 4750 
Q 2544 4750 2975 4387 
Q 3406 4025 3406 3419 
Q 3406 3131 3298 2873 
Q 3191 2616 2906 2266 
Q 2828 2175 2409 1742 
Q 1991 1309 1228 531 
z
" transform="scale(0.015625)"/>
        <path id="DejaVuSans-35" d="M 691 4666 
L 3169 4666 
L 3169 4134 
L 1269 4134 
L 1269 2991 
Q 1406 3038 1543 3061 
Q 1681 3084 1819 3084 
Q 2600 3084 3056 2656 
Q 3513 2228 3513 1497 
Q 3513 744 3044 326 
Q 2575 -91 1722 -91 
Q 1428 -91 1123 -41 
Q 819 9 494 109 
L 494 744 
Q 775 591 1075 516 
Q 1375 441 1709 441 
Q 2250 441 2565 725 
Q 2881 1009 2881 1497 
Q 2881 1984 2565 2268 
Q 2250 2553 1709 2553 
Q 1456 2553 1204 2497 
Q 953 2441 691 2322 
L 691 4666 
z
" transform="scale(0.015625)"/>
       </defs>
       <use xlink:href="#DejaVuSans-32"/>
       <use xlink:href="#DejaVuSans-35" x="63.623047"/>
      </g>
     </g>
    </g>
    <g id="xtick_3">
     <g id="line2d_5">
      <path d="M 153.772791 307.584 
L 153.772791 41.472 
" clip-path="url(#pf5382aa9ff)" style="fill: none; stroke: #b0b0b0; stroke-width: 0.8; stroke-linecap: square"/>
     </g>
     <g id="line2d_6">
      <g>
       <use xlink:href="#m0a2e041059" x="153.772791" y="307.584" style="stroke: #000000; stroke-width: 0.8"/>
      </g>
     </g>
     <g id="text_3">
      <!-- 50 -->
      <g transform="translate(147.410291 322.182437) scale(0.1 -0.1)">
       <use xlink:href="#DejaVuSans-35"/>
       <use xlink:href="#DejaVuSans-30" x="63.623047"/>
      </g>
     </g>
    </g>
    <g id="xtick_4">
     <g id="line2d_7">
      <path d="M 194.558538 307.584 
L 194.558538 41.472 
" clip-path="url(#pf5382aa9ff)" style="fill: none; stroke: #b0b0b0; stroke-width: 0.8; stroke-linecap: square"/>
     </g>
     <g id="line2d_8">
      <g>
       <use xlink:href="#m0a2e041059" x="194.558538" y="307.584" style="stroke: #000000; stroke-width: 0.8"/>
      </g>
     </g>
     <g id="text_4">
      <!-- 75 -->
      <g transform="translate(188.196038 322.182437) scale(0.1 -0.1)">
       <defs>
        <path id="DejaVuSans-37" d="M 525 4666 
L 3525 4666 
L 3525 4397 
L 1831 0 
L 1172 0 
L 2766 4134 
L 525 4134 
L 525 4666 
z
" transform="scale(0.015625)"/>
       </defs>
       <use xlink:href="#DejaVuSans-37"/>
       <use xlink:href="#DejaVuSans-35" x="63.623047"/>
      </g>
     </g>
    </g>
    <g id="xtick_5">
     <g id="line2d_9">
      <path d="M 235.344285 307.584 
L 235.344285 41.472 
" clip-path="url(#pf5382aa9ff)" style="fill: none; stroke: #b0b0b0; stroke-width: 0.8; stroke-linecap: square"/>
     </g>
     <g id="line2d_10">
      <g>
       <use xlink:href="#m0a2e041059" x="235.344285" y="307.584" style="stroke: #000000; stroke-width: 0.8"/>
      </g>
     </g>
     <g id="text_5">
      <!-- 100 -->
      <g transform="translate(225.800535 322.182437) scale(0.1 -0.1)">
       <defs>
        <path id="DejaVuSans-31" d="M 794 531 
L 1825 531 
L 1825 4091 
L 703 3866 
L 703 4441 
L 1819 4666 
L 2450 4666 
L 2450 531 
L 3481 531 
L 3481 0 
L 794 0 
L 794 531 
z
" transform="scale(0.015625)"/>
       </defs>
       <use xlink:href="#DejaVuSans-31"/>
       <use xlink:href="#DejaVuSans-30" x="63.623047"/>
       <use xlink:href="#DejaVuSans-30" x="127.246094"/>
      </g>
     </g>
    </g>
    <g id="xtick_6">
     <g id="line2d_11">
      <path d="M 276.130032 307.584 
L 276.130032 41.472 
" clip-path="url(#pf5382aa9ff)" style="fill: none; stroke: #b0b0b0; stroke-width: 0.8; stroke-linecap: square"/>
     </g>
     <g id="line2d_12">
      <g>
       <use xlink:href="#m0a2e041059" x="276.130032" y="307.584" style="stroke: #000000; stroke-width: 0.8"/>
      </g>
     </g>
     <g id="text_6">
      <!-- 125 -->
      <g transform="translate(266.586282 322.182437) scale(0.1 -0.1)">
       <use xlink:href="#DejaVuSans-31"/>
       <use xlink:href="#DejaVuSans-32" x="63.623047"/>
       <use xlink:href="#DejaVuSans-35" x="127.246094"/>
      </g>
     </g>
    </g>
    <g id="xtick_7">
     <g id="line2d_13">
      <path d="M 316.915779 307.584 
L 316.915779 41.472 
" clip-path="url(#pf5382aa9ff)" style="fill: none; stroke: #b0b0b0; stroke-width: 0.8; stroke-linecap: square"/>
     </g>
     <g id="line2d_14">
      <g>
       <use xlink:href="#m0a2e041059" x="316.915779" y="307.584" style="stroke: #000000; stroke-width: 0.8"/>
      </g>
     </g>
     <g id="text_7">
      <!-- 150 -->
      <g transform="translate(307.372029 322.182437) scale(0.1 -0.1)">
       <use xlink:href="#DejaVuSans-31"/>
       <use xlink:href="#DejaVuSans-35" x="63.623047"/>
       <use xlink:href="#DejaVuSans-30" x="127.246094"/>
      </g>
     </g>
    </g>
    <g id="xtick_8">
     <g id="line2d_15">
      <path d="M 357.701526 307.584 
L 357.701526 41.472 
" clip-path="url(#pf5382aa9ff)" style="fill: none; stroke: #b0b0b0; stroke-width: 0.8; stroke-linecap: square"/>
     </g>
     <g id="line2d_16">
      <g>
       <use xlink:href="#m0a2e041059" x="357.701526" y="307.584" style="stroke: #000000; stroke-width: 0.8"/>
      </g>
     </g>
     <g id="text_8">
      <!-- 175 -->
      <g transform="translate(348.157776 322.182437) scale(0.1 -0.1)">
       <use xlink:href="#DejaVuSans-31"/>
       <use xlink:href="#DejaVuSans-37" x="63.623047"/>
       <use xlink:href="#DejaVuSans-35" x="127.246094"/>
      </g>
     </g>
    </g>
    <g id="xtick_9">
     <g id="line2d_17">
      <path d="M 398.487273 307.584 
L 398.487273 41.472 
" clip-path="url(#pf5382aa9ff)" style="fill: none; stroke: #b0b0b0; stroke-width: 0.8; stroke-linecap: square"/>
     </g>
     <g id="line2d_18">
      <g>
       <use xlink:href="#m0a2e041059" x="398.487273" y="307.584" style="stroke: #000000; stroke-width: 0.8"/>
      </g>
     </g>
     <g id="text_9">
      <!-- 200 -->
      <g transform="translate(388.943523 322.182437) scale(0.1 -0.1)">
       <use xlink:href="#DejaVuSans-32"/>
       <use xlink:href="#DejaVuSans-30" x="63.623047"/>
       <use xlink:href="#DejaVuSans-30" x="127.246094"/>
      </g>
     </g>
    </g>
    <g id="text_10">
     <!-- Epoch -->
     <g transform="translate(220.849063 335.860562) scale(0.1 -0.1)">
      <defs>
       <path id="DejaVuSans-45" d="M 628 4666 
L 3578 4666 
L 3578 4134 
L 1259 4134 
L 1259 2753 
L 3481 2753 
L 3481 2222 
L 1259 2222 
L 1259 531 
L 3634 531 
L 3634 0 
L 628 0 
L 628 4666 
z
" transform="scale(0.015625)"/>
       <path id="DejaVuSans-70" d="M 1159 525 
L 1159 -1331 
L 581 -1331 
L 581 3500 
L 1159 3500 
L 1159 2969 
Q 1341 3281 1617 3432 
Q 1894 3584 2278 3584 
Q 2916 3584 3314 3078 
Q 3713 2572 3713 1747 
Q 3713 922 3314 415 
Q 2916 -91 2278 -91 
Q 1894 -91 1617 61 
Q 1341 213 1159 525 
z
M 3116 1747 
Q 3116 2381 2855 2742 
Q 2594 3103 2138 3103 
Q 1681 3103 1420 2742 
Q 1159 2381 1159 1747 
Q 1159 1113 1420 752 
Q 1681 391 2138 391 
Q 2594 391 2855 752 
Q 3116 1113 3116 1747 
z
" transform="scale(0.015625)"/>
       <path id="DejaVuSans-6f" d="M 1959 3097 
Q 1497 3097 1228 2736 
Q 959 2375 959 1747 
Q 959 1119 1226 758 
Q 1494 397 1959 397 
Q 2419 397 2687 759 
Q 2956 1122 2956 1747 
Q 2956 2369 2687 2733 
Q 2419 3097 1959 3097 
z
M 1959 3584 
Q 2709 3584 3137 3096 
Q 3566 2609 3566 1747 
Q 3566 888 3137 398 
Q 2709 -91 1959 -91 
Q 1206 -91 779 398 
Q 353 888 353 1747 
Q 353 2609 779 3096 
Q 1206 3584 1959 3584 
z
" transform="scale(0.015625)"/>
       <path id="DejaVuSans-63" d="M 3122 3366 
L 3122 2828 
Q 2878 2963 2633 3030 
Q 2388 3097 2138 3097 
Q 1578 3097 1268 2742 
Q 959 2388 959 1747 
Q 959 1106 1268 751 
Q 1578 397 2138 397 
Q 2388 397 2633 464 
Q 2878 531 3122 666 
L 3122 134 
Q 2881 22 2623 -34 
Q 2366 -91 2075 -91 
Q 1284 -91 818 406 
Q 353 903 353 1747 
Q 353 2603 823 3093 
Q 1294 3584 2113 3584 
Q 2378 3584 2631 3529 
Q 2884 3475 3122 3366 
z
" transform="scale(0.015625)"/>
       <path id="DejaVuSans-68" d="M 3513 2113 
L 3513 0 
L 2938 0 
L 2938 2094 
Q 2938 2591 2744 2837 
Q 2550 3084 2163 3084 
Q 1697 3084 1428 2787 
Q 1159 2491 1159 1978 
L 1159 0 
L 581 0 
L 581 4863 
L 1159 4863 
L 1159 2956 
Q 1366 3272 1645 3428 
Q 1925 3584 2291 3584 
Q 2894 3584 3203 3211 
Q 3513 2838 3513 2113 
z
" transform="scale(0.015625)"/>
      </defs>
      <use xlink:href="#DejaVuSans-45"/>
      <use xlink:href="#DejaVuSans-70" x="63.183594"/>
      <use xlink:href="#DejaVuSans-6f" x="126.660156"/>
      <use xlink:href="#DejaVuSans-63" x="187.841797"/>
      <use xlink:href="#DejaVuSans-68" x="242.822266"/>
     </g>
    </g>
   </g>
   <g id="matplotlib.axis_2">
    <g id="ytick_1">
     <g id="line2d_19">
      <path d="M 57.6 284.92342 
L 414.72 284.92342 
" clip-path="url(#pf5382aa9ff)" style="fill: none; stroke: #b0b0b0; stroke-width: 0.8; stroke-linecap: square"/>
     </g>
     <g id="line2d_20">
      <defs>
       <path id="mdbf9aa9502" d="M 0 0 
L -3.5 0 
" style="stroke: #000000; stroke-width: 0.8"/>
      </defs>
      <g>
       <use xlink:href="#mdbf9aa9502" x="57.6" y="284.92342" style="stroke: #000000; stroke-width: 0.8"/>
      </g>
     </g>
     <g id="text_11">
      <!-- 3 -->
      <g transform="translate(44.2375 288.722639) scale(0.1 -0.1)">
       <defs>
        <path id="DejaVuSans-33" d="M 2597 2516 
Q 3050 2419 3304 2112 
Q 3559 1806 3559 1356 
Q 3559 666 3084 287 
Q 2609 -91 1734 -91 
Q 1441 -91 1130 -33 
Q 819 25 488 141 
L 488 750 
Q 750 597 1062 519 
Q 1375 441 1716 441 
Q 2309 441 2620 675 
Q 2931 909 2931 1356 
Q 2931 1769 2642 2001 
Q 2353 2234 1838 2234 
L 1294 2234 
L 1294 2753 
L 1863 2753 
Q 2328 2753 2575 2939 
Q 2822 3125 2822 3475 
Q 2822 3834 2567 4026 
Q 2313 4219 1838 4219 
Q 1578 4219 1281 4162 
Q 984 4106 628 3988 
L 628 4550 
Q 988 4650 1302 4700 
Q 1616 4750 1894 4750 
Q 2613 4750 3031 4423 
Q 3450 4097 3450 3541 
Q 3450 3153 3228 2886 
Q 3006 2619 2597 2516 
z
" transform="scale(0.015625)"/>
       </defs>
       <use xlink:href="#DejaVuSans-33"/>
      </g>
     </g>
    </g>
    <g id="ytick_2">
     <g id="line2d_21">
      <path d="M 57.6 235.389281 
L 414.72 235.389281 
" clip-path="url(#pf5382aa9ff)" style="fill: none; stroke: #b0b0b0; stroke-width: 0.8; stroke-linecap: square"/>
     </g>
     <g id="line2d_22">
      <g>
       <use xlink:href="#mdbf9aa9502" x="57.6" y="235.389281" style="stroke: #000000; stroke-width: 0.8"/>
      </g>
     </g>
     <g id="text_12">
      <!-- 4 -->
      <g transform="translate(44.2375 239.1885) scale(0.1 -0.1)">
       <defs>
        <path id="DejaVuSans-34" d="M 2419 4116 
L 825 1625 
L 2419 1625 
L 2419 4116 
z
M 2253 4666 
L 3047 4666 
L 3047 1625 
L 3713 1625 
L 3713 1100 
L 3047 1100 
L 3047 0 
L 2419 0 
L 2419 1100 
L 313 1100 
L 313 1709 
L 2253 4666 
z
" transform="scale(0.015625)"/>
       </defs>
       <use xlink:href="#DejaVuSans-34"/>
      </g>
     </g>
    </g>
    <g id="ytick_3">
     <g id="line2d_23">
      <path d="M 57.6 185.855143 
L 414.72 185.855143 
" clip-path="url(#pf5382aa9ff)" style="fill: none; stroke: #b0b0b0; stroke-width: 0.8; stroke-linecap: square"/>
     </g>
     <g id="line2d_24">
      <g>
       <use xlink:href="#mdbf9aa9502" x="57.6" y="185.855143" style="stroke: #000000; stroke-width: 0.8"/>
      </g>
     </g>
     <g id="text_13">
      <!-- 5 -->
      <g transform="translate(44.2375 189.654362) scale(0.1 -0.1)">
       <use xlink:href="#DejaVuSans-35"/>
      </g>
     </g>
    </g>
    <g id="ytick_4">
     <g id="line2d_25">
      <path d="M 57.6 136.321004 
L 414.72 136.321004 
" clip-path="url(#pf5382aa9ff)" style="fill: none; stroke: #b0b0b0; stroke-width: 0.8; stroke-linecap: square"/>
     </g>
     <g id="line2d_26">
      <g>
       <use xlink:href="#mdbf9aa9502" x="57.6" y="136.321004" style="stroke: #000000; stroke-width: 0.8"/>
      </g>
     </g>
     <g id="text_14">
      <!-- 6 -->
      <g transform="translate(44.2375 140.120223) scale(0.1 -0.1)">
       <defs>
        <path id="DejaVuSans-36" d="M 2113 2584 
Q 1688 2584 1439 2293 
Q 1191 2003 1191 1497 
Q 1191 994 1439 701 
Q 1688 409 2113 409 
Q 2538 409 2786 701 
Q 3034 994 3034 1497 
Q 3034 2003 2786 2293 
Q 2538 2584 2113 2584 
z
M 3366 4563 
L 3366 3988 
Q 3128 4100 2886 4159 
Q 2644 4219 2406 4219 
Q 1781 4219 1451 3797 
Q 1122 3375 1075 2522 
Q 1259 2794 1537 2939 
Q 1816 3084 2150 3084 
Q 2853 3084 3261 2657 
Q 3669 2231 3669 1497 
Q 3669 778 3244 343 
Q 2819 -91 2113 -91 
Q 1303 -91 875 529 
Q 447 1150 447 2328 
Q 447 3434 972 4092 
Q 1497 4750 2381 4750 
Q 2619 4750 2861 4703 
Q 3103 4656 3366 4563 
z
" transform="scale(0.015625)"/>
       </defs>
       <use xlink:href="#DejaVuSans-36"/>
      </g>
     </g>
    </g>
    <g id="ytick_5">
     <g id="line2d_27">
      <path d="M 57.6 86.786866 
L 414.72 86.786866 
" clip-path="url(#pf5382aa9ff)" style="fill: none; stroke: #b0b0b0; stroke-width: 0.8; stroke-linecap: square"/>
     </g>
     <g id="line2d_28">
      <g>
       <use xlink:href="#mdbf9aa9502" x="57.6" y="86.786866" style="stroke: #000000; stroke-width: 0.8"/>
      </g>
     </g>
     <g id="text_15">
      <!-- 7 -->
      <g transform="translate(44.2375 90.586084) scale(0.1 -0.1)">
       <use xlink:href="#DejaVuSans-37"/>
      </g>
     </g>
    </g>
    <g id="text_16">
     <!-- Loss -->
     <g transform="translate(38.157812 185.495187) rotate(-90) scale(0.1 -0.1)">
      <defs>
       <path id="DejaVuSans-4c" d="M 628 4666 
L 1259 4666 
L 1259 531 
L 3531 531 
L 3531 0 
L 628 0 
L 628 4666 
z
" transform="scale(0.015625)"/>
       <path id="DejaVuSans-73" d="M 2834 3397 
L 2834 2853 
Q 2591 2978 2328 3040 
Q 2066 3103 1784 3103 
Q 1356 3103 1142 2972 
Q 928 2841 928 2578 
Q 928 2378 1081 2264 
Q 1234 2150 1697 2047 
L 1894 2003 
Q 2506 1872 2764 1633 
Q 3022 1394 3022 966 
Q 3022 478 2636 193 
Q 2250 -91 1575 -91 
Q 1294 -91 989 -36 
Q 684 19 347 128 
L 347 722 
Q 666 556 975 473 
Q 1284 391 1588 391 
Q 1994 391 2212 530 
Q 2431 669 2431 922 
Q 2431 1156 2273 1281 
Q 2116 1406 1581 1522 
L 1381 1569 
Q 847 1681 609 1914 
Q 372 2147 372 2553 
Q 372 3047 722 3315 
Q 1072 3584 1716 3584 
Q 2034 3584 2315 3537 
Q 2597 3491 2834 3397 
z
" transform="scale(0.015625)"/>
      </defs>
      <use xlink:href="#DejaVuSans-4c"/>
      <use xlink:href="#DejaVuSans-6f" x="53.962891"/>
      <use xlink:href="#DejaVuSans-73" x="115.144531"/>
      <use xlink:href="#DejaVuSans-73" x="167.244141"/>
     </g>
    </g>
   </g>
   <g id="line2d_29">
    <path d="M 73.832727 123.056572 
L 75.464157 163.40009 
L 77.095587 155.843292 
L 78.727017 146.978433 
L 80.358447 161.852644 
L 81.989877 155.582979 
L 83.621307 162.253896 
L 85.252736 151.616614 
L 86.884166 150.429629 
L 88.515596 165.417072 
L 90.147026 153.379377 
L 91.778456 165.262528 
L 93.409886 147.686789 
L 95.041316 187.010478 
L 96.672746 179.989824 
L 98.304175 157.998048 
L 99.935605 183.890809 
L 101.567035 170.111632 
L 103.198465 186.387815 
L 104.829895 165.845746 
L 106.461325 171.350132 
L 108.092755 163.124377 
L 109.724185 191.580161 
L 111.355614 166.43768 
L 112.987044 191.332296 
L 114.618474 208.53019 
L 116.249904 194.702475 
L 117.881334 167.130304 
L 119.512764 169.248001 
L 121.144194 196.376428 
L 122.775624 163.453565 
L 124.407053 203.024623 
L 126.038483 179.918232 
L 127.669913 218.003043 
L 129.301343 206.738445 
L 130.932773 172.406926 
L 132.564203 181.716685 
L 134.195633 194.281949 
L 135.827063 209.483435 
L 137.458492 207.0742 
L 139.089922 200.500383 
L 140.721352 190.908888 
L 142.352782 212.08073 
L 143.984212 195.75119 
L 145.615642 197.801406 
L 147.247072 190.133689 
L 148.878502 211.52517 
L 150.509931 204.151401 
L 152.141361 205.151909 
L 153.772791 198.713646 
L 155.404221 203.505756 
L 157.035651 202.062143 
L 158.667081 205.12203 
L 160.298511 192.375673 
L 161.929941 202.436043 
L 163.56137 179.543246 
L 165.1928 217.959984 
L 166.82423 220.662907 
L 168.45566 224.162735 
L 170.08709 209.674849 
L 171.71852 213.837257 
L 173.34995 212.093461 
L 174.98138 214.837033 
L 176.61281 214.008193 
L 178.244239 220.190536 
L 179.875669 217.83147 
L 181.507099 228.325285 
L 183.138529 216.930566 
L 184.769959 240.646605 
L 186.401389 217.281579 
L 188.032819 223.107264 
L 189.664249 236.854885 
L 191.295678 230.683171 
L 192.927108 223.011557 
L 194.558538 231.9216 
L 196.189968 191.502074 
L 197.821398 222.873878 
L 199.452828 202.187705 
L 201.084258 232.186991 
L 202.715688 235.987675 
L 204.347117 225.762593 
L 205.978547 240.899136 
L 207.609977 238.500659 
L 209.241407 231.408272 
L 210.872837 237.086157 
L 212.504267 227.422516 
L 214.135697 238.678693 
L 215.767127 230.030723 
L 217.398556 240.907048 
L 219.029986 230.493221 
L 220.661416 247.881266 
L 222.292846 232.574283 
L 223.924276 239.351867 
L 225.555706 231.693457 
L 227.187136 246.417847 
L 228.818566 236.244162 
L 230.449995 251.923592 
L 232.081425 245.866244 
L 233.712855 242.642531 
L 235.344285 253.995903 
L 236.975715 258.371845 
L 238.607145 230.770445 
L 240.238575 243.091152 
L 241.870005 250.187637 
L 243.501434 217.442051 
L 245.132864 248.43979 
L 246.764294 248.965399 
L 248.395724 238.374755 
L 250.027154 255.131362 
L 251.658584 256.632064 
L 253.290014 244.739572 
L 254.921444 249.560085 
L 256.552873 227.113712 
L 258.184303 251.055165 
L 259.815733 263.174384 
L 261.447163 267.343902 
L 263.078593 248.659996 
L 264.710023 249.75999 
L 266.341453 255.269514 
L 267.972883 238.462254 
L 269.604312 258.93116 
L 271.235742 257.186915 
L 272.867172 252.131174 
L 274.498602 261.348119 
L 276.130032 260.378907 
L 279.392892 238.419561 
L 281.024322 261.067812 
L 282.655751 268.598829 
L 284.287181 248.274038 
L 285.918611 241.286487 
L 287.550041 272.027054 
L 289.181471 262.046518 
L 290.812901 248.190885 
L 292.444331 266.820335 
L 294.075761 242.895923 
L 295.70719 255.421802 
L 297.33862 256.61866 
L 298.97005 272.586345 
L 300.60148 273.398013 
L 302.23291 249.793601 
L 303.86434 268.283506 
L 305.49577 273.959418 
L 307.1272 263.413214 
L 308.75863 240.96194 
L 310.390059 257.955831 
L 312.021489 267.198109 
L 313.652919 283.776541 
L 315.284349 273.482359 
L 316.915779 273.270573 
L 318.547209 279.23343 
L 320.178639 281.293766 
L 321.810069 265.569116 
L 323.441498 268.166931 
L 325.072928 289.460685 
L 326.704358 253.019358 
L 328.335788 247.4439 
L 329.967218 275.576578 
L 331.598648 255.893263 
L 333.230078 276.650106 
L 334.861508 289.688497 
L 336.492937 261.964393 
L 338.124367 269.911483 
L 339.755797 275.091086 
L 341.387227 270.052209 
L 343.018657 281.244259 
L 344.650087 270.637423 
L 346.281517 273.985778 
L 347.912947 280.773376 
L 349.544376 276.963197 
L 351.175806 290.728261 
L 352.807236 277.108895 
L 354.438666 277.344833 
L 356.070096 266.583299 
L 357.701526 282.585871 
L 359.332956 283.092242 
L 360.964386 265.758156 
L 362.595815 276.58162 
L 364.227245 266.161652 
L 365.858675 286.110441 
L 367.490105 284.886455 
L 369.121535 276.224797 
L 370.752965 266.779863 
L 372.384395 280.031327 
L 374.015825 281.574935 
L 375.647254 284.335171 
L 377.278684 279.030773 
L 378.910114 266.427681 
L 380.541544 265.018281 
L 382.172974 266.678593 
L 383.804404 281.022895 
L 385.435834 270.334642 
L 387.067264 291.765899 
L 388.698693 289.90209 
L 390.330123 290.414957 
L 391.961553 286.843408 
L 393.592983 293.866058 
L 395.224413 295.488 
L 396.855843 280.315225 
L 398.487273 282.367188 
L 398.487273 282.367188 
" clip-path="url(#pf5382aa9ff)" style="fill: none; stroke: #1f77b4; stroke-width: 1.5; stroke-linecap: square"/>
    <defs>
     <path id="m1dd41fa17d" d="M 0 1.5 
C 0.397805 1.5 0.77937 1.341951 1.06066 1.06066 
C 1.341951 0.77937 1.5 0.397805 1.5 0 
C 1.5 -0.397805 1.341951 -0.77937 1.06066 -1.06066 
C 0.77937 -1.341951 0.397805 -1.5 0 -1.5 
C -0.397805 -1.5 -0.77937 -1.341951 -1.06066 -1.06066 
C -1.341951 -0.77937 -1.5 -0.397805 -1.5 0 
C -1.5 0.397805 -1.341951 0.77937 -1.06066 1.06066 
C -0.77937 1.341951 -0.397805 1.5 0 1.5 
z
" style="stroke: #1f77b4"/>
    </defs>
    <g clip-path="url(#pf5382aa9ff)">
     <use xlink:href="#m1dd41fa17d" x="73.832727" y="123.056572" style="fill: #1f77b4; stroke: #1f77b4"/>
     <use xlink:href="#m1dd41fa17d" x="75.464157" y="163.40009" style="fill: #1f77b4; stroke: #1f77b4"/>
     <use xlink:href="#m1dd41fa17d" x="77.095587" y="155.843292" style="fill: #1f77b4; stroke: #1f77b4"/>
     <use xlink:href="#m1dd41fa17d" x="78.727017" y="146.978433" style="fill: #1f77b4; stroke: #1f77b4"/>
     <use xlink:href="#m1dd41fa17d" x="80.358447" y="161.852644" style="fill: #1f77b4; stroke: #1f77b4"/>
     <use xlink:href="#m1dd41fa17d" x="81.989877" y="155.582979" style="fill: #1f77b4; stroke: #1f77b4"/>
     <use xlink:href="#m1dd41fa17d" x="83.621307" y="162.253896" style="fill: #1f77b4; stroke: #1f77b4"/>
     <use xlink:href="#m1dd41fa17d" x="85.252736" y="151.616614" style="fill: #1f77b4; stroke: #1f77b4"/>
     <use xlink:href="#m1dd41fa17d" x="86.884166" y="150.429629" style="fill: #1f77b4; stroke: #1f77b4"/>
     <use xlink:href="#m1dd41fa17d" x="88.515596" y="165.417072" style="fill: #1f77b4; stroke: #1f77b4"/>
     <use xlink:href="#m1dd41fa17d" x="90.147026" y="153.379377" style="fill: #1f77b4; stroke: #1f77b4"/>
     <use xlink:href="#m1dd41fa17d" x="91.778456" y="165.262528" style="fill: #1f77b4; stroke: #1f77b4"/>
     <use xlink:href="#m1dd41fa17d" x="93.409886" y="147.686789" style="fill: #1f77b4; stroke: #1f77b4"/>
     <use xlink:href="#m1dd41fa17d" x="95.041316" y="187.010478" style="fill: #1f77b4; stroke: #1f77b4"/>
     <use xlink:href="#m1dd41fa17d" x="96.672746" y="179.989824" style="fill: #1f77b4; stroke: #1f77b4"/>
     <use xlink:href="#m1dd41fa17d" x="98.304175" y="157.998048" style="fill: #1f77b4; stroke: #1f77b4"/>
     <use xlink:href="#m1dd41fa17d" x="99.935605" y="183.890809" style="fill: #1f77b4; stroke: #1f77b4"/>
     <use xlink:href="#m1dd41fa17d" x="101.567035" y="170.111632" style="fill: #1f77b4; stroke: #1f77b4"/>
     <use xlink:href="#m1dd41fa17d" x="103.198465" y="186.387815" style="fill: #1f77b4; stroke: #1f77b4"/>
     <use xlink:href="#m1dd41fa17d" x="104.829895" y="165.845746" style="fill: #1f77b4; stroke: #1f77b4"/>
     <use xlink:href="#m1dd41fa17d" x="106.461325" y="171.350132" style="fill: #1f77b4; stroke: #1f77b4"/>
     <use xlink:href="#m1dd41fa17d" x="108.092755" y="163.124377" style="fill: #1f77b4; stroke: #1f77b4"/>
     <use xlink:href="#m1dd41fa17d" x="109.724185" y="191.580161" style="fill: #1f77b4; stroke: #1f77b4"/>
     <use xlink:href="#m1dd41fa17d" x="111.355614" y="166.43768" style="fill: #1f77b4; stroke: #1f77b4"/>
     <use xlink:href="#m1dd41fa17d" x="112.987044" y="191.332296" style="fill: #1f77b4; stroke: #1f77b4"/>
     <use xlink:href="#m1dd41fa17d" x="114.618474" y="208.53019" style="fill: #1f77b4; stroke: #1f77b4"/>
     <use xlink:href="#m1dd41fa17d" x="116.249904" y="194.702475" style="fill: #1f77b4; stroke: #1f77b4"/>
     <use xlink:href="#m1dd41fa17d" x="117.881334" y="167.130304" style="fill: #1f77b4; stroke: #1f77b4"/>
     <use xlink:href="#m1dd41fa17d" x="119.512764" y="169.248001" style="fill: #1f77b4; stroke: #1f77b4"/>
     <use xlink:href="#m1dd41fa17d" x="121.144194" y="196.376428" style="fill: #1f77b4; stroke: #1f77b4"/>
     <use xlink:href="#m1dd41fa17d" x="122.775624" y="163.453565" style="fill: #1f77b4; stroke: #1f77b4"/>
     <use xlink:href="#m1dd41fa17d" x="124.407053" y="203.024623" style="fill: #1f77b4; stroke: #1f77b4"/>
     <use xlink:href="#m1dd41fa17d" x="126.038483" y="179.918232" style="fill: #1f77b4; stroke: #1f77b4"/>
     <use xlink:href="#m1dd41fa17d" x="127.669913" y="218.003043" style="fill: #1f77b4; stroke: #1f77b4"/>
     <use xlink:href="#m1dd41fa17d" x="129.301343" y="206.738445" style="fill: #1f77b4; stroke: #1f77b4"/>
     <use xlink:href="#m1dd41fa17d" x="130.932773" y="172.406926" style="fill: #1f77b4; stroke: #1f77b4"/>
     <use xlink:href="#m1dd41fa17d" x="132.564203" y="181.716685" style="fill: #1f77b4; stroke: #1f77b4"/>
     <use xlink:href="#m1dd41fa17d" x="134.195633" y="194.281949" style="fill: #1f77b4; stroke: #1f77b4"/>
     <use xlink:href="#m1dd41fa17d" x="135.827063" y="209.483435" style="fill: #1f77b4; stroke: #1f77b4"/>
     <use xlink:href="#m1dd41fa17d" x="137.458492" y="207.0742" style="fill: #1f77b4; stroke: #1f77b4"/>
     <use xlink:href="#m1dd41fa17d" x="139.089922" y="200.500383" style="fill: #1f77b4; stroke: #1f77b4"/>
     <use xlink:href="#m1dd41fa17d" x="140.721352" y="190.908888" style="fill: #1f77b4; stroke: #1f77b4"/>
     <use xlink:href="#m1dd41fa17d" x="142.352782" y="212.08073" style="fill: #1f77b4; stroke: #1f77b4"/>
     <use xlink:href="#m1dd41fa17d" x="143.984212" y="195.75119" style="fill: #1f77b4; stroke: #1f77b4"/>
     <use xlink:href="#m1dd41fa17d" x="145.615642" y="197.801406" style="fill: #1f77b4; stroke: #1f77b4"/>
     <use xlink:href="#m1dd41fa17d" x="147.247072" y="190.133689" style="fill: #1f77b4; stroke: #1f77b4"/>
     <use xlink:href="#m1dd41fa17d" x="148.878502" y="211.52517" style="fill: #1f77b4; stroke: #1f77b4"/>
     <use xlink:href="#m1dd41fa17d" x="150.509931" y="204.151401" style="fill: #1f77b4; stroke: #1f77b4"/>
     <use xlink:href="#m1dd41fa17d" x="152.141361" y="205.151909" style="fill: #1f77b4; stroke: #1f77b4"/>
     <use xlink:href="#m1dd41fa17d" x="153.772791" y="198.713646" style="fill: #1f77b4; stroke: #1f77b4"/>
     <use xlink:href="#m1dd41fa17d" x="155.404221" y="203.505756" style="fill: #1f77b4; stroke: #1f77b4"/>
     <use xlink:href="#m1dd41fa17d" x="157.035651" y="202.062143" style="fill: #1f77b4; stroke: #1f77b4"/>
     <use xlink:href="#m1dd41fa17d" x="158.667081" y="205.12203" style="fill: #1f77b4; stroke: #1f77b4"/>
     <use xlink:href="#m1dd41fa17d" x="160.298511" y="192.375673" style="fill: #1f77b4; stroke: #1f77b4"/>
     <use xlink:href="#m1dd41fa17d" x="161.929941" y="202.436043" style="fill: #1f77b4; stroke: #1f77b4"/>
     <use xlink:href="#m1dd41fa17d" x="163.56137" y="179.543246" style="fill: #1f77b4; stroke: #1f77b4"/>
     <use xlink:href="#m1dd41fa17d" x="165.1928" y="217.959984" style="fill: #1f77b4; stroke: #1f77b4"/>
     <use xlink:href="#m1dd41fa17d" x="166.82423" y="220.662907" style="fill: #1f77b4; stroke: #1f77b4"/>
     <use xlink:href="#m1dd41fa17d" x="168.45566" y="224.162735" style="fill: #1f77b4; stroke: #1f77b4"/>
     <use xlink:href="#m1dd41fa17d" x="170.08709" y="209.674849" style="fill: #1f77b4; stroke: #1f77b4"/>
     <use xlink:href="#m1dd41fa17d" x="171.71852" y="213.837257" style="fill: #1f77b4; stroke: #1f77b4"/>
     <use xlink:href="#m1dd41fa17d" x="173.34995" y="212.093461" style="fill: #1f77b4; stroke: #1f77b4"/>
     <use xlink:href="#m1dd41fa17d" x="174.98138" y="214.837033" style="fill: #1f77b4; stroke: #1f77b4"/>
     <use xlink:href="#m1dd41fa17d" x="176.61281" y="214.008193" style="fill: #1f77b4; stroke: #1f77b4"/>
     <use xlink:href="#m1dd41fa17d" x="178.244239" y="220.190536" style="fill: #1f77b4; stroke: #1f77b4"/>
     <use xlink:href="#m1dd41fa17d" x="179.875669" y="217.83147" style="fill: #1f77b4; stroke: #1f77b4"/>
     <use xlink:href="#m1dd41fa17d" x="181.507099" y="228.325285" style="fill: #1f77b4; stroke: #1f77b4"/>
     <use xlink:href="#m1dd41fa17d" x="183.138529" y="216.930566" style="fill: #1f77b4; stroke: #1f77b4"/>
     <use xlink:href="#m1dd41fa17d" x="184.769959" y="240.646605" style="fill: #1f77b4; stroke: #1f77b4"/>
     <use xlink:href="#m1dd41fa17d" x="186.401389" y="217.281579" style="fill: #1f77b4; stroke: #1f77b4"/>
     <use xlink:href="#m1dd41fa17d" x="188.032819" y="223.107264" style="fill: #1f77b4; stroke: #1f77b4"/>
     <use xlink:href="#m1dd41fa17d" x="189.664249" y="236.854885" style="fill: #1f77b4; stroke: #1f77b4"/>
     <use xlink:href="#m1dd41fa17d" x="191.295678" y="230.683171" style="fill: #1f77b4; stroke: #1f77b4"/>
     <use xlink:href="#m1dd41fa17d" x="192.927108" y="223.011557" style="fill: #1f77b4; stroke: #1f77b4"/>
     <use xlink:href="#m1dd41fa17d" x="194.558538" y="231.9216" style="fill: #1f77b4; stroke: #1f77b4"/>
     <use xlink:href="#m1dd41fa17d" x="196.189968" y="191.502074" style="fill: #1f77b4; stroke: #1f77b4"/>
     <use xlink:href="#m1dd41fa17d" x="197.821398" y="222.873878" style="fill: #1f77b4; stroke: #1f77b4"/>
     <use xlink:href="#m1dd41fa17d" x="199.452828" y="202.187705" style="fill: #1f77b4; stroke: #1f77b4"/>
     <use xlink:href="#m1dd41fa17d" x="201.084258" y="232.186991" style="fill: #1f77b4; stroke: #1f77b4"/>
     <use xlink:href="#m1dd41fa17d" x="202.715688" y="235.987675" style="fill: #1f77b4; stroke: #1f77b4"/>
     <use xlink:href="#m1dd41fa17d" x="204.347117" y="225.762593" style="fill: #1f77b4; stroke: #1f77b4"/>
     <use xlink:href="#m1dd41fa17d" x="205.978547" y="240.899136" style="fill: #1f77b4; stroke: #1f77b4"/>
     <use xlink:href="#m1dd41fa17d" x="207.609977" y="238.500659" style="fill: #1f77b4; stroke: #1f77b4"/>
     <use xlink:href="#m1dd41fa17d" x="209.241407" y="231.408272" style="fill: #1f77b4; stroke: #1f77b4"/>
     <use xlink:href="#m1dd41fa17d" x="210.872837" y="237.086157" style="fill: #1f77b4; stroke: #1f77b4"/>
     <use xlink:href="#m1dd41fa17d" x="212.504267" y="227.422516" style="fill: #1f77b4; stroke: #1f77b4"/>
     <use xlink:href="#m1dd41fa17d" x="214.135697" y="238.678693" style="fill: #1f77b4; stroke: #1f77b4"/>
     <use xlink:href="#m1dd41fa17d" x="215.767127" y="230.030723" style="fill: #1f77b4; stroke: #1f77b4"/>
     <use xlink:href="#m1dd41fa17d" x="217.398556" y="240.907048" style="fill: #1f77b4; stroke: #1f77b4"/>
     <use xlink:href="#m1dd41fa17d" x="219.029986" y="230.493221" style="fill: #1f77b4; stroke: #1f77b4"/>
     <use xlink:href="#m1dd41fa17d" x="220.661416" y="247.881266" style="fill: #1f77b4; stroke: #1f77b4"/>
     <use xlink:href="#m1dd41fa17d" x="222.292846" y="232.574283" style="fill: #1f77b4; stroke: #1f77b4"/>
     <use xlink:href="#m1dd41fa17d" x="223.924276" y="239.351867" style="fill: #1f77b4; stroke: #1f77b4"/>
     <use xlink:href="#m1dd41fa17d" x="225.555706" y="231.693457" style="fill: #1f77b4; stroke: #1f77b4"/>
     <use xlink:href="#m1dd41fa17d" x="227.187136" y="246.417847" style="fill: #1f77b4; stroke: #1f77b4"/>
     <use xlink:href="#m1dd41fa17d" x="228.818566" y="236.244162" style="fill: #1f77b4; stroke: #1f77b4"/>
     <use xlink:href="#m1dd41fa17d" x="230.449995" y="251.923592" style="fill: #1f77b4; stroke: #1f77b4"/>
     <use xlink:href="#m1dd41fa17d" x="232.081425" y="245.866244" style="fill: #1f77b4; stroke: #1f77b4"/>
     <use xlink:href="#m1dd41fa17d" x="233.712855" y="242.642531" style="fill: #1f77b4; stroke: #1f77b4"/>
     <use xlink:href="#m1dd41fa17d" x="235.344285" y="253.995903" style="fill: #1f77b4; stroke: #1f77b4"/>
     <use xlink:href="#m1dd41fa17d" x="236.975715" y="258.371845" style="fill: #1f77b4; stroke: #1f77b4"/>
     <use xlink:href="#m1dd41fa17d" x="238.607145" y="230.770445" style="fill: #1f77b4; stroke: #1f77b4"/>
     <use xlink:href="#m1dd41fa17d" x="240.238575" y="243.091152" style="fill: #1f77b4; stroke: #1f77b4"/>
     <use xlink:href="#m1dd41fa17d" x="241.870005" y="250.187637" style="fill: #1f77b4; stroke: #1f77b4"/>
     <use xlink:href="#m1dd41fa17d" x="243.501434" y="217.442051" style="fill: #1f77b4; stroke: #1f77b4"/>
     <use xlink:href="#m1dd41fa17d" x="245.132864" y="248.43979" style="fill: #1f77b4; stroke: #1f77b4"/>
     <use xlink:href="#m1dd41fa17d" x="246.764294" y="248.965399" style="fill: #1f77b4; stroke: #1f77b4"/>
     <use xlink:href="#m1dd41fa17d" x="248.395724" y="238.374755" style="fill: #1f77b4; stroke: #1f77b4"/>
     <use xlink:href="#m1dd41fa17d" x="250.027154" y="255.131362" style="fill: #1f77b4; stroke: #1f77b4"/>
     <use xlink:href="#m1dd41fa17d" x="251.658584" y="256.632064" style="fill: #1f77b4; stroke: #1f77b4"/>
     <use xlink:href="#m1dd41fa17d" x="253.290014" y="244.739572" style="fill: #1f77b4; stroke: #1f77b4"/>
     <use xlink:href="#m1dd41fa17d" x="254.921444" y="249.560085" style="fill: #1f77b4; stroke: #1f77b4"/>
     <use xlink:href="#m1dd41fa17d" x="256.552873" y="227.113712" style="fill: #1f77b4; stroke: #1f77b4"/>
     <use xlink:href="#m1dd41fa17d" x="258.184303" y="251.055165" style="fill: #1f77b4; stroke: #1f77b4"/>
     <use xlink:href="#m1dd41fa17d" x="259.815733" y="263.174384" style="fill: #1f77b4; stroke: #1f77b4"/>
     <use xlink:href="#m1dd41fa17d" x="261.447163" y="267.343902" style="fill: #1f77b4; stroke: #1f77b4"/>
     <use xlink:href="#m1dd41fa17d" x="263.078593" y="248.659996" style="fill: #1f77b4; stroke: #1f77b4"/>
     <use xlink:href="#m1dd41fa17d" x="264.710023" y="249.75999" style="fill: #1f77b4; stroke: #1f77b4"/>
     <use xlink:href="#m1dd41fa17d" x="266.341453" y="255.269514" style="fill: #1f77b4; stroke: #1f77b4"/>
     <use xlink:href="#m1dd41fa17d" x="267.972883" y="238.462254" style="fill: #1f77b4; stroke: #1f77b4"/>
     <use xlink:href="#m1dd41fa17d" x="269.604312" y="258.93116" style="fill: #1f77b4; stroke: #1f77b4"/>
     <use xlink:href="#m1dd41fa17d" x="271.235742" y="257.186915" style="fill: #1f77b4; stroke: #1f77b4"/>
     <use xlink:href="#m1dd41fa17d" x="272.867172" y="252.131174" style="fill: #1f77b4; stroke: #1f77b4"/>
     <use xlink:href="#m1dd41fa17d" x="274.498602" y="261.348119" style="fill: #1f77b4; stroke: #1f77b4"/>
     <use xlink:href="#m1dd41fa17d" x="276.130032" y="260.378907" style="fill: #1f77b4; stroke: #1f77b4"/>
     <use xlink:href="#m1dd41fa17d" x="277.761462" y="249.567052" style="fill: #1f77b4; stroke: #1f77b4"/>
     <use xlink:href="#m1dd41fa17d" x="279.392892" y="238.419561" style="fill: #1f77b4; stroke: #1f77b4"/>
     <use xlink:href="#m1dd41fa17d" x="281.024322" y="261.067812" style="fill: #1f77b4; stroke: #1f77b4"/>
     <use xlink:href="#m1dd41fa17d" x="282.655751" y="268.598829" style="fill: #1f77b4; stroke: #1f77b4"/>
     <use xlink:href="#m1dd41fa17d" x="284.287181" y="248.274038" style="fill: #1f77b4; stroke: #1f77b4"/>
     <use xlink:href="#m1dd41fa17d" x="285.918611" y="241.286487" style="fill: #1f77b4; stroke: #1f77b4"/>
     <use xlink:href="#m1dd41fa17d" x="287.550041" y="272.027054" style="fill: #1f77b4; stroke: #1f77b4"/>
     <use xlink:href="#m1dd41fa17d" x="289.181471" y="262.046518" style="fill: #1f77b4; stroke: #1f77b4"/>
     <use xlink:href="#m1dd41fa17d" x="290.812901" y="248.190885" style="fill: #1f77b4; stroke: #1f77b4"/>
     <use xlink:href="#m1dd41fa17d" x="292.444331" y="266.820335" style="fill: #1f77b4; stroke: #1f77b4"/>
     <use xlink:href="#m1dd41fa17d" x="294.075761" y="242.895923" style="fill: #1f77b4; stroke: #1f77b4"/>
     <use xlink:href="#m1dd41fa17d" x="295.70719" y="255.421802" style="fill: #1f77b4; stroke: #1f77b4"/>
     <use xlink:href="#m1dd41fa17d" x="297.33862" y="256.61866" style="fill: #1f77b4; stroke: #1f77b4"/>
     <use xlink:href="#m1dd41fa17d" x="298.97005" y="272.586345" style="fill: #1f77b4; stroke: #1f77b4"/>
     <use xlink:href="#m1dd41fa17d" x="300.60148" y="273.398013" style="fill: #1f77b4; stroke: #1f77b4"/>
     <use xlink:href="#m1dd41fa17d" x="302.23291" y="249.793601" style="fill: #1f77b4; stroke: #1f77b4"/>
     <use xlink:href="#m1dd41fa17d" x="303.86434" y="268.283506" style="fill: #1f77b4; stroke: #1f77b4"/>
     <use xlink:href="#m1dd41fa17d" x="305.49577" y="273.959418" style="fill: #1f77b4; stroke: #1f77b4"/>
     <use xlink:href="#m1dd41fa17d" x="307.1272" y="263.413214" style="fill: #1f77b4; stroke: #1f77b4"/>
     <use xlink:href="#m1dd41fa17d" x="308.75863" y="240.96194" style="fill: #1f77b4; stroke: #1f77b4"/>
     <use xlink:href="#m1dd41fa17d" x="310.390059" y="257.955831" style="fill: #1f77b4; stroke: #1f77b4"/>
     <use xlink:href="#m1dd41fa17d" x="312.021489" y="267.198109" style="fill: #1f77b4; stroke: #1f77b4"/>
     <use xlink:href="#m1dd41fa17d" x="313.652919" y="283.776541" style="fill: #1f77b4; stroke: #1f77b4"/>
     <use xlink:href="#m1dd41fa17d" x="315.284349" y="273.482359" style="fill: #1f77b4; stroke: #1f77b4"/>
     <use xlink:href="#m1dd41fa17d" x="316.915779" y="273.270573" style="fill: #1f77b4; stroke: #1f77b4"/>
     <use xlink:href="#m1dd41fa17d" x="318.547209" y="279.23343" style="fill: #1f77b4; stroke: #1f77b4"/>
     <use xlink:href="#m1dd41fa17d" x="320.178639" y="281.293766" style="fill: #1f77b4; stroke: #1f77b4"/>
     <use xlink:href="#m1dd41fa17d" x="321.810069" y="265.569116" style="fill: #1f77b4; stroke: #1f77b4"/>
     <use xlink:href="#m1dd41fa17d" x="323.441498" y="268.166931" style="fill: #1f77b4; stroke: #1f77b4"/>
     <use xlink:href="#m1dd41fa17d" x="325.072928" y="289.460685" style="fill: #1f77b4; stroke: #1f77b4"/>
     <use xlink:href="#m1dd41fa17d" x="326.704358" y="253.019358" style="fill: #1f77b4; stroke: #1f77b4"/>
     <use xlink:href="#m1dd41fa17d" x="328.335788" y="247.4439" style="fill: #1f77b4; stroke: #1f77b4"/>
     <use xlink:href="#m1dd41fa17d" x="329.967218" y="275.576578" style="fill: #1f77b4; stroke: #1f77b4"/>
     <use xlink:href="#m1dd41fa17d" x="331.598648" y="255.893263" style="fill: #1f77b4; stroke: #1f77b4"/>
     <use xlink:href="#m1dd41fa17d" x="333.230078" y="276.650106" style="fill: #1f77b4; stroke: #1f77b4"/>
     <use xlink:href="#m1dd41fa17d" x="334.861508" y="289.688497" style="fill: #1f77b4; stroke: #1f77b4"/>
     <use xlink:href="#m1dd41fa17d" x="336.492937" y="261.964393" style="fill: #1f77b4; stroke: #1f77b4"/>
     <use xlink:href="#m1dd41fa17d" x="338.124367" y="269.911483" style="fill: #1f77b4; stroke: #1f77b4"/>
     <use xlink:href="#m1dd41fa17d" x="339.755797" y="275.091086" style="fill: #1f77b4; stroke: #1f77b4"/>
     <use xlink:href="#m1dd41fa17d" x="341.387227" y="270.052209" style="fill: #1f77b4; stroke: #1f77b4"/>
     <use xlink:href="#m1dd41fa17d" x="343.018657" y="281.244259" style="fill: #1f77b4; stroke: #1f77b4"/>
     <use xlink:href="#m1dd41fa17d" x="344.650087" y="270.637423" style="fill: #1f77b4; stroke: #1f77b4"/>
     <use xlink:href="#m1dd41fa17d" x="346.281517" y="273.985778" style="fill: #1f77b4; stroke: #1f77b4"/>
     <use xlink:href="#m1dd41fa17d" x="347.912947" y="280.773376" style="fill: #1f77b4; stroke: #1f77b4"/>
     <use xlink:href="#m1dd41fa17d" x="349.544376" y="276.963197" style="fill: #1f77b4; stroke: #1f77b4"/>
     <use xlink:href="#m1dd41fa17d" x="351.175806" y="290.728261" style="fill: #1f77b4; stroke: #1f77b4"/>
     <use xlink:href="#m1dd41fa17d" x="352.807236" y="277.108895" style="fill: #1f77b4; stroke: #1f77b4"/>
     <use xlink:href="#m1dd41fa17d" x="354.438666" y="277.344833" style="fill: #1f77b4; stroke: #1f77b4"/>
     <use xlink:href="#m1dd41fa17d" x="356.070096" y="266.583299" style="fill: #1f77b4; stroke: #1f77b4"/>
     <use xlink:href="#m1dd41fa17d" x="357.701526" y="282.585871" style="fill: #1f77b4; stroke: #1f77b4"/>
     <use xlink:href="#m1dd41fa17d" x="359.332956" y="283.092242" style="fill: #1f77b4; stroke: #1f77b4"/>
     <use xlink:href="#m1dd41fa17d" x="360.964386" y="265.758156" style="fill: #1f77b4; stroke: #1f77b4"/>
     <use xlink:href="#m1dd41fa17d" x="362.595815" y="276.58162" style="fill: #1f77b4; stroke: #1f77b4"/>
     <use xlink:href="#m1dd41fa17d" x="364.227245" y="266.161652" style="fill: #1f77b4; stroke: #1f77b4"/>
     <use xlink:href="#m1dd41fa17d" x="365.858675" y="286.110441" style="fill: #1f77b4; stroke: #1f77b4"/>
     <use xlink:href="#m1dd41fa17d" x="367.490105" y="284.886455" style="fill: #1f77b4; stroke: #1f77b4"/>
     <use xlink:href="#m1dd41fa17d" x="369.121535" y="276.224797" style="fill: #1f77b4; stroke: #1f77b4"/>
     <use xlink:href="#m1dd41fa17d" x="370.752965" y="266.779863" style="fill: #1f77b4; stroke: #1f77b4"/>
     <use xlink:href="#m1dd41fa17d" x="372.384395" y="280.031327" style="fill: #1f77b4; stroke: #1f77b4"/>
     <use xlink:href="#m1dd41fa17d" x="374.015825" y="281.574935" style="fill: #1f77b4; stroke: #1f77b4"/>
     <use xlink:href="#m1dd41fa17d" x="375.647254" y="284.335171" style="fill: #1f77b4; stroke: #1f77b4"/>
     <use xlink:href="#m1dd41fa17d" x="377.278684" y="279.030773" style="fill: #1f77b4; stroke: #1f77b4"/>
     <use xlink:href="#m1dd41fa17d" x="378.910114" y="266.427681" style="fill: #1f77b4; stroke: #1f77b4"/>
     <use xlink:href="#m1dd41fa17d" x="380.541544" y="265.018281" style="fill: #1f77b4; stroke: #1f77b4"/>
     <use xlink:href="#m1dd41fa17d" x="382.172974" y="266.678593" style="fill: #1f77b4; stroke: #1f77b4"/>
     <use xlink:href="#m1dd41fa17d" x="383.804404" y="281.022895" style="fill: #1f77b4; stroke: #1f77b4"/>
     <use xlink:href="#m1dd41fa17d" x="385.435834" y="270.334642" style="fill: #1f77b4; stroke: #1f77b4"/>
     <use xlink:href="#m1dd41fa17d" x="387.067264" y="291.765899" style="fill: #1f77b4; stroke: #1f77b4"/>
     <use xlink:href="#m1dd41fa17d" x="388.698693" y="289.90209" style="fill: #1f77b4; stroke: #1f77b4"/>
     <use xlink:href="#m1dd41fa17d" x="390.330123" y="290.414957" style="fill: #1f77b4; stroke: #1f77b4"/>
     <use xlink:href="#m1dd41fa17d" x="391.961553" y="286.843408" style="fill: #1f77b4; stroke: #1f77b4"/>
     <use xlink:href="#m1dd41fa17d" x="393.592983" y="293.866058" style="fill: #1f77b4; stroke: #1f77b4"/>
     <use xlink:href="#m1dd41fa17d" x="395.224413" y="295.488" style="fill: #1f77b4; stroke: #1f77b4"/>
     <use xlink:href="#m1dd41fa17d" x="396.855843" y="280.315225" style="fill: #1f77b4; stroke: #1f77b4"/>
     <use xlink:href="#m1dd41fa17d" x="398.487273" y="282.367188" style="fill: #1f77b4; stroke: #1f77b4"/>
    </g>
   </g>
   <g id="line2d_30">
    <path d="M 73.832727 146.031426 
L 80.358447 152.730176 
L 86.884166 159.13941 
L 93.409886 165.259126 
L 99.935605 171.089325 
L 104.829895 175.271978 
L 106.461325 176.310475 
L 108.092755 178.416329 
L 109.724185 179.49801 
L 111.355614 180.84043 
L 114.618474 184.294828 
L 117.881334 186.40006 
L 119.512764 187.181317 
L 121.144194 188.663095 
L 122.775624 189.392303 
L 124.407053 190.498352 
L 126.038483 190.663222 
L 127.669913 192.66015 
L 129.301343 194.01638 
L 130.932773 195.203275 
L 132.564203 195.795401 
L 134.195633 195.877546 
L 135.827063 196.570903 
L 139.089922 197.530554 
L 140.721352 197.619533 
L 142.352782 198.634004 
L 143.984212 198.699883 
L 145.615642 199.442389 
L 147.247072 201.095604 
L 148.878502 202.053469 
L 150.509931 202.408719 
L 152.141361 201.871678 
L 153.772791 203.268259 
L 155.404221 203.111445 
L 157.035651 203.933044 
L 158.667081 204.216656 
L 160.298511 206.309406 
L 163.56137 209.46395 
L 165.1928 209.911277 
L 166.82423 211.41579 
L 171.71852 214.299975 
L 173.34995 214.496441 
L 174.98138 215.703629 
L 176.61281 216.649289 
L 179.875669 218.268151 
L 183.138529 220.735815 
L 184.769959 221.668531 
L 186.401389 222.732206 
L 188.032819 223.311621 
L 189.664249 224.409876 
L 191.295678 225.316727 
L 192.927108 225.914724 
L 194.558538 226.221969 
L 196.189968 225.874918 
L 197.821398 226.283696 
L 199.452828 227.143369 
L 201.084258 228.350769 
L 204.347117 229.027541 
L 205.978547 230.333628 
L 207.609977 231.160197 
L 209.241407 231.656546 
L 210.872837 233.478306 
L 212.504267 233.908858 
L 215.767127 235.549161 
L 217.398556 236.660944 
L 219.029986 236.970117 
L 220.661416 237.933834 
L 222.292846 239.268946 
L 223.924276 241.199515 
L 227.187136 242.49077 
L 228.818566 241.437693 
L 230.449995 242.127973 
L 232.081425 241.806125 
L 233.712855 242.270837 
L 235.344285 243.470527 
L 236.975715 243.455172 
L 238.607145 244.115489 
L 240.238575 244.935006 
L 241.870005 245.166567 
L 245.132864 246.226189 
L 246.764294 247.45767 
L 248.395724 247.428979 
L 250.027154 247.585017 
L 251.658584 248.102579 
L 253.290014 249.423558 
L 254.921444 249.015039 
L 256.552873 249.285926 
L 258.184303 249.710887 
L 259.815733 249.956601 
L 263.078593 251.439046 
L 264.710023 251.9604 
L 266.341453 251.821826 
L 267.972883 252.248284 
L 269.604312 253.85551 
L 271.235742 253.719268 
L 272.867172 253.853678 
L 274.498602 254.727599 
L 276.130032 255.005018 
L 277.761462 255.557915 
L 279.392892 255.795886 
L 281.024322 255.088102 
L 282.655751 255.517718 
L 284.287181 256.156398 
L 285.918611 256.236122 
L 287.550041 256.523076 
L 289.181471 256.49751 
L 290.812901 257.145737 
L 292.444331 257.589844 
L 294.075761 259.70149 
L 295.70719 261.194658 
L 297.33862 261.567858 
L 298.97005 262.850454 
L 300.60148 262.625974 
L 302.23291 262.750363 
L 303.86434 263.928106 
L 305.49577 264.561056 
L 307.1272 265.365107 
L 308.75863 266.374441 
L 310.390059 266.57418 
L 312.021489 266.65891 
L 313.652919 267.382109 
L 315.284349 268.226931 
L 316.915779 268.490294 
L 318.547209 267.917227 
L 320.178639 269.053823 
L 321.810069 269.87292 
L 325.072928 271.11321 
L 326.704358 270.812973 
L 328.335788 271.471033 
L 329.967218 271.626398 
L 331.598648 272.711242 
L 333.230078 273.134336 
L 334.861508 272.748205 
L 336.492937 273.334955 
L 338.124367 274.46535 
L 339.755797 274.669176 
L 341.387227 273.845645 
L 343.018657 273.412803 
L 344.650087 273.4814 
L 346.281517 274.635308 
L 347.912947 275.409931 
L 349.544376 276.025679 
L 351.175806 276.342256 
L 352.807236 277.211045 
L 354.438666 276.740324 
L 356.070096 276.518484 
L 357.701526 277.257043 
L 359.332956 276.84549 
L 360.964386 275.851651 
L 362.595815 275.876108 
L 364.227245 275.714944 
L 365.858675 276.176102 
L 367.490105 276.317479 
L 372.384395 277.340341 
L 377.278684 278.662521 
L 382.172974 280.284018 
L 387.067264 282.204831 
L 391.961553 284.424962 
L 396.855843 286.94441 
L 398.487273 287.850741 
L 398.487273 287.850741 
" clip-path="url(#pf5382aa9ff)" style="fill: none; stroke-dasharray: 5.55,2.4; stroke-dashoffset: 0; stroke: #1f77b4; stroke-width: 1.5"/>
   </g>
   <g id="line2d_31">
    <path d="M 73.832727 100.298171 
L 75.464157 127.971245 
L 77.095587 85.860122 
L 80.358447 133.486969 
L 81.989877 141.832972 
L 83.621307 86.002408 
L 85.252736 150.936083 
L 86.884166 102.425504 
L 88.515596 115.695062 
L 90.147026 87.59329 
L 91.778456 175.919981 
L 95.041316 129.276045 
L 96.672746 151.120576 
L 98.304175 140.984387 
L 99.935605 124.022619 
L 101.567035 143.545426 
L 103.198465 167.091261 
L 104.829895 113.45263 
L 106.461325 118.977352 
L 108.092755 116.107746 
L 109.724185 169.465775 
L 111.355614 151.765772 
L 112.987044 161.428599 
L 114.618474 174.421877 
L 116.249904 153.266924 
L 117.881334 151.644036 
L 119.512764 181.657754 
L 121.144194 140.484901 
L 122.775624 53.568 
L 124.407053 157.614416 
L 126.038483 138.222746 
L 127.669913 166.209277 
L 129.301343 167.758967 
L 130.932773 142.445266 
L 132.564203 141.393551 
L 134.195633 82.102839 
L 135.827063 178.076933 
L 137.458492 142.978505 
L 139.089922 170.327776 
L 140.721352 130.219322 
L 142.352782 130.448103 
L 143.984212 165.750818 
L 145.615642 92.563705 
L 147.247072 160.521555 
L 148.878502 125.119944 
L 150.509931 136.081996 
L 152.141361 175.477229 
L 153.772791 145.409659 
L 155.404221 181.297269 
L 157.035651 183.622064 
L 158.667081 164.17954 
L 160.298511 160.676831 
L 161.929941 146.026441 
L 163.56137 174.84715 
L 165.1928 162.639417 
L 166.82423 159.783438 
L 168.45566 190.266763 
L 170.08709 181.674878 
L 171.71852 148.15016 
L 173.34995 154.209823 
L 174.98138 155.150596 
L 176.61281 163.813624 
L 178.244239 184.422796 
L 179.875669 187.533536 
L 181.507099 192.924099 
L 183.138529 148.835746 
L 184.769959 202.843719 
L 186.401389 182.09264 
L 188.032819 181.880535 
L 189.664249 195.779652 
L 191.295678 162.184383 
L 192.927108 208.269853 
L 194.558538 130.231061 
L 196.189968 177.154253 
L 197.821398 71.209945 
L 199.452828 181.733715 
L 201.084258 177.513391 
L 202.715688 207.446942 
L 204.347117 184.736607 
L 205.978547 191.484525 
L 207.609977 183.988784 
L 209.241407 117.74934 
L 210.872837 202.114106 
L 212.504267 160.999027 
L 214.135697 192.082269 
L 215.767127 188.859524 
L 217.398556 161.019694 
L 219.029986 193.914568 
L 220.661416 150.517258 
L 222.292846 195.999717 
L 223.924276 203.630799 
L 225.555706 198.132956 
L 227.187136 173.192801 
L 228.818566 197.440307 
L 230.449995 187.40984 
L 232.081425 187.875408 
L 233.712855 168.192837 
L 235.344285 188.30498 
L 236.975715 190.244489 
L 238.607145 149.732752 
L 240.238575 88.980476 
L 241.870005 203.437991 
L 243.501434 182.465997 
L 245.132864 202.411738 
L 246.764294 186.9425 
L 248.395724 150.35336 
L 250.027154 203.932895 
L 251.658584 187.691552 
L 253.290014 190.440911 
L 254.921444 149.231046 
L 256.552873 169.136941 
L 258.184303 181.221119 
L 259.815733 184.581355 
L 261.447163 175.405 
L 263.078593 208.212434 
L 264.710023 167.521447 
L 266.341453 149.474943 
L 267.972883 164.164022 
L 269.604312 188.478089 
L 271.235742 175.141924 
L 272.867172 191.390731 
L 274.498602 175.800441 
L 276.130032 190.944436 
L 277.761462 139.057892 
L 279.392892 176.90301 
L 281.024322 183.657564 
L 282.655751 199.729318 
L 284.287181 176.027758 
L 285.918611 205.39557 
L 287.550041 183.948228 
L 289.181471 154.109722 
L 290.812901 199.131455 
L 292.444331 183.385843 
L 294.075761 181.57362 
L 295.70719 112.997926 
L 297.33862 203.52777 
L 298.97005 172.402509 
L 300.60148 173.831124 
L 302.23291 163.17053 
L 303.86434 146.845643 
L 305.49577 200.456167 
L 307.1272 182.682897 
L 308.75863 184.593897 
L 310.390059 229.950109 
L 312.021489 178.007562 
L 313.652919 200.124783 
L 315.284349 181.925341 
L 316.915779 201.533297 
L 318.547209 214.237493 
L 320.178639 198.207736 
L 321.810069 180.719224 
L 323.441498 212.757907 
L 325.072928 218.945541 
L 326.704358 155.480682 
L 328.335788 160.370861 
L 329.967218 196.603886 
L 331.598648 192.316813 
L 333.230078 186.656324 
L 334.861508 195.634462 
L 336.492937 168.495099 
L 338.124367 194.72737 
L 339.755797 211.586274 
L 341.387227 141.837248 
L 343.018657 221.367955 
L 344.650087 193.643367 
L 346.281517 186.783067 
L 347.912947 201.151508 
L 349.544376 211.520399 
L 351.175806 188.316317 
L 352.807236 176.955753 
L 354.438666 189.318384 
L 356.070096 175.268714 
L 357.701526 181.376584 
L 359.332956 201.015955 
L 360.964386 176.670875 
L 362.595815 184.637216 
L 364.227245 164.959345 
L 365.858675 178.883145 
L 367.490105 188.369792 
L 369.121535 221.293766 
L 370.752965 183.390331 
L 372.384395 212.875533 
L 374.015825 169.962261 
L 375.647254 200.124428 
L 377.278684 190.482812 
L 378.910114 152.678651 
L 380.541544 177.627096 
L 382.172974 168.910853 
L 383.804404 174.950769 
L 385.435834 171.066979 
L 387.067264 211.524745 
L 388.698693 188.664968 
L 390.330123 193.606591 
L 391.961553 199.568538 
L 393.592983 204.98487 
L 395.224413 203.317767 
L 396.855843 180.483192 
L 398.487273 203.827764 
L 398.487273 203.827764 
" clip-path="url(#pf5382aa9ff)" style="fill: none; stroke: #ff7f0e; stroke-width: 1.5; stroke-linecap: square"/>
    <defs>
     <path id="mb0768f4dea" d="M 0 1.5 
C 0.397805 1.5 0.77937 1.341951 1.06066 1.06066 
C 1.341951 0.77937 1.5 0.397805 1.5 0 
C 1.5 -0.397805 1.341951 -0.77937 1.06066 -1.06066 
C 0.77937 -1.341951 0.397805 -1.5 0 -1.5 
C -0.397805 -1.5 -0.77937 -1.341951 -1.06066 -1.06066 
C -1.341951 -0.77937 -1.5 -0.397805 -1.5 0 
C -1.5 0.397805 -1.341951 0.77937 -1.06066 1.06066 
C -0.77937 1.341951 -0.397805 1.5 0 1.5 
z
" style="stroke: #ff7f0e"/>
    </defs>
    <g clip-path="url(#pf5382aa9ff)">
     <use xlink:href="#mb0768f4dea" x="73.832727" y="100.298171" style="fill: #ff7f0e; stroke: #ff7f0e"/>
     <use xlink:href="#mb0768f4dea" x="75.464157" y="127.971245" style="fill: #ff7f0e; stroke: #ff7f0e"/>
     <use xlink:href="#mb0768f4dea" x="77.095587" y="85.860122" style="fill: #ff7f0e; stroke: #ff7f0e"/>
     <use xlink:href="#mb0768f4dea" x="78.727017" y="108.912589" style="fill: #ff7f0e; stroke: #ff7f0e"/>
     <use xlink:href="#mb0768f4dea" x="80.358447" y="133.486969" style="fill: #ff7f0e; stroke: #ff7f0e"/>
     <use xlink:href="#mb0768f4dea" x="81.989877" y="141.832972" style="fill: #ff7f0e; stroke: #ff7f0e"/>
     <use xlink:href="#mb0768f4dea" x="83.621307" y="86.002408" style="fill: #ff7f0e; stroke: #ff7f0e"/>
     <use xlink:href="#mb0768f4dea" x="85.252736" y="150.936083" style="fill: #ff7f0e; stroke: #ff7f0e"/>
     <use xlink:href="#mb0768f4dea" x="86.884166" y="102.425504" style="fill: #ff7f0e; stroke: #ff7f0e"/>
     <use xlink:href="#mb0768f4dea" x="88.515596" y="115.695062" style="fill: #ff7f0e; stroke: #ff7f0e"/>
     <use xlink:href="#mb0768f4dea" x="90.147026" y="87.59329" style="fill: #ff7f0e; stroke: #ff7f0e"/>
     <use xlink:href="#mb0768f4dea" x="91.778456" y="175.919981" style="fill: #ff7f0e; stroke: #ff7f0e"/>
     <use xlink:href="#mb0768f4dea" x="93.409886" y="153.263168" style="fill: #ff7f0e; stroke: #ff7f0e"/>
     <use xlink:href="#mb0768f4dea" x="95.041316" y="129.276045" style="fill: #ff7f0e; stroke: #ff7f0e"/>
     <use xlink:href="#mb0768f4dea" x="96.672746" y="151.120576" style="fill: #ff7f0e; stroke: #ff7f0e"/>
     <use xlink:href="#mb0768f4dea" x="98.304175" y="140.984387" style="fill: #ff7f0e; stroke: #ff7f0e"/>
     <use xlink:href="#mb0768f4dea" x="99.935605" y="124.022619" style="fill: #ff7f0e; stroke: #ff7f0e"/>
     <use xlink:href="#mb0768f4dea" x="101.567035" y="143.545426" style="fill: #ff7f0e; stroke: #ff7f0e"/>
     <use xlink:href="#mb0768f4dea" x="103.198465" y="167.091261" style="fill: #ff7f0e; stroke: #ff7f0e"/>
     <use xlink:href="#mb0768f4dea" x="104.829895" y="113.45263" style="fill: #ff7f0e; stroke: #ff7f0e"/>
     <use xlink:href="#mb0768f4dea" x="106.461325" y="118.977352" style="fill: #ff7f0e; stroke: #ff7f0e"/>
     <use xlink:href="#mb0768f4dea" x="108.092755" y="116.107746" style="fill: #ff7f0e; stroke: #ff7f0e"/>
     <use xlink:href="#mb0768f4dea" x="109.724185" y="169.465775" style="fill: #ff7f0e; stroke: #ff7f0e"/>
     <use xlink:href="#mb0768f4dea" x="111.355614" y="151.765772" style="fill: #ff7f0e; stroke: #ff7f0e"/>
     <use xlink:href="#mb0768f4dea" x="112.987044" y="161.428599" style="fill: #ff7f0e; stroke: #ff7f0e"/>
     <use xlink:href="#mb0768f4dea" x="114.618474" y="174.421877" style="fill: #ff7f0e; stroke: #ff7f0e"/>
     <use xlink:href="#mb0768f4dea" x="116.249904" y="153.266924" style="fill: #ff7f0e; stroke: #ff7f0e"/>
     <use xlink:href="#mb0768f4dea" x="117.881334" y="151.644036" style="fill: #ff7f0e; stroke: #ff7f0e"/>
     <use xlink:href="#mb0768f4dea" x="119.512764" y="181.657754" style="fill: #ff7f0e; stroke: #ff7f0e"/>
     <use xlink:href="#mb0768f4dea" x="121.144194" y="140.484901" style="fill: #ff7f0e; stroke: #ff7f0e"/>
     <use xlink:href="#mb0768f4dea" x="122.775624" y="53.568" style="fill: #ff7f0e; stroke: #ff7f0e"/>
     <use xlink:href="#mb0768f4dea" x="124.407053" y="157.614416" style="fill: #ff7f0e; stroke: #ff7f0e"/>
     <use xlink:href="#mb0768f4dea" x="126.038483" y="138.222746" style="fill: #ff7f0e; stroke: #ff7f0e"/>
     <use xlink:href="#mb0768f4dea" x="127.669913" y="166.209277" style="fill: #ff7f0e; stroke: #ff7f0e"/>
     <use xlink:href="#mb0768f4dea" x="129.301343" y="167.758967" style="fill: #ff7f0e; stroke: #ff7f0e"/>
     <use xlink:href="#mb0768f4dea" x="130.932773" y="142.445266" style="fill: #ff7f0e; stroke: #ff7f0e"/>
     <use xlink:href="#mb0768f4dea" x="132.564203" y="141.393551" style="fill: #ff7f0e; stroke: #ff7f0e"/>
     <use xlink:href="#mb0768f4dea" x="134.195633" y="82.102839" style="fill: #ff7f0e; stroke: #ff7f0e"/>
     <use xlink:href="#mb0768f4dea" x="135.827063" y="178.076933" style="fill: #ff7f0e; stroke: #ff7f0e"/>
     <use xlink:href="#mb0768f4dea" x="137.458492" y="142.978505" style="fill: #ff7f0e; stroke: #ff7f0e"/>
     <use xlink:href="#mb0768f4dea" x="139.089922" y="170.327776" style="fill: #ff7f0e; stroke: #ff7f0e"/>
     <use xlink:href="#mb0768f4dea" x="140.721352" y="130.219322" style="fill: #ff7f0e; stroke: #ff7f0e"/>
     <use xlink:href="#mb0768f4dea" x="142.352782" y="130.448103" style="fill: #ff7f0e; stroke: #ff7f0e"/>
     <use xlink:href="#mb0768f4dea" x="143.984212" y="165.750818" style="fill: #ff7f0e; stroke: #ff7f0e"/>
     <use xlink:href="#mb0768f4dea" x="145.615642" y="92.563705" style="fill: #ff7f0e; stroke: #ff7f0e"/>
     <use xlink:href="#mb0768f4dea" x="147.247072" y="160.521555" style="fill: #ff7f0e; stroke: #ff7f0e"/>
     <use xlink:href="#mb0768f4dea" x="148.878502" y="125.119944" style="fill: #ff7f0e; stroke: #ff7f0e"/>
     <use xlink:href="#mb0768f4dea" x="150.509931" y="136.081996" style="fill: #ff7f0e; stroke: #ff7f0e"/>
     <use xlink:href="#mb0768f4dea" x="152.141361" y="175.477229" style="fill: #ff7f0e; stroke: #ff7f0e"/>
     <use xlink:href="#mb0768f4dea" x="153.772791" y="145.409659" style="fill: #ff7f0e; stroke: #ff7f0e"/>
     <use xlink:href="#mb0768f4dea" x="155.404221" y="181.297269" style="fill: #ff7f0e; stroke: #ff7f0e"/>
     <use xlink:href="#mb0768f4dea" x="157.035651" y="183.622064" style="fill: #ff7f0e; stroke: #ff7f0e"/>
     <use xlink:href="#mb0768f4dea" x="158.667081" y="164.17954" style="fill: #ff7f0e; stroke: #ff7f0e"/>
     <use xlink:href="#mb0768f4dea" x="160.298511" y="160.676831" style="fill: #ff7f0e; stroke: #ff7f0e"/>
     <use xlink:href="#mb0768f4dea" x="161.929941" y="146.026441" style="fill: #ff7f0e; stroke: #ff7f0e"/>
     <use xlink:href="#mb0768f4dea" x="163.56137" y="174.84715" style="fill: #ff7f0e; stroke: #ff7f0e"/>
     <use xlink:href="#mb0768f4dea" x="165.1928" y="162.639417" style="fill: #ff7f0e; stroke: #ff7f0e"/>
     <use xlink:href="#mb0768f4dea" x="166.82423" y="159.783438" style="fill: #ff7f0e; stroke: #ff7f0e"/>
     <use xlink:href="#mb0768f4dea" x="168.45566" y="190.266763" style="fill: #ff7f0e; stroke: #ff7f0e"/>
     <use xlink:href="#mb0768f4dea" x="170.08709" y="181.674878" style="fill: #ff7f0e; stroke: #ff7f0e"/>
     <use xlink:href="#mb0768f4dea" x="171.71852" y="148.15016" style="fill: #ff7f0e; stroke: #ff7f0e"/>
     <use xlink:href="#mb0768f4dea" x="173.34995" y="154.209823" style="fill: #ff7f0e; stroke: #ff7f0e"/>
     <use xlink:href="#mb0768f4dea" x="174.98138" y="155.150596" style="fill: #ff7f0e; stroke: #ff7f0e"/>
     <use xlink:href="#mb0768f4dea" x="176.61281" y="163.813624" style="fill: #ff7f0e; stroke: #ff7f0e"/>
     <use xlink:href="#mb0768f4dea" x="178.244239" y="184.422796" style="fill: #ff7f0e; stroke: #ff7f0e"/>
     <use xlink:href="#mb0768f4dea" x="179.875669" y="187.533536" style="fill: #ff7f0e; stroke: #ff7f0e"/>
     <use xlink:href="#mb0768f4dea" x="181.507099" y="192.924099" style="fill: #ff7f0e; stroke: #ff7f0e"/>
     <use xlink:href="#mb0768f4dea" x="183.138529" y="148.835746" style="fill: #ff7f0e; stroke: #ff7f0e"/>
     <use xlink:href="#mb0768f4dea" x="184.769959" y="202.843719" style="fill: #ff7f0e; stroke: #ff7f0e"/>
     <use xlink:href="#mb0768f4dea" x="186.401389" y="182.09264" style="fill: #ff7f0e; stroke: #ff7f0e"/>
     <use xlink:href="#mb0768f4dea" x="188.032819" y="181.880535" style="fill: #ff7f0e; stroke: #ff7f0e"/>
     <use xlink:href="#mb0768f4dea" x="189.664249" y="195.779652" style="fill: #ff7f0e; stroke: #ff7f0e"/>
     <use xlink:href="#mb0768f4dea" x="191.295678" y="162.184383" style="fill: #ff7f0e; stroke: #ff7f0e"/>
     <use xlink:href="#mb0768f4dea" x="192.927108" y="208.269853" style="fill: #ff7f0e; stroke: #ff7f0e"/>
     <use xlink:href="#mb0768f4dea" x="194.558538" y="130.231061" style="fill: #ff7f0e; stroke: #ff7f0e"/>
     <use xlink:href="#mb0768f4dea" x="196.189968" y="177.154253" style="fill: #ff7f0e; stroke: #ff7f0e"/>
     <use xlink:href="#mb0768f4dea" x="197.821398" y="71.209945" style="fill: #ff7f0e; stroke: #ff7f0e"/>
     <use xlink:href="#mb0768f4dea" x="199.452828" y="181.733715" style="fill: #ff7f0e; stroke: #ff7f0e"/>
     <use xlink:href="#mb0768f4dea" x="201.084258" y="177.513391" style="fill: #ff7f0e; stroke: #ff7f0e"/>
     <use xlink:href="#mb0768f4dea" x="202.715688" y="207.446942" style="fill: #ff7f0e; stroke: #ff7f0e"/>
     <use xlink:href="#mb0768f4dea" x="204.347117" y="184.736607" style="fill: #ff7f0e; stroke: #ff7f0e"/>
     <use xlink:href="#mb0768f4dea" x="205.978547" y="191.484525" style="fill: #ff7f0e; stroke: #ff7f0e"/>
     <use xlink:href="#mb0768f4dea" x="207.609977" y="183.988784" style="fill: #ff7f0e; stroke: #ff7f0e"/>
     <use xlink:href="#mb0768f4dea" x="209.241407" y="117.74934" style="fill: #ff7f0e; stroke: #ff7f0e"/>
     <use xlink:href="#mb0768f4dea" x="210.872837" y="202.114106" style="fill: #ff7f0e; stroke: #ff7f0e"/>
     <use xlink:href="#mb0768f4dea" x="212.504267" y="160.999027" style="fill: #ff7f0e; stroke: #ff7f0e"/>
     <use xlink:href="#mb0768f4dea" x="214.135697" y="192.082269" style="fill: #ff7f0e; stroke: #ff7f0e"/>
     <use xlink:href="#mb0768f4dea" x="215.767127" y="188.859524" style="fill: #ff7f0e; stroke: #ff7f0e"/>
     <use xlink:href="#mb0768f4dea" x="217.398556" y="161.019694" style="fill: #ff7f0e; stroke: #ff7f0e"/>
     <use xlink:href="#mb0768f4dea" x="219.029986" y="193.914568" style="fill: #ff7f0e; stroke: #ff7f0e"/>
     <use xlink:href="#mb0768f4dea" x="220.661416" y="150.517258" style="fill: #ff7f0e; stroke: #ff7f0e"/>
     <use xlink:href="#mb0768f4dea" x="222.292846" y="195.999717" style="fill: #ff7f0e; stroke: #ff7f0e"/>
     <use xlink:href="#mb0768f4dea" x="223.924276" y="203.630799" style="fill: #ff7f0e; stroke: #ff7f0e"/>
     <use xlink:href="#mb0768f4dea" x="225.555706" y="198.132956" style="fill: #ff7f0e; stroke: #ff7f0e"/>
     <use xlink:href="#mb0768f4dea" x="227.187136" y="173.192801" style="fill: #ff7f0e; stroke: #ff7f0e"/>
     <use xlink:href="#mb0768f4dea" x="228.818566" y="197.440307" style="fill: #ff7f0e; stroke: #ff7f0e"/>
     <use xlink:href="#mb0768f4dea" x="230.449995" y="187.40984" style="fill: #ff7f0e; stroke: #ff7f0e"/>
     <use xlink:href="#mb0768f4dea" x="232.081425" y="187.875408" style="fill: #ff7f0e; stroke: #ff7f0e"/>
     <use xlink:href="#mb0768f4dea" x="233.712855" y="168.192837" style="fill: #ff7f0e; stroke: #ff7f0e"/>
     <use xlink:href="#mb0768f4dea" x="235.344285" y="188.30498" style="fill: #ff7f0e; stroke: #ff7f0e"/>
     <use xlink:href="#mb0768f4dea" x="236.975715" y="190.244489" style="fill: #ff7f0e; stroke: #ff7f0e"/>
     <use xlink:href="#mb0768f4dea" x="238.607145" y="149.732752" style="fill: #ff7f0e; stroke: #ff7f0e"/>
     <use xlink:href="#mb0768f4dea" x="240.238575" y="88.980476" style="fill: #ff7f0e; stroke: #ff7f0e"/>
     <use xlink:href="#mb0768f4dea" x="241.870005" y="203.437991" style="fill: #ff7f0e; stroke: #ff7f0e"/>
     <use xlink:href="#mb0768f4dea" x="243.501434" y="182.465997" style="fill: #ff7f0e; stroke: #ff7f0e"/>
     <use xlink:href="#mb0768f4dea" x="245.132864" y="202.411738" style="fill: #ff7f0e; stroke: #ff7f0e"/>
     <use xlink:href="#mb0768f4dea" x="246.764294" y="186.9425" style="fill: #ff7f0e; stroke: #ff7f0e"/>
     <use xlink:href="#mb0768f4dea" x="248.395724" y="150.35336" style="fill: #ff7f0e; stroke: #ff7f0e"/>
     <use xlink:href="#mb0768f4dea" x="250.027154" y="203.932895" style="fill: #ff7f0e; stroke: #ff7f0e"/>
     <use xlink:href="#mb0768f4dea" x="251.658584" y="187.691552" style="fill: #ff7f0e; stroke: #ff7f0e"/>
     <use xlink:href="#mb0768f4dea" x="253.290014" y="190.440911" style="fill: #ff7f0e; stroke: #ff7f0e"/>
     <use xlink:href="#mb0768f4dea" x="254.921444" y="149.231046" style="fill: #ff7f0e; stroke: #ff7f0e"/>
     <use xlink:href="#mb0768f4dea" x="256.552873" y="169.136941" style="fill: #ff7f0e; stroke: #ff7f0e"/>
     <use xlink:href="#mb0768f4dea" x="258.184303" y="181.221119" style="fill: #ff7f0e; stroke: #ff7f0e"/>
     <use xlink:href="#mb0768f4dea" x="259.815733" y="184.581355" style="fill: #ff7f0e; stroke: #ff7f0e"/>
     <use xlink:href="#mb0768f4dea" x="261.447163" y="175.405" style="fill: #ff7f0e; stroke: #ff7f0e"/>
     <use xlink:href="#mb0768f4dea" x="263.078593" y="208.212434" style="fill: #ff7f0e; stroke: #ff7f0e"/>
     <use xlink:href="#mb0768f4dea" x="264.710023" y="167.521447" style="fill: #ff7f0e; stroke: #ff7f0e"/>
     <use xlink:href="#mb0768f4dea" x="266.341453" y="149.474943" style="fill: #ff7f0e; stroke: #ff7f0e"/>
     <use xlink:href="#mb0768f4dea" x="267.972883" y="164.164022" style="fill: #ff7f0e; stroke: #ff7f0e"/>
     <use xlink:href="#mb0768f4dea" x="269.604312" y="188.478089" style="fill: #ff7f0e; stroke: #ff7f0e"/>
     <use xlink:href="#mb0768f4dea" x="271.235742" y="175.141924" style="fill: #ff7f0e; stroke: #ff7f0e"/>
     <use xlink:href="#mb0768f4dea" x="272.867172" y="191.390731" style="fill: #ff7f0e; stroke: #ff7f0e"/>
     <use xlink:href="#mb0768f4dea" x="274.498602" y="175.800441" style="fill: #ff7f0e; stroke: #ff7f0e"/>
     <use xlink:href="#mb0768f4dea" x="276.130032" y="190.944436" style="fill: #ff7f0e; stroke: #ff7f0e"/>
     <use xlink:href="#mb0768f4dea" x="277.761462" y="139.057892" style="fill: #ff7f0e; stroke: #ff7f0e"/>
     <use xlink:href="#mb0768f4dea" x="279.392892" y="176.90301" style="fill: #ff7f0e; stroke: #ff7f0e"/>
     <use xlink:href="#mb0768f4dea" x="281.024322" y="183.657564" style="fill: #ff7f0e; stroke: #ff7f0e"/>
     <use xlink:href="#mb0768f4dea" x="282.655751" y="199.729318" style="fill: #ff7f0e; stroke: #ff7f0e"/>
     <use xlink:href="#mb0768f4dea" x="284.287181" y="176.027758" style="fill: #ff7f0e; stroke: #ff7f0e"/>
     <use xlink:href="#mb0768f4dea" x="285.918611" y="205.39557" style="fill: #ff7f0e; stroke: #ff7f0e"/>
     <use xlink:href="#mb0768f4dea" x="287.550041" y="183.948228" style="fill: #ff7f0e; stroke: #ff7f0e"/>
     <use xlink:href="#mb0768f4dea" x="289.181471" y="154.109722" style="fill: #ff7f0e; stroke: #ff7f0e"/>
     <use xlink:href="#mb0768f4dea" x="290.812901" y="199.131455" style="fill: #ff7f0e; stroke: #ff7f0e"/>
     <use xlink:href="#mb0768f4dea" x="292.444331" y="183.385843" style="fill: #ff7f0e; stroke: #ff7f0e"/>
     <use xlink:href="#mb0768f4dea" x="294.075761" y="181.57362" style="fill: #ff7f0e; stroke: #ff7f0e"/>
     <use xlink:href="#mb0768f4dea" x="295.70719" y="112.997926" style="fill: #ff7f0e; stroke: #ff7f0e"/>
     <use xlink:href="#mb0768f4dea" x="297.33862" y="203.52777" style="fill: #ff7f0e; stroke: #ff7f0e"/>
     <use xlink:href="#mb0768f4dea" x="298.97005" y="172.402509" style="fill: #ff7f0e; stroke: #ff7f0e"/>
     <use xlink:href="#mb0768f4dea" x="300.60148" y="173.831124" style="fill: #ff7f0e; stroke: #ff7f0e"/>
     <use xlink:href="#mb0768f4dea" x="302.23291" y="163.17053" style="fill: #ff7f0e; stroke: #ff7f0e"/>
     <use xlink:href="#mb0768f4dea" x="303.86434" y="146.845643" style="fill: #ff7f0e; stroke: #ff7f0e"/>
     <use xlink:href="#mb0768f4dea" x="305.49577" y="200.456167" style="fill: #ff7f0e; stroke: #ff7f0e"/>
     <use xlink:href="#mb0768f4dea" x="307.1272" y="182.682897" style="fill: #ff7f0e; stroke: #ff7f0e"/>
     <use xlink:href="#mb0768f4dea" x="308.75863" y="184.593897" style="fill: #ff7f0e; stroke: #ff7f0e"/>
     <use xlink:href="#mb0768f4dea" x="310.390059" y="229.950109" style="fill: #ff7f0e; stroke: #ff7f0e"/>
     <use xlink:href="#mb0768f4dea" x="312.021489" y="178.007562" style="fill: #ff7f0e; stroke: #ff7f0e"/>
     <use xlink:href="#mb0768f4dea" x="313.652919" y="200.124783" style="fill: #ff7f0e; stroke: #ff7f0e"/>
     <use xlink:href="#mb0768f4dea" x="315.284349" y="181.925341" style="fill: #ff7f0e; stroke: #ff7f0e"/>
     <use xlink:href="#mb0768f4dea" x="316.915779" y="201.533297" style="fill: #ff7f0e; stroke: #ff7f0e"/>
     <use xlink:href="#mb0768f4dea" x="318.547209" y="214.237493" style="fill: #ff7f0e; stroke: #ff7f0e"/>
     <use xlink:href="#mb0768f4dea" x="320.178639" y="198.207736" style="fill: #ff7f0e; stroke: #ff7f0e"/>
     <use xlink:href="#mb0768f4dea" x="321.810069" y="180.719224" style="fill: #ff7f0e; stroke: #ff7f0e"/>
     <use xlink:href="#mb0768f4dea" x="323.441498" y="212.757907" style="fill: #ff7f0e; stroke: #ff7f0e"/>
     <use xlink:href="#mb0768f4dea" x="325.072928" y="218.945541" style="fill: #ff7f0e; stroke: #ff7f0e"/>
     <use xlink:href="#mb0768f4dea" x="326.704358" y="155.480682" style="fill: #ff7f0e; stroke: #ff7f0e"/>
     <use xlink:href="#mb0768f4dea" x="328.335788" y="160.370861" style="fill: #ff7f0e; stroke: #ff7f0e"/>
     <use xlink:href="#mb0768f4dea" x="329.967218" y="196.603886" style="fill: #ff7f0e; stroke: #ff7f0e"/>
     <use xlink:href="#mb0768f4dea" x="331.598648" y="192.316813" style="fill: #ff7f0e; stroke: #ff7f0e"/>
     <use xlink:href="#mb0768f4dea" x="333.230078" y="186.656324" style="fill: #ff7f0e; stroke: #ff7f0e"/>
     <use xlink:href="#mb0768f4dea" x="334.861508" y="195.634462" style="fill: #ff7f0e; stroke: #ff7f0e"/>
     <use xlink:href="#mb0768f4dea" x="336.492937" y="168.495099" style="fill: #ff7f0e; stroke: #ff7f0e"/>
     <use xlink:href="#mb0768f4dea" x="338.124367" y="194.72737" style="fill: #ff7f0e; stroke: #ff7f0e"/>
     <use xlink:href="#mb0768f4dea" x="339.755797" y="211.586274" style="fill: #ff7f0e; stroke: #ff7f0e"/>
     <use xlink:href="#mb0768f4dea" x="341.387227" y="141.837248" style="fill: #ff7f0e; stroke: #ff7f0e"/>
     <use xlink:href="#mb0768f4dea" x="343.018657" y="221.367955" style="fill: #ff7f0e; stroke: #ff7f0e"/>
     <use xlink:href="#mb0768f4dea" x="344.650087" y="193.643367" style="fill: #ff7f0e; stroke: #ff7f0e"/>
     <use xlink:href="#mb0768f4dea" x="346.281517" y="186.783067" style="fill: #ff7f0e; stroke: #ff7f0e"/>
     <use xlink:href="#mb0768f4dea" x="347.912947" y="201.151508" style="fill: #ff7f0e; stroke: #ff7f0e"/>
     <use xlink:href="#mb0768f4dea" x="349.544376" y="211.520399" style="fill: #ff7f0e; stroke: #ff7f0e"/>
     <use xlink:href="#mb0768f4dea" x="351.175806" y="188.316317" style="fill: #ff7f0e; stroke: #ff7f0e"/>
     <use xlink:href="#mb0768f4dea" x="352.807236" y="176.955753" style="fill: #ff7f0e; stroke: #ff7f0e"/>
     <use xlink:href="#mb0768f4dea" x="354.438666" y="189.318384" style="fill: #ff7f0e; stroke: #ff7f0e"/>
     <use xlink:href="#mb0768f4dea" x="356.070096" y="175.268714" style="fill: #ff7f0e; stroke: #ff7f0e"/>
     <use xlink:href="#mb0768f4dea" x="357.701526" y="181.376584" style="fill: #ff7f0e; stroke: #ff7f0e"/>
     <use xlink:href="#mb0768f4dea" x="359.332956" y="201.015955" style="fill: #ff7f0e; stroke: #ff7f0e"/>
     <use xlink:href="#mb0768f4dea" x="360.964386" y="176.670875" style="fill: #ff7f0e; stroke: #ff7f0e"/>
     <use xlink:href="#mb0768f4dea" x="362.595815" y="184.637216" style="fill: #ff7f0e; stroke: #ff7f0e"/>
     <use xlink:href="#mb0768f4dea" x="364.227245" y="164.959345" style="fill: #ff7f0e; stroke: #ff7f0e"/>
     <use xlink:href="#mb0768f4dea" x="365.858675" y="178.883145" style="fill: #ff7f0e; stroke: #ff7f0e"/>
     <use xlink:href="#mb0768f4dea" x="367.490105" y="188.369792" style="fill: #ff7f0e; stroke: #ff7f0e"/>
     <use xlink:href="#mb0768f4dea" x="369.121535" y="221.293766" style="fill: #ff7f0e; stroke: #ff7f0e"/>
     <use xlink:href="#mb0768f4dea" x="370.752965" y="183.390331" style="fill: #ff7f0e; stroke: #ff7f0e"/>
     <use xlink:href="#mb0768f4dea" x="372.384395" y="212.875533" style="fill: #ff7f0e; stroke: #ff7f0e"/>
     <use xlink:href="#mb0768f4dea" x="374.015825" y="169.962261" style="fill: #ff7f0e; stroke: #ff7f0e"/>
     <use xlink:href="#mb0768f4dea" x="375.647254" y="200.124428" style="fill: #ff7f0e; stroke: #ff7f0e"/>
     <use xlink:href="#mb0768f4dea" x="377.278684" y="190.482812" style="fill: #ff7f0e; stroke: #ff7f0e"/>
     <use xlink:href="#mb0768f4dea" x="378.910114" y="152.678651" style="fill: #ff7f0e; stroke: #ff7f0e"/>
     <use xlink:href="#mb0768f4dea" x="380.541544" y="177.627096" style="fill: #ff7f0e; stroke: #ff7f0e"/>
     <use xlink:href="#mb0768f4dea" x="382.172974" y="168.910853" style="fill: #ff7f0e; stroke: #ff7f0e"/>
     <use xlink:href="#mb0768f4dea" x="383.804404" y="174.950769" style="fill: #ff7f0e; stroke: #ff7f0e"/>
     <use xlink:href="#mb0768f4dea" x="385.435834" y="171.066979" style="fill: #ff7f0e; stroke: #ff7f0e"/>
     <use xlink:href="#mb0768f4dea" x="387.067264" y="211.524745" style="fill: #ff7f0e; stroke: #ff7f0e"/>
     <use xlink:href="#mb0768f4dea" x="388.698693" y="188.664968" style="fill: #ff7f0e; stroke: #ff7f0e"/>
     <use xlink:href="#mb0768f4dea" x="390.330123" y="193.606591" style="fill: #ff7f0e; stroke: #ff7f0e"/>
     <use xlink:href="#mb0768f4dea" x="391.961553" y="199.568538" style="fill: #ff7f0e; stroke: #ff7f0e"/>
     <use xlink:href="#mb0768f4dea" x="393.592983" y="204.98487" style="fill: #ff7f0e; stroke: #ff7f0e"/>
     <use xlink:href="#mb0768f4dea" x="395.224413" y="203.317767" style="fill: #ff7f0e; stroke: #ff7f0e"/>
     <use xlink:href="#mb0768f4dea" x="396.855843" y="180.483192" style="fill: #ff7f0e; stroke: #ff7f0e"/>
     <use xlink:href="#mb0768f4dea" x="398.487273" y="203.827764" style="fill: #ff7f0e; stroke: #ff7f0e"/>
    </g>
   </g>
   <g id="line2d_32">
    <path d="M 73.832727 104.10467 
L 77.095587 110.225419 
L 80.358447 115.873251 
L 83.621307 121.048165 
L 86.884166 125.750161 
L 90.147026 129.97924 
L 93.409886 133.735401 
L 96.672746 137.018644 
L 99.935605 139.828969 
L 103.198465 142.166376 
L 104.829895 143.157736 
L 106.461325 143.149505 
L 108.092755 145.148441 
L 109.724185 145.194151 
L 111.355614 144.478523 
L 112.987044 147.171919 
L 114.618474 147.48522 
L 116.249904 146.818057 
L 117.881334 147.887482 
L 119.512764 145.660552 
L 121.144194 144.933612 
L 122.775624 141.600386 
L 124.407053 141.739339 
L 126.038483 142.208438 
L 127.669913 142.023851 
L 129.301343 143.225559 
L 132.564203 142.843819 
L 135.827063 144.075636 
L 137.458492 143.284885 
L 139.089922 143.777825 
L 140.721352 143.613685 
L 142.352782 145.359622 
L 143.984212 146.262289 
L 145.615642 146.997562 
L 147.247072 148.558543 
L 148.878502 149.566057 
L 150.509931 152.316705 
L 152.141361 154.483982 
L 153.772791 156.296582 
L 155.404221 154.533329 
L 157.035651 155.952248 
L 158.667081 157.974927 
L 160.298511 159.470255 
L 161.929941 164.093339 
L 163.56137 165.874797 
L 165.1928 171.081041 
L 166.82423 169.116945 
L 168.45566 170.796398 
L 170.08709 170.291756 
L 171.71852 171.913227 
L 173.34995 171.86195 
L 174.98138 171.977825 
L 176.61281 175.596367 
L 178.244239 172.870377 
L 179.875669 173.98812 
L 181.507099 172.430551 
L 183.138529 171.226347 
L 184.769959 172.443226 
L 186.401389 171.242572 
L 188.032819 172.947286 
L 189.664249 173.140834 
L 191.295678 172.593486 
L 192.927108 172.285807 
L 194.558538 172.284854 
L 199.452828 172.599512 
L 201.084258 174.507029 
L 202.715688 175.448882 
L 204.347117 175.072569 
L 205.978547 176.143593 
L 207.609977 178.791707 
L 209.241407 177.025373 
L 210.872837 176.964055 
L 212.504267 176.510985 
L 214.135697 177.142568 
L 217.398556 177.603182 
L 220.661416 178.455328 
L 222.292846 181.034021 
L 223.924276 181.468879 
L 225.555706 183.267563 
L 227.187136 182.010576 
L 228.818566 182.687331 
L 230.449995 177.779636 
L 232.081425 178.149459 
L 233.712855 178.842651 
L 235.344285 180.030961 
L 236.975715 179.602246 
L 238.607145 180.063659 
L 240.238575 179.779182 
L 241.870005 177.386686 
L 243.501434 177.465257 
L 245.132864 177.845141 
L 246.764294 177.761901 
L 248.395724 177.441846 
L 250.027154 175.568207 
L 251.658584 175.903359 
L 253.290014 173.551529 
L 254.921444 173.805329 
L 256.552873 175.567332 
L 258.184303 175.621915 
L 259.815733 175.522547 
L 261.447163 176.508995 
L 263.078593 179.550591 
L 264.710023 179.13275 
L 266.341453 179.26733 
L 267.972883 180.088052 
L 269.604312 181.432402 
L 271.235742 181.616878 
L 272.867172 176.939399 
L 274.498602 177.073562 
L 276.130032 176.540679 
L 277.761462 175.461674 
L 279.392892 176.148872 
L 281.024322 174.630081 
L 282.655751 175.904022 
L 285.918611 176.282385 
L 287.550041 175.663799 
L 289.181471 176.32662 
L 290.812901 176.320049 
L 292.444331 176.527769 
L 294.075761 178.792408 
L 295.70719 181.964001 
L 297.33862 182.265051 
L 298.97005 181.939503 
L 300.60148 182.191804 
L 302.23291 183.02107 
L 303.86434 184.332345 
L 305.49577 185.240588 
L 307.1272 185.102078 
L 308.75863 188.077262 
L 310.390059 185.90006 
L 312.021489 186.142555 
L 313.652919 186.883426 
L 315.284349 187.814273 
L 316.915779 187.664898 
L 318.547209 189.654379 
L 320.178639 191.301113 
L 321.810069 191.160254 
L 323.441498 193.100196 
L 325.072928 194.178708 
L 326.704358 194.450386 
L 328.335788 192.693643 
L 329.967218 193.68933 
L 331.598648 194.122947 
L 333.230078 193.791862 
L 334.861508 192.471579 
L 336.492937 189.124594 
L 338.124367 189.179417 
L 339.755797 187.536344 
L 341.387227 187.518282 
L 343.018657 188.176213 
L 344.650087 187.42006 
L 346.281517 188.738202 
L 347.912947 188.221616 
L 349.544376 188.652219 
L 351.175806 189.367269 
L 352.807236 189.669929 
L 354.438666 187.85904 
L 356.070096 188.32939 
L 357.701526 189.16316 
L 360.964386 185.659869 
L 362.595815 185.320182 
L 364.227245 185.769995 
L 365.858675 185.176127 
L 369.121535 185.303121 
L 372.384395 185.649502 
L 375.647254 186.198232 
L 378.910114 186.949313 
L 382.172974 187.902743 
L 385.435834 189.058524 
L 388.698693 190.416654 
L 391.961553 191.977134 
L 395.224413 193.739964 
L 398.487273 195.705145 
L 398.487273 195.705145 
" clip-path="url(#pf5382aa9ff)" style="fill: none; stroke-dasharray: 5.55,2.4; stroke-dashoffset: 0; stroke: #ff7f0e; stroke-width: 1.5"/>
   </g>
   <g id="patch_3">
    <path d="M 57.6 307.584 
L 57.6 41.472 
" style="fill: none; stroke: #000000; stroke-width: 0.8; stroke-linejoin: miter; stroke-linecap: square"/>
   </g>
   <g id="patch_4">
    <path d="M 414.72 307.584 
L 414.72 41.472 
" style="fill: none; stroke: #000000; stroke-width: 0.8; stroke-linejoin: miter; stroke-linecap: square"/>
   </g>
   <g id="patch_5">
    <path d="M 57.6 307.584 
L 414.72 307.584 
" style="fill: none; stroke: #000000; stroke-width: 0.8; stroke-linejoin: miter; stroke-linecap: square"/>
   </g>
   <g id="patch_6">
    <path d="M 57.6 41.472 
L 414.72 41.472 
" style="fill: none; stroke: #000000; stroke-width: 0.8; stroke-linejoin: miter; stroke-linecap: square"/>
   </g>
   <g id="text_17">
    <!-- MAE Training History -->
    <g transform="translate(174.256875 35.472) scale(0.12 -0.12)">
     <defs>
      <path id="DejaVuSans-4d" d="M 628 4666 
L 1569 4666 
L 2759 1491 
L 3956 4666 
L 4897 4666 
L 4897 0 
L 4281 0 
L 4281 4097 
L 3078 897 
L 2444 897 
L 1241 4097 
L 1241 0 
L 628 0 
L 628 4666 
z
" transform="scale(0.015625)"/>
      <path id="DejaVuSans-41" d="M 2188 4044 
L 1331 1722 
L 3047 1722 
L 2188 4044 
z
M 1831 4666 
L 2547 4666 
L 4325 0 
L 3669 0 
L 3244 1197 
L 1141 1197 
L 716 0 
L 50 0 
L 1831 4666 
z
" transform="scale(0.015625)"/>
      <path id="DejaVuSans-20" transform="scale(0.015625)"/>
      <path id="DejaVuSans-54" d="M -19 4666 
L 3928 4666 
L 3928 4134 
L 2272 4134 
L 2272 0 
L 1638 0 
L 1638 4134 
L -19 4134 
L -19 4666 
z
" transform="scale(0.015625)"/>
      <path id="DejaVuSans-72" d="M 2631 2963 
Q 2534 3019 2420 3045 
Q 2306 3072 2169 3072 
Q 1681 3072 1420 2755 
Q 1159 2438 1159 1844 
L 1159 0 
L 581 0 
L 581 3500 
L 1159 3500 
L 1159 2956 
Q 1341 3275 1631 3429 
Q 1922 3584 2338 3584 
Q 2397 3584 2469 3576 
Q 2541 3569 2628 3553 
L 2631 2963 
z
" transform="scale(0.015625)"/>
      <path id="DejaVuSans-61" d="M 2194 1759 
Q 1497 1759 1228 1600 
Q 959 1441 959 1056 
Q 959 750 1161 570 
Q 1363 391 1709 391 
Q 2188 391 2477 730 
Q 2766 1069 2766 1631 
L 2766 1759 
L 2194 1759 
z
M 3341 1997 
L 3341 0 
L 2766 0 
L 2766 531 
Q 2569 213 2275 61 
Q 1981 -91 1556 -91 
Q 1019 -91 701 211 
Q 384 513 384 1019 
Q 384 1609 779 1909 
Q 1175 2209 1959 2209 
L 2766 2209 
L 2766 2266 
Q 2766 2663 2505 2880 
Q 2244 3097 1772 3097 
Q 1472 3097 1187 3025 
Q 903 2953 641 2809 
L 641 3341 
Q 956 3463 1253 3523 
Q 1550 3584 1831 3584 
Q 2591 3584 2966 3190 
Q 3341 2797 3341 1997 
z
" transform="scale(0.015625)"/>
      <path id="DejaVuSans-69" d="M 603 3500 
L 1178 3500 
L 1178 0 
L 603 0 
L 603 3500 
z
M 603 4863 
L 1178 4863 
L 1178 4134 
L 603 4134 
L 603 4863 
z
" transform="scale(0.015625)"/>
      <path id="DejaVuSans-6e" d="M 3513 2113 
L 3513 0 
L 2938 0 
L 2938 2094 
Q 2938 2591 2744 2837 
Q 2550 3084 2163 3084 
Q 1697 3084 1428 2787 
Q 1159 2491 1159 1978 
L 1159 0 
L 581 0 
L 581 3500 
L 1159 3500 
L 1159 2956 
Q 1366 3272 1645 3428 
Q 1925 3584 2291 3584 
Q 2894 3584 3203 3211 
Q 3513 2838 3513 2113 
z
" transform="scale(0.015625)"/>
      <path id="DejaVuSans-67" d="M 2906 1791 
Q 2906 2416 2648 2759 
Q 2391 3103 1925 3103 
Q 1463 3103 1205 2759 
Q 947 2416 947 1791 
Q 947 1169 1205 825 
Q 1463 481 1925 481 
Q 2391 481 2648 825 
Q 2906 1169 2906 1791 
z
M 3481 434 
Q 3481 -459 3084 -895 
Q 2688 -1331 1869 -1331 
Q 1566 -1331 1297 -1286 
Q 1028 -1241 775 -1147 
L 775 -588 
Q 1028 -725 1275 -790 
Q 1522 -856 1778 -856 
Q 2344 -856 2625 -561 
Q 2906 -266 2906 331 
L 2906 616 
Q 2728 306 2450 153 
Q 2172 0 1784 0 
Q 1141 0 747 490 
Q 353 981 353 1791 
Q 353 2603 747 3093 
Q 1141 3584 1784 3584 
Q 2172 3584 2450 3431 
Q 2728 3278 2906 2969 
L 2906 3500 
L 3481 3500 
L 3481 434 
z
" transform="scale(0.015625)"/>
      <path id="DejaVuSans-48" d="M 628 4666 
L 1259 4666 
L 1259 2753 
L 3553 2753 
L 3553 4666 
L 4184 4666 
L 4184 0 
L 3553 0 
L 3553 2222 
L 1259 2222 
L 1259 0 
L 628 0 
L 628 4666 
z
" transform="scale(0.015625)"/>
      <path id="DejaVuSans-74" d="M 1172 4494 
L 1172 3500 
L 2356 3500 
L 2356 3053 
L 1172 3053 
L 1172 1153 
Q 1172 725 1289 603 
Q 1406 481 1766 481 
L 2356 481 
L 2356 0 
L 1766 0 
Q 1100 0 847 248 
Q 594 497 594 1153 
L 594 3053 
L 172 3053 
L 172 3500 
L 594 3500 
L 594 4494 
L 1172 4494 
z
" transform="scale(0.015625)"/>
      <path id="DejaVuSans-79" d="M 2059 -325 
Q 1816 -950 1584 -1140 
Q 1353 -1331 966 -1331 
L 506 -1331 
L 506 -850 
L 844 -850 
Q 1081 -850 1212 -737 
Q 1344 -625 1503 -206 
L 1606 56 
L 191 3500 
L 800 3500 
L 1894 763 
L 2988 3500 
L 3597 3500 
L 2059 -325 
z
" transform="scale(0.015625)"/>
     </defs>
     <use xlink:href="#DejaVuSans-4d"/>
     <use xlink:href="#DejaVuSans-41" x="86.279297"/>
     <use xlink:href="#DejaVuSans-45" x="154.6875"/>
     <use xlink:href="#DejaVuSans-20" x="217.871094"/>
     <use xlink:href="#DejaVuSans-54" x="249.658203"/>
     <use xlink:href="#DejaVuSans-72" x="295.992188"/>
     <use xlink:href="#DejaVuSans-61" x="337.105469"/>
     <use xlink:href="#DejaVuSans-69" x="398.384766"/>
     <use xlink:href="#DejaVuSans-6e" x="426.167969"/>
     <use xlink:href="#DejaVuSans-69" x="489.546875"/>
     <use xlink:href="#DejaVuSans-6e" x="517.330078"/>
     <use xlink:href="#DejaVuSans-67" x="580.708984"/>
     <use xlink:href="#DejaVuSans-20" x="644.185547"/>
     <use xlink:href="#DejaVuSans-48" x="675.972656"/>
     <use xlink:href="#DejaVuSans-69" x="751.167969"/>
     <use xlink:href="#DejaVuSans-73" x="778.951172"/>
     <use xlink:href="#DejaVuSans-74" x="831.050781"/>
     <use xlink:href="#DejaVuSans-6f" x="870.259766"/>
     <use xlink:href="#DejaVuSans-72" x="931.441406"/>
     <use xlink:href="#DejaVuSans-79" x="972.554688"/>
    </g>
   </g>
   <g id="legend_1">
    <g id="patch_7">
     <path d="M 301.22625 78.82825 
L 407.72 78.82825 
Q 409.72 78.82825 409.72 76.82825 
L 409.72 48.472 
Q 409.72 46.472 407.72 46.472 
L 301.22625 46.472 
Q 299.22625 46.472 299.22625 48.472 
L 299.22625 76.82825 
Q 299.22625 78.82825 301.22625 78.82825 
z
" style="fill: #ffffff; opacity: 0.8; stroke: #cccccc; stroke-linejoin: miter"/>
    </g>
    <g id="line2d_33">
     <path d="M 303.22625 54.570437 
L 313.22625 54.570437 
L 323.22625 54.570437 
" style="fill: none; stroke: #1f77b4; stroke-width: 1.5; stroke-linecap: square"/>
     <g>
      <use xlink:href="#m1dd41fa17d" x="313.22625" y="54.570437" style="fill: #1f77b4; stroke: #1f77b4"/>
     </g>
    </g>
    <g id="text_18">
     <!-- Training Loss -->
     <g transform="translate(331.22625 58.070437) scale(0.1 -0.1)">
      <use xlink:href="#DejaVuSans-54"/>
      <use xlink:href="#DejaVuSans-72" x="46.333984"/>
      <use xlink:href="#DejaVuSans-61" x="87.447266"/>
      <use xlink:href="#DejaVuSans-69" x="148.726562"/>
      <use xlink:href="#DejaVuSans-6e" x="176.509766"/>
      <use xlink:href="#DejaVuSans-69" x="239.888672"/>
      <use xlink:href="#DejaVuSans-6e" x="267.671875"/>
      <use xlink:href="#DejaVuSans-67" x="331.050781"/>
      <use xlink:href="#DejaVuSans-20" x="394.527344"/>
      <use xlink:href="#DejaVuSans-4c" x="426.314453"/>
      <use xlink:href="#DejaVuSans-6f" x="480.277344"/>
      <use xlink:href="#DejaVuSans-73" x="541.458984"/>
      <use xlink:href="#DejaVuSans-73" x="593.558594"/>
     </g>
    </g>
    <g id="line2d_34">
     <path d="M 303.22625 69.248562 
L 313.22625 69.248562 
L 323.22625 69.248562 
" style="fill: none; stroke: #ff7f0e; stroke-width: 1.5; stroke-linecap: square"/>
     <g>
      <use xlink:href="#mb0768f4dea" x="313.22625" y="69.248562" style="fill: #ff7f0e; stroke: #ff7f0e"/>
     </g>
    </g>
    <g id="text_19">
     <!-- Validation Loss -->
     <g transform="translate(331.22625 72.748562) scale(0.1 -0.1)">
      <defs>
       <path id="DejaVuSans-56" d="M 1831 0 
L 50 4666 
L 709 4666 
L 2188 738 
L 3669 4666 
L 4325 4666 
L 2547 0 
L 1831 0 
z
" transform="scale(0.015625)"/>
       <path id="DejaVuSans-6c" d="M 603 4863 
L 1178 4863 
L 1178 0 
L 603 0 
L 603 4863 
z
" transform="scale(0.015625)"/>
       <path id="DejaVuSans-64" d="M 2906 2969 
L 2906 4863 
L 3481 4863 
L 3481 0 
L 2906 0 
L 2906 525 
Q 2725 213 2448 61 
Q 2172 -91 1784 -91 
Q 1150 -91 751 415 
Q 353 922 353 1747 
Q 353 2572 751 3078 
Q 1150 3584 1784 3584 
Q 2172 3584 2448 3432 
Q 2725 3281 2906 2969 
z
M 947 1747 
Q 947 1113 1208 752 
Q 1469 391 1925 391 
Q 2381 391 2643 752 
Q 2906 1113 2906 1747 
Q 2906 2381 2643 2742 
Q 2381 3103 1925 3103 
Q 1469 3103 1208 2742 
Q 947 2381 947 1747 
z
" transform="scale(0.015625)"/>
      </defs>
      <use xlink:href="#DejaVuSans-56"/>
      <use xlink:href="#DejaVuSans-61" x="60.658203"/>
      <use xlink:href="#DejaVuSans-6c" x="121.9375"/>
      <use xlink:href="#DejaVuSans-69" x="149.720703"/>
      <use xlink:href="#DejaVuSans-64" x="177.503906"/>
      <use xlink:href="#DejaVuSans-61" x="240.980469"/>
      <use xlink:href="#DejaVuSans-74" x="302.259766"/>
      <use xlink:href="#DejaVuSans-69" x="341.46875"/>
      <use xlink:href="#DejaVuSans-6f" x="369.251953"/>
      <use xlink:href="#DejaVuSans-6e" x="430.433594"/>
      <use xlink:href="#DejaVuSans-20" x="493.8125"/>
      <use xlink:href="#DejaVuSans-4c" x="525.599609"/>
      <use xlink:href="#DejaVuSans-6f" x="579.5625"/>
      <use xlink:href="#DejaVuSans-73" x="640.744141"/>
      <use xlink:href="#DejaVuSans-73" x="692.84375"/>
     </g>
    </g>
   </g>
  </g>
 </g>
 <defs>
  <clipPath id="pf5382aa9ff">
   <rect x="57.6" y="41.472" width="357.12" height="266.112"/>
  </clipPath>
 </defs>
</svg>
