<?xml version="1.0" encoding="utf-8" standalone="no"?>
<!DOCTYPE svg PUBLIC "-//W3C//DTD SVG 1.1//EN"
  "http://www.w3.org/Graphics/SVG/1.1/DTD/svg11.dtd">
<svg xmlns:xlink="http://www.w3.org/1999/xlink" width="460.8pt" height="345.6pt" viewBox="0 0 460.8 345.6" xmlns="http://www.w3.org/2000/svg" version="1.1">
 <metadata>
  <rdf:RDF xmlns:dc="http://purl.org/dc/elements/1.1/" xmlns:cc="http://creativecommons.org/ns#" xmlns:rdf="http://www.w3.org/1999/02/22-rdf-syntax-ns#">
   <cc:Work>
    <dc:type rdf:resource="http://purl.org/dc/dcmitype/StillImage"/>
    <dc:date>2024-08-26T12:48:22.272927</dc:date>
    <dc:format>image/svg+xml</dc:format>
    <dc:creator>
     <cc:Agent>
      <dc:title>Matplotlib v3.9.1, https://matplotlib.org/</dc:title>
     </cc:Agent>
    </dc:creator>
   </cc:Work>
  </rdf:RDF>
 </metadata>
 <defs>
  <style type="text/css">*{stroke-linejoin: round; stroke-linecap: butt}</style>
 </defs>
 <g id="figure_1">
  <g id="patch_1">
   <path d="M 0 345.6 
L 460.8 345.6 
L 460.8 0 
L 0 0 
z
" style="fill: #ffffff"/>
  </g>
  <g id="axes_1">
   <g id="patch_2">
    <path d="M 37.84399 146.570854 
L 457.79976 146.570854 
L 457.79976 17.33274 
L 37.84399 17.33274 
z
" style="fill: #ffffff"/>
   </g>
   <g id="matplotlib.axis_1">
    <g id="xtick_1">
     <g id="line2d_1">
      <path d="M 95.110686 146.570854 
L 95.110686 17.33274 
" clip-path="url(#p58baf2110d)" style="fill: none; stroke: #b0b0b0; stroke-width: 0.8; stroke-linecap: square"/>
     </g>
     <g id="line2d_2">
      <defs>
       <path id="m80770015c2" d="M 0 0 
L 0 3.5 
" style="stroke: #000000; stroke-width: 0.8"/>
      </defs>
      <g>
       <use xlink:href="#m80770015c2" x="95.110686" y="146.570854" style="stroke: #000000; stroke-width: 0.8"/>
      </g>
     </g>
     <g id="text_1">
      <!-- 50 -->
      <g transform="translate(88.748186 161.169291) scale(0.1 -0.1)">
       <defs>
        <path id="DejaVuSans-35" d="M 691 4666 
L 3169 4666 
L 3169 4134 
L 1269 4134 
L 1269 2991 
Q 1406 3038 1543 3061 
Q 1681 3084 1819 3084 
Q 2600 3084 3056 2656 
Q 3513 2228 3513 1497 
Q 3513 744 3044 326 
Q 2575 -91 1722 -91 
Q 1428 -91 1123 -41 
Q 819 9 494 109 
L 494 744 
Q 775 591 1075 516 
Q 1375 441 1709 441 
Q 2250 441 2565 725 
Q 2881 1009 2881 1497 
Q 2881 1984 2565 2268 
Q 2250 2553 1709 2553 
Q 1456 2553 1204 2497 
Q 953 2441 691 2322 
L 691 4666 
z
" transform="scale(0.015625)"/>
        <path id="DejaVuSans-30" d="M 2034 4250 
Q 1547 4250 1301 3770 
Q 1056 3291 1056 2328 
Q 1056 1369 1301 889 
Q 1547 409 2034 409 
Q 2525 409 2770 889 
Q 3016 1369 3016 2328 
Q 3016 3291 2770 3770 
Q 2525 4250 2034 4250 
z
M 2034 4750 
Q 2819 4750 3233 4129 
Q 3647 3509 3647 2328 
Q 3647 1150 3233 529 
Q 2819 -91 2034 -91 
Q 1250 -91 836 529 
Q 422 1150 422 2328 
Q 422 3509 836 4129 
Q 1250 4750 2034 4750 
z
" transform="scale(0.015625)"/>
       </defs>
       <use xlink:href="#DejaVuSans-35"/>
       <use xlink:href="#DejaVuSans-30" x="63.623047"/>
      </g>
     </g>
    </g>
    <g id="xtick_2">
     <g id="line2d_3">
      <path d="M 158.740348 146.570854 
L 158.740348 17.33274 
" clip-path="url(#p58baf2110d)" style="fill: none; stroke: #b0b0b0; stroke-width: 0.8; stroke-linecap: square"/>
     </g>
     <g id="line2d_4">
      <g>
       <use xlink:href="#m80770015c2" x="158.740348" y="146.570854" style="stroke: #000000; stroke-width: 0.8"/>
      </g>
     </g>
     <g id="text_2">
      <!-- 100 -->
      <g transform="translate(149.196598 161.169291) scale(0.1 -0.1)">
       <defs>
        <path id="DejaVuSans-31" d="M 794 531 
L 1825 531 
L 1825 4091 
L 703 3866 
L 703 4441 
L 1819 4666 
L 2450 4666 
L 2450 531 
L 3481 531 
L 3481 0 
L 794 0 
L 794 531 
z
" transform="scale(0.015625)"/>
       </defs>
       <use xlink:href="#DejaVuSans-31"/>
       <use xlink:href="#DejaVuSans-30" x="63.623047"/>
       <use xlink:href="#DejaVuSans-30" x="127.246094"/>
      </g>
     </g>
    </g>
    <g id="xtick_3">
     <g id="line2d_5">
      <path d="M 222.37001 146.570854 
L 222.37001 17.33274 
" clip-path="url(#p58baf2110d)" style="fill: none; stroke: #b0b0b0; stroke-width: 0.8; stroke-linecap: square"/>
     </g>
     <g id="line2d_6">
      <g>
       <use xlink:href="#m80770015c2" x="222.37001" y="146.570854" style="stroke: #000000; stroke-width: 0.8"/>
      </g>
     </g>
     <g id="text_3">
      <!-- 150 -->
      <g transform="translate(212.82626 161.169291) scale(0.1 -0.1)">
       <use xlink:href="#DejaVuSans-31"/>
       <use xlink:href="#DejaVuSans-35" x="63.623047"/>
       <use xlink:href="#DejaVuSans-30" x="127.246094"/>
      </g>
     </g>
    </g>
    <g id="xtick_4">
     <g id="line2d_7">
      <path d="M 285.999672 146.570854 
L 285.999672 17.33274 
" clip-path="url(#p58baf2110d)" style="fill: none; stroke: #b0b0b0; stroke-width: 0.8; stroke-linecap: square"/>
     </g>
     <g id="line2d_8">
      <g>
       <use xlink:href="#m80770015c2" x="285.999672" y="146.570854" style="stroke: #000000; stroke-width: 0.8"/>
      </g>
     </g>
     <g id="text_4">
      <!-- 200 -->
      <g transform="translate(276.455922 161.169291) scale(0.1 -0.1)">
       <defs>
        <path id="DejaVuSans-32" d="M 1228 531 
L 3431 531 
L 3431 0 
L 469 0 
L 469 531 
Q 828 903 1448 1529 
Q 2069 2156 2228 2338 
Q 2531 2678 2651 2914 
Q 2772 3150 2772 3378 
Q 2772 3750 2511 3984 
Q 2250 4219 1831 4219 
Q 1534 4219 1204 4116 
Q 875 4013 500 3803 
L 500 4441 
Q 881 4594 1212 4672 
Q 1544 4750 1819 4750 
Q 2544 4750 2975 4387 
Q 3406 4025 3406 3419 
Q 3406 3131 3298 2873 
Q 3191 2616 2906 2266 
Q 2828 2175 2409 1742 
Q 1991 1309 1228 531 
z
" transform="scale(0.015625)"/>
       </defs>
       <use xlink:href="#DejaVuSans-32"/>
       <use xlink:href="#DejaVuSans-30" x="63.623047"/>
       <use xlink:href="#DejaVuSans-30" x="127.246094"/>
      </g>
     </g>
    </g>
    <g id="xtick_5">
     <g id="line2d_9">
      <path d="M 349.629334 146.570854 
L 349.629334 17.33274 
" clip-path="url(#p58baf2110d)" style="fill: none; stroke: #b0b0b0; stroke-width: 0.8; stroke-linecap: square"/>
     </g>
     <g id="line2d_10">
      <g>
       <use xlink:href="#m80770015c2" x="349.629334" y="146.570854" style="stroke: #000000; stroke-width: 0.8"/>
      </g>
     </g>
     <g id="text_5">
      <!-- 250 -->
      <g transform="translate(340.085584 161.169291) scale(0.1 -0.1)">
       <use xlink:href="#DejaVuSans-32"/>
       <use xlink:href="#DejaVuSans-35" x="63.623047"/>
       <use xlink:href="#DejaVuSans-30" x="127.246094"/>
      </g>
     </g>
    </g>
    <g id="xtick_6">
     <g id="line2d_11">
      <path d="M 413.258997 146.570854 
L 413.258997 17.33274 
" clip-path="url(#p58baf2110d)" style="fill: none; stroke: #b0b0b0; stroke-width: 0.8; stroke-linecap: square"/>
     </g>
     <g id="line2d_12">
      <g>
       <use xlink:href="#m80770015c2" x="413.258997" y="146.570854" style="stroke: #000000; stroke-width: 0.8"/>
      </g>
     </g>
     <g id="text_6">
      <!-- 300 -->
      <g transform="translate(403.715247 161.169291) scale(0.1 -0.1)">
       <defs>
        <path id="DejaVuSans-33" d="M 2597 2516 
Q 3050 2419 3304 2112 
Q 3559 1806 3559 1356 
Q 3559 666 3084 287 
Q 2609 -91 1734 -91 
Q 1441 -91 1130 -33 
Q 819 25 488 141 
L 488 750 
Q 750 597 1062 519 
Q 1375 441 1716 441 
Q 2309 441 2620 675 
Q 2931 909 2931 1356 
Q 2931 1769 2642 2001 
Q 2353 2234 1838 2234 
L 1294 2234 
L 1294 2753 
L 1863 2753 
Q 2328 2753 2575 2939 
Q 2822 3125 2822 3475 
Q 2822 3834 2567 4026 
Q 2313 4219 1838 4219 
Q 1578 4219 1281 4162 
Q 984 4106 628 3988 
L 628 4550 
Q 988 4650 1302 4700 
Q 1616 4750 1894 4750 
Q 2613 4750 3031 4423 
Q 3450 4097 3450 3541 
Q 3450 3153 3228 2886 
Q 3006 2619 2597 2516 
z
" transform="scale(0.015625)"/>
       </defs>
       <use xlink:href="#DejaVuSans-33"/>
       <use xlink:href="#DejaVuSans-30" x="63.623047"/>
       <use xlink:href="#DejaVuSans-30" x="127.246094"/>
      </g>
     </g>
    </g>
   </g>
   <g id="matplotlib.axis_2">
    <g id="ytick_1">
     <g id="line2d_13">
      <path d="M 37.84399 122.717443 
L 457.79976 122.717443 
" clip-path="url(#p58baf2110d)" style="fill: none; stroke: #b0b0b0; stroke-width: 0.8; stroke-linecap: square"/>
     </g>
     <g id="line2d_14">
      <defs>
       <path id="m145cd08a8d" d="M 0 0 
L -3.5 0 
" style="stroke: #000000; stroke-width: 0.8"/>
      </defs>
      <g>
       <use xlink:href="#m145cd08a8d" x="37.84399" y="122.717443" style="stroke: #000000; stroke-width: 0.8"/>
      </g>
     </g>
     <g id="text_7">
      <!-- −4 -->
      <g transform="translate(16.101802 126.516662) scale(0.1 -0.1)">
       <defs>
        <path id="DejaVuSans-2212" d="M 678 2272 
L 4684 2272 
L 4684 1741 
L 678 1741 
L 678 2272 
z
" transform="scale(0.015625)"/>
        <path id="DejaVuSans-34" d="M 2419 4116 
L 825 1625 
L 2419 1625 
L 2419 4116 
z
M 2253 4666 
L 3047 4666 
L 3047 1625 
L 3713 1625 
L 3713 1100 
L 3047 1100 
L 3047 0 
L 2419 0 
L 2419 1100 
L 313 1100 
L 313 1709 
L 2253 4666 
z
" transform="scale(0.015625)"/>
       </defs>
       <use xlink:href="#DejaVuSans-2212"/>
       <use xlink:href="#DejaVuSans-34" x="83.789062"/>
      </g>
     </g>
    </g>
    <g id="ytick_2">
     <g id="line2d_15">
      <path d="M 37.84399 94.042642 
L 457.79976 94.042642 
" clip-path="url(#p58baf2110d)" style="fill: none; stroke: #b0b0b0; stroke-width: 0.8; stroke-linecap: square"/>
     </g>
     <g id="line2d_16">
      <g>
       <use xlink:href="#m145cd08a8d" x="37.84399" y="94.042642" style="stroke: #000000; stroke-width: 0.8"/>
      </g>
     </g>
     <g id="text_8">
      <!-- −2 -->
      <g transform="translate(16.101802 97.84186) scale(0.1 -0.1)">
       <use xlink:href="#DejaVuSans-2212"/>
       <use xlink:href="#DejaVuSans-32" x="83.789062"/>
      </g>
     </g>
    </g>
    <g id="ytick_3">
     <g id="line2d_17">
      <path d="M 37.84399 65.36784 
L 457.79976 65.36784 
" clip-path="url(#p58baf2110d)" style="fill: none; stroke: #b0b0b0; stroke-width: 0.8; stroke-linecap: square"/>
     </g>
     <g id="line2d_18">
      <g>
       <use xlink:href="#m145cd08a8d" x="37.84399" y="65.36784" style="stroke: #000000; stroke-width: 0.8"/>
      </g>
     </g>
     <g id="text_9">
      <!-- 0 -->
      <g transform="translate(24.48149 69.167059) scale(0.1 -0.1)">
       <use xlink:href="#DejaVuSans-30"/>
      </g>
     </g>
    </g>
    <g id="ytick_4">
     <g id="line2d_19">
      <path d="M 37.84399 36.693039 
L 457.79976 36.693039 
" clip-path="url(#p58baf2110d)" style="fill: none; stroke: #b0b0b0; stroke-width: 0.8; stroke-linecap: square"/>
     </g>
     <g id="line2d_20">
      <g>
       <use xlink:href="#m145cd08a8d" x="37.84399" y="36.693039" style="stroke: #000000; stroke-width: 0.8"/>
      </g>
     </g>
     <g id="text_10">
      <!-- 2 -->
      <g transform="translate(24.48149 40.492258) scale(0.1 -0.1)">
       <use xlink:href="#DejaVuSans-32"/>
      </g>
     </g>
    </g>
    <g id="text_11">
     <!-- Damping -->
     <g transform="translate(9.94399 100.560391) rotate(-90) scale(0.1 -0.1)">
      <defs>
       <path id="TimesNewRomanPSMT-44" d="M 109 0 
L 109 116 
L 269 116 
Q 538 116 650 288 
Q 719 391 719 750 
L 719 3488 
Q 719 3884 631 3984 
Q 509 4122 269 4122 
L 109 4122 
L 109 4238 
L 1834 4238 
Q 2784 4238 3279 4022 
Q 3775 3806 4076 3303 
Q 4378 2800 4378 2141 
Q 4378 1256 3841 663 
Q 3238 0 2003 0 
L 109 0 
z
M 1319 306 
Q 1716 219 1984 219 
Q 2709 219 3187 728 
Q 3666 1238 3666 2109 
Q 3666 2988 3187 3494 
Q 2709 4000 1959 4000 
Q 1678 4000 1319 3909 
L 1319 306 
z
" transform="scale(0.015625)"/>
       <path id="TimesNewRomanPSMT-61" d="M 1822 413 
Q 1381 72 1269 19 
Q 1100 -59 909 -59 
Q 613 -59 420 144 
Q 228 347 228 678 
Q 228 888 322 1041 
Q 450 1253 767 1440 
Q 1084 1628 1822 1897 
L 1822 2009 
Q 1822 2438 1686 2597 
Q 1550 2756 1291 2756 
Q 1094 2756 978 2650 
Q 859 2544 859 2406 
L 866 2225 
Q 866 2081 792 2003 
Q 719 1925 600 1925 
Q 484 1925 411 2006 
Q 338 2088 338 2228 
Q 338 2497 613 2722 
Q 888 2947 1384 2947 
Q 1766 2947 2009 2819 
Q 2194 2722 2281 2516 
Q 2338 2381 2338 1966 
L 2338 994 
Q 2338 584 2353 492 
Q 2369 400 2405 369 
Q 2441 338 2488 338 
Q 2538 338 2575 359 
Q 2641 400 2828 588 
L 2828 413 
Q 2478 -56 2159 -56 
Q 2006 -56 1915 50 
Q 1825 156 1822 413 
z
M 1822 616 
L 1822 1706 
Q 1350 1519 1213 1441 
Q 966 1303 859 1153 
Q 753 1003 753 825 
Q 753 600 887 451 
Q 1022 303 1197 303 
Q 1434 303 1822 616 
z
" transform="scale(0.015625)"/>
       <path id="TimesNewRomanPSMT-6d" d="M 1050 2338 
Q 1363 2650 1419 2697 
Q 1559 2816 1721 2881 
Q 1884 2947 2044 2947 
Q 2313 2947 2506 2790 
Q 2700 2634 2766 2338 
Q 3088 2713 3309 2830 
Q 3531 2947 3766 2947 
Q 3994 2947 4170 2830 
Q 4347 2713 4450 2447 
Q 4519 2266 4519 1878 
L 4519 647 
Q 4519 378 4559 278 
Q 4591 209 4675 161 
Q 4759 113 4950 113 
L 4950 0 
L 3538 0 
L 3538 113 
L 3597 113 
Q 3781 113 3884 184 
Q 3956 234 3988 344 
Q 4000 397 4000 647 
L 4000 1878 
Q 4000 2228 3916 2372 
Q 3794 2572 3525 2572 
Q 3359 2572 3192 2489 
Q 3025 2406 2788 2181 
L 2781 2147 
L 2788 2013 
L 2788 647 
Q 2788 353 2820 281 
Q 2853 209 2943 161 
Q 3034 113 3253 113 
L 3253 0 
L 1806 0 
L 1806 113 
Q 2044 113 2133 169 
Q 2222 225 2256 338 
Q 2272 391 2272 647 
L 2272 1878 
Q 2272 2228 2169 2381 
Q 2031 2581 1784 2581 
Q 1616 2581 1450 2491 
Q 1191 2353 1050 2181 
L 1050 647 
Q 1050 366 1089 281 
Q 1128 197 1204 155 
Q 1281 113 1516 113 
L 1516 0 
L 100 0 
L 100 113 
Q 297 113 375 155 
Q 453 197 493 289 
Q 534 381 534 647 
L 534 1741 
Q 534 2213 506 2350 
Q 484 2453 437 2492 
Q 391 2531 309 2531 
Q 222 2531 100 2484 
L 53 2597 
L 916 2947 
L 1050 2947 
L 1050 2338 
z
" transform="scale(0.015625)"/>
       <path id="TimesNewRomanPSMT-70" d="M -6 2578 
L 875 2934 
L 994 2934 
L 994 2266 
Q 1216 2644 1439 2795 
Q 1663 2947 1909 2947 
Q 2341 2947 2628 2609 
Q 2981 2197 2981 1534 
Q 2981 794 2556 309 
Q 2206 -88 1675 -88 
Q 1444 -88 1275 -22 
Q 1150 25 994 166 
L 994 -706 
Q 994 -1000 1030 -1079 
Q 1066 -1159 1155 -1206 
Q 1244 -1253 1478 -1253 
L 1478 -1369 
L -22 -1369 
L -22 -1253 
L 56 -1253 
Q 228 -1256 350 -1188 
Q 409 -1153 442 -1076 
Q 475 -1000 475 -688 
L 475 2019 
Q 475 2297 450 2372 
Q 425 2447 370 2484 
Q 316 2522 222 2522 
Q 147 2522 31 2478 
L -6 2578 
z
M 994 2081 
L 994 1013 
Q 994 666 1022 556 
Q 1066 375 1236 237 
Q 1406 100 1666 100 
Q 1978 100 2172 344 
Q 2425 663 2425 1241 
Q 2425 1897 2138 2250 
Q 1938 2494 1663 2494 
Q 1513 2494 1366 2419 
Q 1253 2363 994 2081 
z
" transform="scale(0.015625)"/>
       <path id="TimesNewRomanPSMT-69" d="M 928 4444 
Q 1059 4444 1151 4351 
Q 1244 4259 1244 4128 
Q 1244 3997 1151 3903 
Q 1059 3809 928 3809 
Q 797 3809 703 3903 
Q 609 3997 609 4128 
Q 609 4259 701 4351 
Q 794 4444 928 4444 
z
M 1188 2947 
L 1188 647 
Q 1188 378 1227 289 
Q 1266 200 1342 156 
Q 1419 113 1622 113 
L 1622 0 
L 231 0 
L 231 113 
Q 441 113 512 153 
Q 584 194 626 287 
Q 669 381 669 647 
L 669 1750 
Q 669 2216 641 2353 
Q 619 2453 572 2492 
Q 525 2531 444 2531 
Q 356 2531 231 2484 
L 188 2597 
L 1050 2947 
L 1188 2947 
z
" transform="scale(0.015625)"/>
       <path id="TimesNewRomanPSMT-6e" d="M 1034 2341 
Q 1538 2947 1994 2947 
Q 2228 2947 2397 2830 
Q 2566 2713 2666 2444 
Q 2734 2256 2734 1869 
L 2734 647 
Q 2734 375 2778 278 
Q 2813 200 2889 156 
Q 2966 113 3172 113 
L 3172 0 
L 1756 0 
L 1756 113 
L 1816 113 
Q 2016 113 2095 173 
Q 2175 234 2206 353 
Q 2219 400 2219 647 
L 2219 1819 
Q 2219 2209 2117 2386 
Q 2016 2563 1775 2563 
Q 1403 2563 1034 2156 
L 1034 647 
Q 1034 356 1069 288 
Q 1113 197 1189 155 
Q 1266 113 1500 113 
L 1500 0 
L 84 0 
L 84 113 
L 147 113 
Q 366 113 442 223 
Q 519 334 519 647 
L 519 1709 
Q 519 2225 495 2337 
Q 472 2450 423 2490 
Q 375 2531 294 2531 
Q 206 2531 84 2484 
L 38 2597 
L 900 2947 
L 1034 2947 
L 1034 2341 
z
" transform="scale(0.015625)"/>
       <path id="TimesNewRomanPSMT-67" d="M 966 1044 
Q 703 1172 562 1401 
Q 422 1631 422 1909 
Q 422 2334 742 2640 
Q 1063 2947 1563 2947 
Q 1972 2947 2272 2747 
L 2878 2747 
Q 3013 2747 3034 2739 
Q 3056 2731 3066 2713 
Q 3084 2684 3084 2613 
Q 3084 2531 3069 2500 
Q 3059 2484 3036 2475 
Q 3013 2466 2878 2466 
L 2506 2466 
Q 2681 2241 2681 1891 
Q 2681 1491 2375 1206 
Q 2069 922 1553 922 
Q 1341 922 1119 984 
Q 981 866 932 777 
Q 884 688 884 625 
Q 884 572 936 522 
Q 988 472 1138 450 
Q 1225 438 1575 428 
Q 2219 413 2409 384 
Q 2700 344 2873 169 
Q 3047 -6 3047 -263 
Q 3047 -616 2716 -925 
Q 2228 -1381 1444 -1381 
Q 841 -1381 425 -1109 
Q 191 -953 191 -784 
Q 191 -709 225 -634 
Q 278 -519 444 -313 
Q 466 -284 763 25 
Q 600 122 533 198 
Q 466 275 466 372 
Q 466 481 555 628 
Q 644 775 966 1044 
z
M 1509 2797 
Q 1278 2797 1122 2612 
Q 966 2428 966 2047 
Q 966 1553 1178 1281 
Q 1341 1075 1591 1075 
Q 1828 1075 1981 1253 
Q 2134 1431 2134 1813 
Q 2134 2309 1919 2591 
Q 1759 2797 1509 2797 
z
M 934 0 
Q 788 -159 713 -296 
Q 638 -434 638 -550 
Q 638 -700 819 -813 
Q 1131 -1006 1722 -1006 
Q 2284 -1006 2551 -807 
Q 2819 -609 2819 -384 
Q 2819 -222 2659 -153 
Q 2497 -84 2016 -72 
Q 1313 -53 934 0 
z
" transform="scale(0.015625)"/>
      </defs>
      <use xlink:href="#TimesNewRomanPSMT-44"/>
      <use xlink:href="#TimesNewRomanPSMT-61" x="72.216797"/>
      <use xlink:href="#TimesNewRomanPSMT-6d" x="116.601562"/>
      <use xlink:href="#TimesNewRomanPSMT-70" x="194.384766"/>
      <use xlink:href="#TimesNewRomanPSMT-69" x="244.384766"/>
      <use xlink:href="#TimesNewRomanPSMT-6e" x="272.167969"/>
      <use xlink:href="#TimesNewRomanPSMT-67" x="322.167969"/>
     </g>
    </g>
   </g>
   <g id="line2d_21">
    <path d="M 37.84399 65.36784 
L 457.79976 65.36784 
" clip-path="url(#p58baf2110d)" style="fill: none; stroke: #000000; stroke-width: 1.5; stroke-linecap: square"/>
   </g>
   <g id="line2d_22">
    <path d="M 56.932889 68.030121 
L 68.501918 69.52062 
L 80.171548 71.1348 
L 91.943096 72.839893 
L 103.817902 74.681989 
L 115.797334 76.739831 
L 127.882777 79.16543 
L 140.075647 82.273508 
L 152.377382 86.883901 
L 164.789442 96.105934 
L 177.313325 140.696394 
L 189.950557 73.284109 
L 202.702654 71.209207 
L 215.571219 70.002336 
L 228.557855 69.152564 
L 241.664165 68.493562 
L 254.891843 67.944835 
L 268.242555 67.456108 
L 281.718045 56.075169 
L 295.320069 61.240468 
L 309.050421 63.446471 
L 322.910908 57.778956 
L 336.903402 65.466878 
L 351.029798 68.987861 
L 365.292018 71.362798 
L 379.692046 73.234695 
L 394.23187 74.881754 
L 408.913561 76.516782 
L 423.739171 78.487722 
L 438.710861 82.101029 
" clip-path="url(#p58baf2110d)" style="fill: none; stroke: #1f77b4; stroke-width: 1.5; stroke-linecap: square"/>
    <defs>
     <path id="m74902be4a7" d="M 0 1.5 
C 0.397805 1.5 0.77937 1.341951 1.06066 1.06066 
C 1.341951 0.77937 1.5 0.397805 1.5 0 
C 1.5 -0.397805 1.341951 -0.77937 1.06066 -1.06066 
C 0.77937 -1.341951 0.397805 -1.5 0 -1.5 
C -0.397805 -1.5 -0.77937 -1.341951 -1.06066 -1.06066 
C -1.341951 -0.77937 -1.5 -0.397805 -1.5 0 
C -1.5 0.397805 -1.341951 0.77937 -1.06066 1.06066 
C -0.77937 1.341951 -0.397805 1.5 0 1.5 
z
" style="stroke: #1f77b4"/>
    </defs>
    <g clip-path="url(#p58baf2110d)">
     <use xlink:href="#m74902be4a7" x="56.932889" y="68.030121" style="fill: #1f77b4; stroke: #1f77b4"/>
     <use xlink:href="#m74902be4a7" x="68.501918" y="69.52062" style="fill: #1f77b4; stroke: #1f77b4"/>
     <use xlink:href="#m74902be4a7" x="80.171548" y="71.1348" style="fill: #1f77b4; stroke: #1f77b4"/>
     <use xlink:href="#m74902be4a7" x="91.943096" y="72.839893" style="fill: #1f77b4; stroke: #1f77b4"/>
     <use xlink:href="#m74902be4a7" x="103.817902" y="74.681989" style="fill: #1f77b4; stroke: #1f77b4"/>
     <use xlink:href="#m74902be4a7" x="115.797334" y="76.739831" style="fill: #1f77b4; stroke: #1f77b4"/>
     <use xlink:href="#m74902be4a7" x="127.882777" y="79.16543" style="fill: #1f77b4; stroke: #1f77b4"/>
     <use xlink:href="#m74902be4a7" x="140.075647" y="82.273508" style="fill: #1f77b4; stroke: #1f77b4"/>
     <use xlink:href="#m74902be4a7" x="152.377382" y="86.883901" style="fill: #1f77b4; stroke: #1f77b4"/>
     <use xlink:href="#m74902be4a7" x="164.789442" y="96.105934" style="fill: #1f77b4; stroke: #1f77b4"/>
     <use xlink:href="#m74902be4a7" x="177.313325" y="140.696394" style="fill: #1f77b4; stroke: #1f77b4"/>
     <use xlink:href="#m74902be4a7" x="189.950557" y="73.284109" style="fill: #1f77b4; stroke: #1f77b4"/>
     <use xlink:href="#m74902be4a7" x="202.702654" y="71.209207" style="fill: #1f77b4; stroke: #1f77b4"/>
     <use xlink:href="#m74902be4a7" x="215.571219" y="70.002336" style="fill: #1f77b4; stroke: #1f77b4"/>
     <use xlink:href="#m74902be4a7" x="228.557855" y="69.152564" style="fill: #1f77b4; stroke: #1f77b4"/>
     <use xlink:href="#m74902be4a7" x="241.664165" y="68.493562" style="fill: #1f77b4; stroke: #1f77b4"/>
     <use xlink:href="#m74902be4a7" x="254.891843" y="67.944835" style="fill: #1f77b4; stroke: #1f77b4"/>
     <use xlink:href="#m74902be4a7" x="268.242555" y="67.456108" style="fill: #1f77b4; stroke: #1f77b4"/>
     <use xlink:href="#m74902be4a7" x="281.718045" y="56.075169" style="fill: #1f77b4; stroke: #1f77b4"/>
     <use xlink:href="#m74902be4a7" x="295.320069" y="61.240468" style="fill: #1f77b4; stroke: #1f77b4"/>
     <use xlink:href="#m74902be4a7" x="309.050421" y="63.446471" style="fill: #1f77b4; stroke: #1f77b4"/>
     <use xlink:href="#m74902be4a7" x="322.910908" y="57.778956" style="fill: #1f77b4; stroke: #1f77b4"/>
     <use xlink:href="#m74902be4a7" x="336.903402" y="65.466878" style="fill: #1f77b4; stroke: #1f77b4"/>
     <use xlink:href="#m74902be4a7" x="351.029798" y="68.987861" style="fill: #1f77b4; stroke: #1f77b4"/>
     <use xlink:href="#m74902be4a7" x="365.292018" y="71.362798" style="fill: #1f77b4; stroke: #1f77b4"/>
     <use xlink:href="#m74902be4a7" x="379.692046" y="73.234695" style="fill: #1f77b4; stroke: #1f77b4"/>
     <use xlink:href="#m74902be4a7" x="394.23187" y="74.881754" style="fill: #1f77b4; stroke: #1f77b4"/>
     <use xlink:href="#m74902be4a7" x="408.913561" y="76.516782" style="fill: #1f77b4; stroke: #1f77b4"/>
     <use xlink:href="#m74902be4a7" x="423.739171" y="78.487722" style="fill: #1f77b4; stroke: #1f77b4"/>
     <use xlink:href="#m74902be4a7" x="438.710861" y="82.101029" style="fill: #1f77b4; stroke: #1f77b4"/>
    </g>
   </g>
   <g id="line2d_23">
    <path d="M 56.932889 65.929668 
L 68.501918 66.228151 
L 80.171548 66.540774 
L 91.943096 66.87077 
L 103.817902 67.220943 
L 115.797334 67.599758 
L 127.882777 68.027164 
L 140.075647 68.557415 
L 152.377382 69.343979 
L 164.789442 70.339663 
L 177.313325 70.021631 
L 189.950557 68.952388 
L 202.702654 69.257368 
L 215.571219 69.646494 
L 228.557855 70.017578 
L 241.664165 70.370376 
L 254.891843 70.708098 
L 268.242555 71.028824 
L 281.718045 71.331773 
L 295.320069 71.613027 
L 309.050421 71.865929 
L 322.910908 72.079588 
L 336.903402 72.235677 
L 351.029798 72.301447 
L 365.292018 72.211816 
L 379.692046 71.809852 
L 394.23187 70.536985 
L 408.913561 68.42586 
L 423.739171 67.123509 
L 438.710861 65.080225 
" clip-path="url(#p58baf2110d)" style="fill: none; stroke: #ff7f0e; stroke-width: 1.5; stroke-linecap: square"/>
    <defs>
     <path id="m3d2ccb48fe" d="M 0 1.5 
C 0.397805 1.5 0.77937 1.341951 1.06066 1.06066 
C 1.341951 0.77937 1.5 0.397805 1.5 0 
C 1.5 -0.397805 1.341951 -0.77937 1.06066 -1.06066 
C 0.77937 -1.341951 0.397805 -1.5 0 -1.5 
C -0.397805 -1.5 -0.77937 -1.341951 -1.06066 -1.06066 
C -1.341951 -0.77937 -1.5 -0.397805 -1.5 0 
C -1.5 0.397805 -1.341951 0.77937 -1.06066 1.06066 
C -0.77937 1.341951 -0.397805 1.5 0 1.5 
z
" style="stroke: #ff7f0e"/>
    </defs>
    <g clip-path="url(#p58baf2110d)">
     <use xlink:href="#m3d2ccb48fe" x="56.932889" y="65.929668" style="fill: #ff7f0e; stroke: #ff7f0e"/>
     <use xlink:href="#m3d2ccb48fe" x="68.501918" y="66.228151" style="fill: #ff7f0e; stroke: #ff7f0e"/>
     <use xlink:href="#m3d2ccb48fe" x="80.171548" y="66.540774" style="fill: #ff7f0e; stroke: #ff7f0e"/>
     <use xlink:href="#m3d2ccb48fe" x="91.943096" y="66.87077" style="fill: #ff7f0e; stroke: #ff7f0e"/>
     <use xlink:href="#m3d2ccb48fe" x="103.817902" y="67.220943" style="fill: #ff7f0e; stroke: #ff7f0e"/>
     <use xlink:href="#m3d2ccb48fe" x="115.797334" y="67.599758" style="fill: #ff7f0e; stroke: #ff7f0e"/>
     <use xlink:href="#m3d2ccb48fe" x="127.882777" y="68.027164" style="fill: #ff7f0e; stroke: #ff7f0e"/>
     <use xlink:href="#m3d2ccb48fe" x="140.075647" y="68.557415" style="fill: #ff7f0e; stroke: #ff7f0e"/>
     <use xlink:href="#m3d2ccb48fe" x="152.377382" y="69.343979" style="fill: #ff7f0e; stroke: #ff7f0e"/>
     <use xlink:href="#m3d2ccb48fe" x="164.789442" y="70.339663" style="fill: #ff7f0e; stroke: #ff7f0e"/>
     <use xlink:href="#m3d2ccb48fe" x="177.313325" y="70.021631" style="fill: #ff7f0e; stroke: #ff7f0e"/>
     <use xlink:href="#m3d2ccb48fe" x="189.950557" y="68.952388" style="fill: #ff7f0e; stroke: #ff7f0e"/>
     <use xlink:href="#m3d2ccb48fe" x="202.702654" y="69.257368" style="fill: #ff7f0e; stroke: #ff7f0e"/>
     <use xlink:href="#m3d2ccb48fe" x="215.571219" y="69.646494" style="fill: #ff7f0e; stroke: #ff7f0e"/>
     <use xlink:href="#m3d2ccb48fe" x="228.557855" y="70.017578" style="fill: #ff7f0e; stroke: #ff7f0e"/>
     <use xlink:href="#m3d2ccb48fe" x="241.664165" y="70.370376" style="fill: #ff7f0e; stroke: #ff7f0e"/>
     <use xlink:href="#m3d2ccb48fe" x="254.891843" y="70.708098" style="fill: #ff7f0e; stroke: #ff7f0e"/>
     <use xlink:href="#m3d2ccb48fe" x="268.242555" y="71.028824" style="fill: #ff7f0e; stroke: #ff7f0e"/>
     <use xlink:href="#m3d2ccb48fe" x="281.718045" y="71.331773" style="fill: #ff7f0e; stroke: #ff7f0e"/>
     <use xlink:href="#m3d2ccb48fe" x="295.320069" y="71.613027" style="fill: #ff7f0e; stroke: #ff7f0e"/>
     <use xlink:href="#m3d2ccb48fe" x="309.050421" y="71.865929" style="fill: #ff7f0e; stroke: #ff7f0e"/>
     <use xlink:href="#m3d2ccb48fe" x="322.910908" y="72.079588" style="fill: #ff7f0e; stroke: #ff7f0e"/>
     <use xlink:href="#m3d2ccb48fe" x="336.903402" y="72.235677" style="fill: #ff7f0e; stroke: #ff7f0e"/>
     <use xlink:href="#m3d2ccb48fe" x="351.029798" y="72.301447" style="fill: #ff7f0e; stroke: #ff7f0e"/>
     <use xlink:href="#m3d2ccb48fe" x="365.292018" y="72.211816" style="fill: #ff7f0e; stroke: #ff7f0e"/>
     <use xlink:href="#m3d2ccb48fe" x="379.692046" y="71.809852" style="fill: #ff7f0e; stroke: #ff7f0e"/>
     <use xlink:href="#m3d2ccb48fe" x="394.23187" y="70.536985" style="fill: #ff7f0e; stroke: #ff7f0e"/>
     <use xlink:href="#m3d2ccb48fe" x="408.913561" y="68.42586" style="fill: #ff7f0e; stroke: #ff7f0e"/>
     <use xlink:href="#m3d2ccb48fe" x="423.739171" y="67.123509" style="fill: #ff7f0e; stroke: #ff7f0e"/>
     <use xlink:href="#m3d2ccb48fe" x="438.710861" y="65.080225" style="fill: #ff7f0e; stroke: #ff7f0e"/>
    </g>
   </g>
   <g id="line2d_24">
    <path d="M 56.932889 65.369675 
L 68.501918 65.370876 
L 80.171548 65.372805 
L 91.943096 65.375654 
L 103.817902 65.380092 
L 115.797334 65.388179 
L 127.882777 65.408158 
L 140.075647 65.498069 
L 152.377382 65.670069 
L 164.789442 65.011976 
L 177.313325 64.173664 
L 189.950557 62.368416 
L 202.702654 58.654809 
L 215.571219 54.77759 
L 228.557855 50.533759 
L 241.664165 45.349673 
L 254.891843 37.91023 
L 268.242555 23.2072 
L 281.718045 55.388531 
L 295.320069 49.626031 
L 309.050421 47.220685 
L 322.910908 45.506477 
L 336.903402 44.171859 
L 351.029798 43.087647 
L 365.292018 42.183726 
L 379.692046 41.416497 
L 394.23187 40.756529 
L 408.913561 40.182831 
L 423.739171 39.679832 
L 438.710861 39.235634 
" clip-path="url(#p58baf2110d)" style="fill: none; stroke: #2ca02c; stroke-width: 1.5; stroke-linecap: square"/>
    <defs>
     <path id="m19195a1ffb" d="M 0 1.5 
C 0.397805 1.5 0.77937 1.341951 1.06066 1.06066 
C 1.341951 0.77937 1.5 0.397805 1.5 0 
C 1.5 -0.397805 1.341951 -0.77937 1.06066 -1.06066 
C 0.77937 -1.341951 0.397805 -1.5 0 -1.5 
C -0.397805 -1.5 -0.77937 -1.341951 -1.06066 -1.06066 
C -1.341951 -0.77937 -1.5 -0.397805 -1.5 0 
C -1.5 0.397805 -1.341951 0.77937 -1.06066 1.06066 
C -0.77937 1.341951 -0.397805 1.5 0 1.5 
z
" style="stroke: #2ca02c"/>
    </defs>
    <g clip-path="url(#p58baf2110d)">
     <use xlink:href="#m19195a1ffb" x="56.932889" y="65.369675" style="fill: #2ca02c; stroke: #2ca02c"/>
     <use xlink:href="#m19195a1ffb" x="68.501918" y="65.370876" style="fill: #2ca02c; stroke: #2ca02c"/>
     <use xlink:href="#m19195a1ffb" x="80.171548" y="65.372805" style="fill: #2ca02c; stroke: #2ca02c"/>
     <use xlink:href="#m19195a1ffb" x="91.943096" y="65.375654" style="fill: #2ca02c; stroke: #2ca02c"/>
     <use xlink:href="#m19195a1ffb" x="103.817902" y="65.380092" style="fill: #2ca02c; stroke: #2ca02c"/>
     <use xlink:href="#m19195a1ffb" x="115.797334" y="65.388179" style="fill: #2ca02c; stroke: #2ca02c"/>
     <use xlink:href="#m19195a1ffb" x="127.882777" y="65.408158" style="fill: #2ca02c; stroke: #2ca02c"/>
     <use xlink:href="#m19195a1ffb" x="140.075647" y="65.498069" style="fill: #2ca02c; stroke: #2ca02c"/>
     <use xlink:href="#m19195a1ffb" x="152.377382" y="65.670069" style="fill: #2ca02c; stroke: #2ca02c"/>
     <use xlink:href="#m19195a1ffb" x="164.789442" y="65.011976" style="fill: #2ca02c; stroke: #2ca02c"/>
     <use xlink:href="#m19195a1ffb" x="177.313325" y="64.173664" style="fill: #2ca02c; stroke: #2ca02c"/>
     <use xlink:href="#m19195a1ffb" x="189.950557" y="62.368416" style="fill: #2ca02c; stroke: #2ca02c"/>
     <use xlink:href="#m19195a1ffb" x="202.702654" y="58.654809" style="fill: #2ca02c; stroke: #2ca02c"/>
     <use xlink:href="#m19195a1ffb" x="215.571219" y="54.77759" style="fill: #2ca02c; stroke: #2ca02c"/>
     <use xlink:href="#m19195a1ffb" x="228.557855" y="50.533759" style="fill: #2ca02c; stroke: #2ca02c"/>
     <use xlink:href="#m19195a1ffb" x="241.664165" y="45.349673" style="fill: #2ca02c; stroke: #2ca02c"/>
     <use xlink:href="#m19195a1ffb" x="254.891843" y="37.91023" style="fill: #2ca02c; stroke: #2ca02c"/>
     <use xlink:href="#m19195a1ffb" x="268.242555" y="23.2072" style="fill: #2ca02c; stroke: #2ca02c"/>
     <use xlink:href="#m19195a1ffb" x="281.718045" y="55.388531" style="fill: #2ca02c; stroke: #2ca02c"/>
     <use xlink:href="#m19195a1ffb" x="295.320069" y="49.626031" style="fill: #2ca02c; stroke: #2ca02c"/>
     <use xlink:href="#m19195a1ffb" x="309.050421" y="47.220685" style="fill: #2ca02c; stroke: #2ca02c"/>
     <use xlink:href="#m19195a1ffb" x="322.910908" y="45.506477" style="fill: #2ca02c; stroke: #2ca02c"/>
     <use xlink:href="#m19195a1ffb" x="336.903402" y="44.171859" style="fill: #2ca02c; stroke: #2ca02c"/>
     <use xlink:href="#m19195a1ffb" x="351.029798" y="43.087647" style="fill: #2ca02c; stroke: #2ca02c"/>
     <use xlink:href="#m19195a1ffb" x="365.292018" y="42.183726" style="fill: #2ca02c; stroke: #2ca02c"/>
     <use xlink:href="#m19195a1ffb" x="379.692046" y="41.416497" style="fill: #2ca02c; stroke: #2ca02c"/>
     <use xlink:href="#m19195a1ffb" x="394.23187" y="40.756529" style="fill: #2ca02c; stroke: #2ca02c"/>
     <use xlink:href="#m19195a1ffb" x="408.913561" y="40.182831" style="fill: #2ca02c; stroke: #2ca02c"/>
     <use xlink:href="#m19195a1ffb" x="423.739171" y="39.679832" style="fill: #2ca02c; stroke: #2ca02c"/>
     <use xlink:href="#m19195a1ffb" x="438.710861" y="39.235634" style="fill: #2ca02c; stroke: #2ca02c"/>
    </g>
   </g>
   <g id="line2d_25">
    <path d="M 56.932889 65.549587 
L 68.501918 65.624951 
L 80.171548 65.733534 
L 91.943096 65.868191 
L 103.817902 66.000383 
L 115.797334 66.099242 
L 127.882777 66.115387 
L 140.075647 65.949501 
L 152.377382 65.481248 
L 164.789442 65.38293 
L 177.313325 65.369668 
L 189.950557 65.366797 
L 202.702654 65.366106 
L 215.571219 65.36605 
L 228.557855 65.36622 
L 241.664165 65.366493 
L 254.891843 65.366831 
L 268.242555 65.367228 
L 281.718045 65.367697 
L 295.320069 65.368275 
L 309.050421 65.369038 
L 322.910908 65.370149 
L 336.903402 65.371954 
L 351.029798 65.375006 
L 365.292018 65.379199 
L 379.692046 65.387969 
L 394.23187 65.382612 
L 408.913561 65.376512 
L 423.739171 65.373711 
L 438.710861 65.372687 
" clip-path="url(#p58baf2110d)" style="fill: none; stroke: #d62728; stroke-width: 1.5; stroke-linecap: square"/>
    <defs>
     <path id="md9da8f7cda" d="M 0 1.5 
C 0.397805 1.5 0.77937 1.341951 1.06066 1.06066 
C 1.341951 0.77937 1.5 0.397805 1.5 0 
C 1.5 -0.397805 1.341951 -0.77937 1.06066 -1.06066 
C 0.77937 -1.341951 0.397805 -1.5 0 -1.5 
C -0.397805 -1.5 -0.77937 -1.341951 -1.06066 -1.06066 
C -1.341951 -0.77937 -1.5 -0.397805 -1.5 0 
C -1.5 0.397805 -1.341951 0.77937 -1.06066 1.06066 
C -0.77937 1.341951 -0.397805 1.5 0 1.5 
z
" style="stroke: #d62728"/>
    </defs>
    <g clip-path="url(#p58baf2110d)">
     <use xlink:href="#md9da8f7cda" x="56.932889" y="65.549587" style="fill: #d62728; stroke: #d62728"/>
     <use xlink:href="#md9da8f7cda" x="68.501918" y="65.624951" style="fill: #d62728; stroke: #d62728"/>
     <use xlink:href="#md9da8f7cda" x="80.171548" y="65.733534" style="fill: #d62728; stroke: #d62728"/>
     <use xlink:href="#md9da8f7cda" x="91.943096" y="65.868191" style="fill: #d62728; stroke: #d62728"/>
     <use xlink:href="#md9da8f7cda" x="103.817902" y="66.000383" style="fill: #d62728; stroke: #d62728"/>
     <use xlink:href="#md9da8f7cda" x="115.797334" y="66.099242" style="fill: #d62728; stroke: #d62728"/>
     <use xlink:href="#md9da8f7cda" x="127.882777" y="66.115387" style="fill: #d62728; stroke: #d62728"/>
     <use xlink:href="#md9da8f7cda" x="140.075647" y="65.949501" style="fill: #d62728; stroke: #d62728"/>
     <use xlink:href="#md9da8f7cda" x="152.377382" y="65.481248" style="fill: #d62728; stroke: #d62728"/>
     <use xlink:href="#md9da8f7cda" x="164.789442" y="65.38293" style="fill: #d62728; stroke: #d62728"/>
     <use xlink:href="#md9da8f7cda" x="177.313325" y="65.369668" style="fill: #d62728; stroke: #d62728"/>
     <use xlink:href="#md9da8f7cda" x="189.950557" y="65.366797" style="fill: #d62728; stroke: #d62728"/>
     <use xlink:href="#md9da8f7cda" x="202.702654" y="65.366106" style="fill: #d62728; stroke: #d62728"/>
     <use xlink:href="#md9da8f7cda" x="215.571219" y="65.36605" style="fill: #d62728; stroke: #d62728"/>
     <use xlink:href="#md9da8f7cda" x="228.557855" y="65.36622" style="fill: #d62728; stroke: #d62728"/>
     <use xlink:href="#md9da8f7cda" x="241.664165" y="65.366493" style="fill: #d62728; stroke: #d62728"/>
     <use xlink:href="#md9da8f7cda" x="254.891843" y="65.366831" style="fill: #d62728; stroke: #d62728"/>
     <use xlink:href="#md9da8f7cda" x="268.242555" y="65.367228" style="fill: #d62728; stroke: #d62728"/>
     <use xlink:href="#md9da8f7cda" x="281.718045" y="65.367697" style="fill: #d62728; stroke: #d62728"/>
     <use xlink:href="#md9da8f7cda" x="295.320069" y="65.368275" style="fill: #d62728; stroke: #d62728"/>
     <use xlink:href="#md9da8f7cda" x="309.050421" y="65.369038" style="fill: #d62728; stroke: #d62728"/>
     <use xlink:href="#md9da8f7cda" x="322.910908" y="65.370149" style="fill: #d62728; stroke: #d62728"/>
     <use xlink:href="#md9da8f7cda" x="336.903402" y="65.371954" style="fill: #d62728; stroke: #d62728"/>
     <use xlink:href="#md9da8f7cda" x="351.029798" y="65.375006" style="fill: #d62728; stroke: #d62728"/>
     <use xlink:href="#md9da8f7cda" x="365.292018" y="65.379199" style="fill: #d62728; stroke: #d62728"/>
     <use xlink:href="#md9da8f7cda" x="379.692046" y="65.387969" style="fill: #d62728; stroke: #d62728"/>
     <use xlink:href="#md9da8f7cda" x="394.23187" y="65.382612" style="fill: #d62728; stroke: #d62728"/>
     <use xlink:href="#md9da8f7cda" x="408.913561" y="65.376512" style="fill: #d62728; stroke: #d62728"/>
     <use xlink:href="#md9da8f7cda" x="423.739171" y="65.373711" style="fill: #d62728; stroke: #d62728"/>
     <use xlink:href="#md9da8f7cda" x="438.710861" y="65.372687" style="fill: #d62728; stroke: #d62728"/>
    </g>
   </g>
   <g id="patch_3">
    <path d="M 37.84399 146.570854 
L 37.84399 17.33274 
" style="fill: none; stroke: #000000; stroke-width: 0.8; stroke-linejoin: miter; stroke-linecap: square"/>
   </g>
   <g id="patch_4">
    <path d="M 457.79976 146.570854 
L 457.79976 17.33274 
" style="fill: none; stroke: #000000; stroke-width: 0.8; stroke-linejoin: miter; stroke-linecap: square"/>
   </g>
   <g id="patch_5">
    <path d="M 37.84399 146.570854 
L 457.79976 146.570854 
" style="fill: none; stroke: #000000; stroke-width: 0.8; stroke-linejoin: miter; stroke-linecap: square"/>
   </g>
   <g id="patch_6">
    <path d="M 37.84399 17.33274 
L 457.79976 17.33274 
" style="fill: none; stroke: #000000; stroke-width: 0.8; stroke-linejoin: miter; stroke-linecap: square"/>
   </g>
   <g id="text_12">
    <!-- V-g Plot -->
    <g transform="translate(227.868125 11.33274) scale(0.12 -0.12)">
     <defs>
      <path id="TimesNewRomanPSMT-56" d="M 4544 4238 
L 4544 4122 
Q 4319 4081 4203 3978 
Q 4038 3825 3909 3509 
L 2431 -97 
L 2316 -97 
L 728 3556 
Q 606 3838 556 3900 
Q 478 3997 364 4051 
Q 250 4106 56 4122 
L 56 4238 
L 1788 4238 
L 1788 4122 
Q 1494 4094 1406 4022 
Q 1319 3950 1319 3838 
Q 1319 3681 1463 3350 
L 2541 866 
L 3541 3319 
Q 3688 3681 3688 3822 
Q 3688 3913 3597 3995 
Q 3506 4078 3291 4113 
Q 3275 4116 3238 4122 
L 3238 4238 
L 4544 4238 
z
" transform="scale(0.015625)"/>
      <path id="TimesNewRomanPSMT-2d" d="M 259 1672 
L 1875 1672 
L 1875 1200 
L 259 1200 
L 259 1672 
z
" transform="scale(0.015625)"/>
      <path id="TimesNewRomanPSMT-20" transform="scale(0.015625)"/>
      <path id="TimesNewRomanPSMT-50" d="M 1313 1984 
L 1313 750 
Q 1313 350 1400 253 
Q 1519 116 1759 116 
L 1922 116 
L 1922 0 
L 106 0 
L 106 116 
L 266 116 
Q 534 116 650 291 
Q 713 388 713 750 
L 713 3488 
Q 713 3888 628 3984 
Q 506 4122 266 4122 
L 106 4122 
L 106 4238 
L 1659 4238 
Q 2228 4238 2556 4120 
Q 2884 4003 3109 3725 
Q 3334 3447 3334 3066 
Q 3334 2547 2992 2222 
Q 2650 1897 2025 1897 
Q 1872 1897 1694 1919 
Q 1516 1941 1313 1984 
z
M 1313 2163 
Q 1478 2131 1606 2115 
Q 1734 2100 1825 2100 
Q 2150 2100 2386 2351 
Q 2622 2603 2622 3003 
Q 2622 3278 2509 3514 
Q 2397 3750 2190 3867 
Q 1984 3984 1722 3984 
Q 1563 3984 1313 3925 
L 1313 2163 
z
" transform="scale(0.015625)"/>
      <path id="TimesNewRomanPSMT-6c" d="M 1184 4444 
L 1184 647 
Q 1184 378 1223 290 
Q 1263 203 1344 158 
Q 1425 113 1647 113 
L 1647 0 
L 244 0 
L 244 113 
Q 441 113 512 153 
Q 584 194 625 287 
Q 666 381 666 647 
L 666 3247 
Q 666 3731 644 3842 
Q 622 3953 573 3993 
Q 525 4034 450 4034 
Q 369 4034 244 3984 
L 191 4094 
L 1044 4444 
L 1184 4444 
z
" transform="scale(0.015625)"/>
      <path id="TimesNewRomanPSMT-6f" d="M 1600 2947 
Q 2250 2947 2644 2453 
Q 2978 2031 2978 1484 
Q 2978 1100 2793 706 
Q 2609 313 2286 112 
Q 1963 -88 1566 -88 
Q 919 -88 538 428 
Q 216 863 216 1403 
Q 216 1797 411 2186 
Q 606 2575 925 2761 
Q 1244 2947 1600 2947 
z
M 1503 2744 
Q 1338 2744 1170 2645 
Q 1003 2547 900 2300 
Q 797 2053 797 1666 
Q 797 1041 1045 587 
Q 1294 134 1700 134 
Q 2003 134 2200 384 
Q 2397 634 2397 1244 
Q 2397 2006 2069 2444 
Q 1847 2744 1503 2744 
z
" transform="scale(0.015625)"/>
      <path id="TimesNewRomanPSMT-74" d="M 1031 3803 
L 1031 2863 
L 1700 2863 
L 1700 2644 
L 1031 2644 
L 1031 788 
Q 1031 509 1111 412 
Q 1191 316 1316 316 
Q 1419 316 1516 380 
Q 1613 444 1666 569 
L 1788 569 
Q 1678 263 1478 108 
Q 1278 -47 1066 -47 
Q 922 -47 784 33 
Q 647 113 581 261 
Q 516 409 516 719 
L 516 2644 
L 63 2644 
L 63 2747 
Q 234 2816 414 2980 
Q 594 3144 734 3369 
Q 806 3488 934 3803 
L 1031 3803 
z
" transform="scale(0.015625)"/>
     </defs>
     <use xlink:href="#TimesNewRomanPSMT-56"/>
     <use xlink:href="#TimesNewRomanPSMT-2d" x="63.091797"/>
     <use xlink:href="#TimesNewRomanPSMT-67" x="96.392578"/>
     <use xlink:href="#TimesNewRomanPSMT-20" x="146.392578"/>
     <use xlink:href="#TimesNewRomanPSMT-50" x="171.392578"/>
     <use xlink:href="#TimesNewRomanPSMT-6c" x="227.007812"/>
     <use xlink:href="#TimesNewRomanPSMT-6f" x="254.791016"/>
     <use xlink:href="#TimesNewRomanPSMT-74" x="304.791016"/>
    </g>
   </g>
   <g id="legend_1">
    <g id="patch_7">
     <path d="M 44.84399 141.570854 
L 113.633052 141.570854 
Q 115.633052 141.570854 115.633052 139.570854 
L 115.633052 81.858354 
Q 115.633052 79.858354 113.633052 79.858354 
L 44.84399 79.858354 
Q 42.84399 79.858354 42.84399 81.858354 
L 42.84399 139.570854 
Q 42.84399 141.570854 44.84399 141.570854 
z
" style="fill: #ffffff; opacity: 0.8; stroke: #cccccc; stroke-linejoin: miter"/>
    </g>
    <g id="line2d_26">
     <path d="M 46.84399 87.956791 
L 56.84399 87.956791 
L 66.84399 87.956791 
" style="fill: none; stroke: #1f77b4; stroke-width: 1.5; stroke-linecap: square"/>
     <g>
      <use xlink:href="#m74902be4a7" x="56.84399" y="87.956791" style="fill: #1f77b4; stroke: #1f77b4"/>
     </g>
    </g>
    <g id="text_13">
     <!-- Mode 1 -->
     <g transform="translate(74.84399 91.456791) scale(0.1 -0.1)">
      <defs>
       <path id="DejaVuSans-4d" d="M 628 4666 
L 1569 4666 
L 2759 1491 
L 3956 4666 
L 4897 4666 
L 4897 0 
L 4281 0 
L 4281 4097 
L 3078 897 
L 2444 897 
L 1241 4097 
L 1241 0 
L 628 0 
L 628 4666 
z
" transform="scale(0.015625)"/>
       <path id="DejaVuSans-6f" d="M 1959 3097 
Q 1497 3097 1228 2736 
Q 959 2375 959 1747 
Q 959 1119 1226 758 
Q 1494 397 1959 397 
Q 2419 397 2687 759 
Q 2956 1122 2956 1747 
Q 2956 2369 2687 2733 
Q 2419 3097 1959 3097 
z
M 1959 3584 
Q 2709 3584 3137 3096 
Q 3566 2609 3566 1747 
Q 3566 888 3137 398 
Q 2709 -91 1959 -91 
Q 1206 -91 779 398 
Q 353 888 353 1747 
Q 353 2609 779 3096 
Q 1206 3584 1959 3584 
z
" transform="scale(0.015625)"/>
       <path id="DejaVuSans-64" d="M 2906 2969 
L 2906 4863 
L 3481 4863 
L 3481 0 
L 2906 0 
L 2906 525 
Q 2725 213 2448 61 
Q 2172 -91 1784 -91 
Q 1150 -91 751 415 
Q 353 922 353 1747 
Q 353 2572 751 3078 
Q 1150 3584 1784 3584 
Q 2172 3584 2448 3432 
Q 2725 3281 2906 2969 
z
M 947 1747 
Q 947 1113 1208 752 
Q 1469 391 1925 391 
Q 2381 391 2643 752 
Q 2906 1113 2906 1747 
Q 2906 2381 2643 2742 
Q 2381 3103 1925 3103 
Q 1469 3103 1208 2742 
Q 947 2381 947 1747 
z
" transform="scale(0.015625)"/>
       <path id="DejaVuSans-65" d="M 3597 1894 
L 3597 1613 
L 953 1613 
Q 991 1019 1311 708 
Q 1631 397 2203 397 
Q 2534 397 2845 478 
Q 3156 559 3463 722 
L 3463 178 
Q 3153 47 2828 -22 
Q 2503 -91 2169 -91 
Q 1331 -91 842 396 
Q 353 884 353 1716 
Q 353 2575 817 3079 
Q 1281 3584 2069 3584 
Q 2775 3584 3186 3129 
Q 3597 2675 3597 1894 
z
M 3022 2063 
Q 3016 2534 2758 2815 
Q 2500 3097 2075 3097 
Q 1594 3097 1305 2825 
Q 1016 2553 972 2059 
L 3022 2063 
z
" transform="scale(0.015625)"/>
       <path id="DejaVuSans-20" transform="scale(0.015625)"/>
      </defs>
      <use xlink:href="#DejaVuSans-4d"/>
      <use xlink:href="#DejaVuSans-6f" x="86.279297"/>
      <use xlink:href="#DejaVuSans-64" x="147.460938"/>
      <use xlink:href="#DejaVuSans-65" x="210.9375"/>
      <use xlink:href="#DejaVuSans-20" x="272.460938"/>
      <use xlink:href="#DejaVuSans-31" x="304.248047"/>
     </g>
    </g>
    <g id="line2d_27">
     <path d="M 46.84399 102.634916 
L 56.84399 102.634916 
L 66.84399 102.634916 
" style="fill: none; stroke: #ff7f0e; stroke-width: 1.5; stroke-linecap: square"/>
     <g>
      <use xlink:href="#m3d2ccb48fe" x="56.84399" y="102.634916" style="fill: #ff7f0e; stroke: #ff7f0e"/>
     </g>
    </g>
    <g id="text_14">
     <!-- Mode 2 -->
     <g transform="translate(74.84399 106.134916) scale(0.1 -0.1)">
      <use xlink:href="#DejaVuSans-4d"/>
      <use xlink:href="#DejaVuSans-6f" x="86.279297"/>
      <use xlink:href="#DejaVuSans-64" x="147.460938"/>
      <use xlink:href="#DejaVuSans-65" x="210.9375"/>
      <use xlink:href="#DejaVuSans-20" x="272.460938"/>
      <use xlink:href="#DejaVuSans-32" x="304.248047"/>
     </g>
    </g>
    <g id="line2d_28">
     <path d="M 46.84399 117.313041 
L 56.84399 117.313041 
L 66.84399 117.313041 
" style="fill: none; stroke: #2ca02c; stroke-width: 1.5; stroke-linecap: square"/>
     <g>
      <use xlink:href="#m19195a1ffb" x="56.84399" y="117.313041" style="fill: #2ca02c; stroke: #2ca02c"/>
     </g>
    </g>
    <g id="text_15">
     <!-- Mode 3 -->
     <g transform="translate(74.84399 120.813041) scale(0.1 -0.1)">
      <use xlink:href="#DejaVuSans-4d"/>
      <use xlink:href="#DejaVuSans-6f" x="86.279297"/>
      <use xlink:href="#DejaVuSans-64" x="147.460938"/>
      <use xlink:href="#DejaVuSans-65" x="210.9375"/>
      <use xlink:href="#DejaVuSans-20" x="272.460938"/>
      <use xlink:href="#DejaVuSans-33" x="304.248047"/>
     </g>
    </g>
    <g id="line2d_29">
     <path d="M 46.84399 131.991166 
L 56.84399 131.991166 
L 66.84399 131.991166 
" style="fill: none; stroke: #d62728; stroke-width: 1.5; stroke-linecap: square"/>
     <g>
      <use xlink:href="#md9da8f7cda" x="56.84399" y="131.991166" style="fill: #d62728; stroke: #d62728"/>
     </g>
    </g>
    <g id="text_16">
     <!-- Mode 4 -->
     <g transform="translate(74.84399 135.491166) scale(0.1 -0.1)">
      <use xlink:href="#DejaVuSans-4d"/>
      <use xlink:href="#DejaVuSans-6f" x="86.279297"/>
      <use xlink:href="#DejaVuSans-64" x="147.460938"/>
      <use xlink:href="#DejaVuSans-65" x="210.9375"/>
      <use xlink:href="#DejaVuSans-20" x="272.460938"/>
      <use xlink:href="#DejaVuSans-34" x="304.248047"/>
     </g>
    </g>
   </g>
  </g>
  <g id="axes_2">
   <g id="patch_8">
    <path d="M 37.84399 312.820072 
L 457.79976 312.820072 
L 457.79976 183.581959 
L 37.84399 183.581959 
z
" style="fill: #ffffff"/>
   </g>
   <g id="matplotlib.axis_3">
    <g id="xtick_7">
     <g id="line2d_30">
      <path d="M 95.110686 312.820072 
L 95.110686 183.581959 
" clip-path="url(#pfcda59c233)" style="fill: none; stroke: #b0b0b0; stroke-width: 0.8; stroke-linecap: square"/>
     </g>
     <g id="line2d_31">
      <g>
       <use xlink:href="#m80770015c2" x="95.110686" y="312.820072" style="stroke: #000000; stroke-width: 0.8"/>
      </g>
     </g>
     <g id="text_17">
      <!-- 50 -->
      <g transform="translate(88.748186 327.41851) scale(0.1 -0.1)">
       <use xlink:href="#DejaVuSans-35"/>
       <use xlink:href="#DejaVuSans-30" x="63.623047"/>
      </g>
     </g>
    </g>
    <g id="xtick_8">
     <g id="line2d_32">
      <path d="M 158.740348 312.820072 
L 158.740348 183.581959 
" clip-path="url(#pfcda59c233)" style="fill: none; stroke: #b0b0b0; stroke-width: 0.8; stroke-linecap: square"/>
     </g>
     <g id="line2d_33">
      <g>
       <use xlink:href="#m80770015c2" x="158.740348" y="312.820072" style="stroke: #000000; stroke-width: 0.8"/>
      </g>
     </g>
     <g id="text_18">
      <!-- 100 -->
      <g transform="translate(149.196598 327.41851) scale(0.1 -0.1)">
       <use xlink:href="#DejaVuSans-31"/>
       <use xlink:href="#DejaVuSans-30" x="63.623047"/>
       <use xlink:href="#DejaVuSans-30" x="127.246094"/>
      </g>
     </g>
    </g>
    <g id="xtick_9">
     <g id="line2d_34">
      <path d="M 222.37001 312.820072 
L 222.37001 183.581959 
" clip-path="url(#pfcda59c233)" style="fill: none; stroke: #b0b0b0; stroke-width: 0.8; stroke-linecap: square"/>
     </g>
     <g id="line2d_35">
      <g>
       <use xlink:href="#m80770015c2" x="222.37001" y="312.820072" style="stroke: #000000; stroke-width: 0.8"/>
      </g>
     </g>
     <g id="text_19">
      <!-- 150 -->
      <g transform="translate(212.82626 327.41851) scale(0.1 -0.1)">
       <use xlink:href="#DejaVuSans-31"/>
       <use xlink:href="#DejaVuSans-35" x="63.623047"/>
       <use xlink:href="#DejaVuSans-30" x="127.246094"/>
      </g>
     </g>
    </g>
    <g id="xtick_10">
     <g id="line2d_36">
      <path d="M 285.999672 312.820072 
L 285.999672 183.581959 
" clip-path="url(#pfcda59c233)" style="fill: none; stroke: #b0b0b0; stroke-width: 0.8; stroke-linecap: square"/>
     </g>
     <g id="line2d_37">
      <g>
       <use xlink:href="#m80770015c2" x="285.999672" y="312.820072" style="stroke: #000000; stroke-width: 0.8"/>
      </g>
     </g>
     <g id="text_20">
      <!-- 200 -->
      <g transform="translate(276.455922 327.41851) scale(0.1 -0.1)">
       <use xlink:href="#DejaVuSans-32"/>
       <use xlink:href="#DejaVuSans-30" x="63.623047"/>
       <use xlink:href="#DejaVuSans-30" x="127.246094"/>
      </g>
     </g>
    </g>
    <g id="xtick_11">
     <g id="line2d_38">
      <path d="M 349.629334 312.820072 
L 349.629334 183.581959 
" clip-path="url(#pfcda59c233)" style="fill: none; stroke: #b0b0b0; stroke-width: 0.8; stroke-linecap: square"/>
     </g>
     <g id="line2d_39">
      <g>
       <use xlink:href="#m80770015c2" x="349.629334" y="312.820072" style="stroke: #000000; stroke-width: 0.8"/>
      </g>
     </g>
     <g id="text_21">
      <!-- 250 -->
      <g transform="translate(340.085584 327.41851) scale(0.1 -0.1)">
       <use xlink:href="#DejaVuSans-32"/>
       <use xlink:href="#DejaVuSans-35" x="63.623047"/>
       <use xlink:href="#DejaVuSans-30" x="127.246094"/>
      </g>
     </g>
    </g>
    <g id="xtick_12">
     <g id="line2d_40">
      <path d="M 413.258997 312.820072 
L 413.258997 183.581959 
" clip-path="url(#pfcda59c233)" style="fill: none; stroke: #b0b0b0; stroke-width: 0.8; stroke-linecap: square"/>
     </g>
     <g id="line2d_41">
      <g>
       <use xlink:href="#m80770015c2" x="413.258997" y="312.820072" style="stroke: #000000; stroke-width: 0.8"/>
      </g>
     </g>
     <g id="text_22">
      <!-- 300 -->
      <g transform="translate(403.715247 327.41851) scale(0.1 -0.1)">
       <use xlink:href="#DejaVuSans-33"/>
       <use xlink:href="#DejaVuSans-30" x="63.623047"/>
       <use xlink:href="#DejaVuSans-30" x="127.246094"/>
      </g>
     </g>
    </g>
    <g id="text_23">
     <!-- Velocity [m/s] -->
     <g transform="translate(219.357031 340.441947) scale(0.1 -0.1)">
      <defs>
       <path id="TimesNewRomanPSMT-65" d="M 681 1784 
Q 678 1147 991 784 
Q 1303 422 1725 422 
Q 2006 422 2214 576 
Q 2422 731 2563 1106 
L 2659 1044 
Q 2594 616 2278 264 
Q 1963 -88 1488 -88 
Q 972 -88 605 314 
Q 238 716 238 1394 
Q 238 2128 614 2539 
Q 991 2950 1559 2950 
Q 2041 2950 2350 2633 
Q 2659 2316 2659 1784 
L 681 1784 
z
M 681 1966 
L 2006 1966 
Q 1991 2241 1941 2353 
Q 1863 2528 1708 2628 
Q 1553 2728 1384 2728 
Q 1125 2728 920 2526 
Q 716 2325 681 1966 
z
" transform="scale(0.015625)"/>
       <path id="TimesNewRomanPSMT-63" d="M 2631 1088 
Q 2516 522 2178 217 
Q 1841 -88 1431 -88 
Q 944 -88 581 321 
Q 219 731 219 1428 
Q 219 2103 620 2525 
Q 1022 2947 1584 2947 
Q 2006 2947 2278 2723 
Q 2550 2500 2550 2259 
Q 2550 2141 2473 2067 
Q 2397 1994 2259 1994 
Q 2075 1994 1981 2113 
Q 1928 2178 1911 2362 
Q 1894 2547 1784 2644 
Q 1675 2738 1481 2738 
Q 1169 2738 978 2506 
Q 725 2200 725 1697 
Q 725 1184 976 792 
Q 1228 400 1656 400 
Q 1963 400 2206 609 
Q 2378 753 2541 1131 
L 2631 1088 
z
" transform="scale(0.015625)"/>
       <path id="TimesNewRomanPSMT-79" d="M 38 2863 
L 1372 2863 
L 1372 2747 
L 1306 2747 
Q 1166 2747 1095 2686 
Q 1025 2625 1025 2534 
Q 1025 2413 1128 2197 
L 1825 753 
L 2466 2334 
Q 2519 2463 2519 2588 
Q 2519 2644 2497 2672 
Q 2472 2706 2419 2726 
Q 2366 2747 2231 2747 
L 2231 2863 
L 3163 2863 
L 3163 2747 
Q 3047 2734 2984 2696 
Q 2922 2659 2847 2556 
Q 2819 2513 2741 2316 
L 1575 -541 
Q 1406 -956 1132 -1168 
Q 859 -1381 606 -1381 
Q 422 -1381 303 -1275 
Q 184 -1169 184 -1031 
Q 184 -900 270 -820 
Q 356 -741 506 -741 
Q 609 -741 788 -809 
Q 913 -856 944 -856 
Q 1038 -856 1148 -759 
Q 1259 -663 1372 -384 
L 1575 113 
L 547 2272 
Q 500 2369 397 2513 
Q 319 2622 269 2659 
Q 197 2709 38 2747 
L 38 2863 
z
" transform="scale(0.015625)"/>
       <path id="TimesNewRomanPSMT-5b" d="M 1900 -1269 
L 525 -1269 
L 525 4334 
L 1900 4334 
L 1900 4088 
L 994 4088 
L 994 -1025 
L 1900 -1025 
L 1900 -1269 
z
" transform="scale(0.015625)"/>
       <path id="TimesNewRomanPSMT-2f" d="M 1794 4444 
L 259 -88 
L 9 -88 
L 1544 4444 
L 1794 4444 
z
" transform="scale(0.015625)"/>
       <path id="TimesNewRomanPSMT-73" d="M 2050 2947 
L 2050 1972 
L 1947 1972 
Q 1828 2431 1642 2597 
Q 1456 2763 1169 2763 
Q 950 2763 815 2647 
Q 681 2531 681 2391 
Q 681 2216 781 2091 
Q 878 1963 1175 1819 
L 1631 1597 
Q 2266 1288 2266 781 
Q 2266 391 1970 151 
Q 1675 -88 1309 -88 
Q 1047 -88 709 6 
Q 606 38 541 38 
Q 469 38 428 -44 
L 325 -44 
L 325 978 
L 428 978 
Q 516 541 762 319 
Q 1009 97 1316 97 
Q 1531 97 1667 223 
Q 1803 350 1803 528 
Q 1803 744 1651 891 
Q 1500 1038 1047 1263 
Q 594 1488 453 1669 
Q 313 1847 313 2119 
Q 313 2472 555 2709 
Q 797 2947 1181 2947 
Q 1350 2947 1591 2875 
Q 1750 2828 1803 2828 
Q 1853 2828 1881 2850 
Q 1909 2872 1947 2947 
L 2050 2947 
z
" transform="scale(0.015625)"/>
       <path id="TimesNewRomanPSMT-5d" d="M 234 4334 
L 1609 4334 
L 1609 -1272 
L 234 -1272 
L 234 -1025 
L 1141 -1025 
L 1141 4088 
L 234 4088 
L 234 4334 
z
" transform="scale(0.015625)"/>
      </defs>
      <use xlink:href="#TimesNewRomanPSMT-56"/>
      <use xlink:href="#TimesNewRomanPSMT-65" x="61.091797"/>
      <use xlink:href="#TimesNewRomanPSMT-6c" x="105.476562"/>
      <use xlink:href="#TimesNewRomanPSMT-6f" x="133.259766"/>
      <use xlink:href="#TimesNewRomanPSMT-63" x="183.259766"/>
      <use xlink:href="#TimesNewRomanPSMT-69" x="227.644531"/>
      <use xlink:href="#TimesNewRomanPSMT-74" x="255.427734"/>
      <use xlink:href="#TimesNewRomanPSMT-79" x="283.210938"/>
      <use xlink:href="#TimesNewRomanPSMT-20" x="333.210938"/>
      <use xlink:href="#TimesNewRomanPSMT-5b" x="358.210938"/>
      <use xlink:href="#TimesNewRomanPSMT-6d" x="391.511719"/>
      <use xlink:href="#TimesNewRomanPSMT-2f" x="469.294922"/>
      <use xlink:href="#TimesNewRomanPSMT-73" x="497.078125"/>
      <use xlink:href="#TimesNewRomanPSMT-5d" x="535.994141"/>
     </g>
    </g>
   </g>
   <g id="matplotlib.axis_4">
    <g id="ytick_5">
     <g id="line2d_42">
      <path d="M 37.84399 306.945613 
L 457.79976 306.945613 
" clip-path="url(#pfcda59c233)" style="fill: none; stroke: #b0b0b0; stroke-width: 0.8; stroke-linecap: square"/>
     </g>
     <g id="line2d_43">
      <g>
       <use xlink:href="#m145cd08a8d" x="37.84399" y="306.945613" style="stroke: #000000; stroke-width: 0.8"/>
      </g>
     </g>
     <g id="text_24">
      <!-- 0 -->
      <g transform="translate(24.48149 310.744832) scale(0.1 -0.1)">
       <use xlink:href="#DejaVuSans-30"/>
      </g>
     </g>
    </g>
    <g id="ytick_6">
     <g id="line2d_44">
      <path d="M 37.84399 281.430136 
L 457.79976 281.430136 
" clip-path="url(#pfcda59c233)" style="fill: none; stroke: #b0b0b0; stroke-width: 0.8; stroke-linecap: square"/>
     </g>
     <g id="line2d_45">
      <g>
       <use xlink:href="#m145cd08a8d" x="37.84399" y="281.430136" style="stroke: #000000; stroke-width: 0.8"/>
      </g>
     </g>
     <g id="text_25">
      <!-- 5 -->
      <g transform="translate(24.48149 285.229354) scale(0.1 -0.1)">
       <use xlink:href="#DejaVuSans-35"/>
      </g>
     </g>
    </g>
    <g id="ytick_7">
     <g id="line2d_46">
      <path d="M 37.84399 255.914658 
L 457.79976 255.914658 
" clip-path="url(#pfcda59c233)" style="fill: none; stroke: #b0b0b0; stroke-width: 0.8; stroke-linecap: square"/>
     </g>
     <g id="line2d_47">
      <g>
       <use xlink:href="#m145cd08a8d" x="37.84399" y="255.914658" style="stroke: #000000; stroke-width: 0.8"/>
      </g>
     </g>
     <g id="text_26">
      <!-- 10 -->
      <g transform="translate(18.11899 259.713877) scale(0.1 -0.1)">
       <use xlink:href="#DejaVuSans-31"/>
       <use xlink:href="#DejaVuSans-30" x="63.623047"/>
      </g>
     </g>
    </g>
    <g id="ytick_8">
     <g id="line2d_48">
      <path d="M 37.84399 230.399181 
L 457.79976 230.399181 
" clip-path="url(#pfcda59c233)" style="fill: none; stroke: #b0b0b0; stroke-width: 0.8; stroke-linecap: square"/>
     </g>
     <g id="line2d_49">
      <g>
       <use xlink:href="#m145cd08a8d" x="37.84399" y="230.399181" style="stroke: #000000; stroke-width: 0.8"/>
      </g>
     </g>
     <g id="text_27">
      <!-- 15 -->
      <g transform="translate(18.11899 234.1984) scale(0.1 -0.1)">
       <use xlink:href="#DejaVuSans-31"/>
       <use xlink:href="#DejaVuSans-35" x="63.623047"/>
      </g>
     </g>
    </g>
    <g id="ytick_9">
     <g id="line2d_50">
      <path d="M 37.84399 204.883704 
L 457.79976 204.883704 
" clip-path="url(#pfcda59c233)" style="fill: none; stroke: #b0b0b0; stroke-width: 0.8; stroke-linecap: square"/>
     </g>
     <g id="line2d_51">
      <g>
       <use xlink:href="#m145cd08a8d" x="37.84399" y="204.883704" style="stroke: #000000; stroke-width: 0.8"/>
      </g>
     </g>
     <g id="text_28">
      <!-- 20 -->
      <g transform="translate(18.11899 208.682922) scale(0.1 -0.1)">
       <use xlink:href="#DejaVuSans-32"/>
       <use xlink:href="#DejaVuSans-30" x="63.623047"/>
      </g>
     </g>
    </g>
    <g id="text_29">
     <!-- Frequency [Hz] -->
     <g transform="translate(11.961177 279.715078) rotate(-90) scale(0.1 -0.1)">
      <defs>
       <path id="TimesNewRomanPSMT-46" d="M 1309 4006 
L 1309 2341 
L 2081 2341 
Q 2347 2341 2470 2458 
Q 2594 2575 2634 2922 
L 2750 2922 
L 2750 1488 
L 2634 1488 
Q 2631 1734 2570 1850 
Q 2509 1966 2401 2023 
Q 2294 2081 2081 2081 
L 1309 2081 
L 1309 750 
Q 1309 428 1350 325 
Q 1381 247 1481 191 
Q 1619 116 1769 116 
L 1922 116 
L 1922 0 
L 103 0 
L 103 116 
L 253 116 
Q 516 116 634 269 
Q 709 369 709 750 
L 709 3488 
Q 709 3809 669 3913 
Q 638 3991 541 4047 
Q 406 4122 253 4122 
L 103 4122 
L 103 4238 
L 3256 4238 
L 3297 3306 
L 3188 3306 
Q 3106 3603 2998 3742 
Q 2891 3881 2733 3943 
Q 2575 4006 2244 4006 
L 1309 4006 
z
" transform="scale(0.015625)"/>
       <path id="TimesNewRomanPSMT-72" d="M 1038 2947 
L 1038 2303 
Q 1397 2947 1775 2947 
Q 1947 2947 2059 2842 
Q 2172 2738 2172 2600 
Q 2172 2478 2090 2393 
Q 2009 2309 1897 2309 
Q 1788 2309 1652 2417 
Q 1516 2525 1450 2525 
Q 1394 2525 1328 2463 
Q 1188 2334 1038 2041 
L 1038 669 
Q 1038 431 1097 309 
Q 1138 225 1241 169 
Q 1344 113 1538 113 
L 1538 0 
L 72 0 
L 72 113 
Q 291 113 397 181 
Q 475 231 506 341 
Q 522 394 522 644 
L 522 1753 
Q 522 2253 501 2348 
Q 481 2444 426 2487 
Q 372 2531 291 2531 
Q 194 2531 72 2484 
L 41 2597 
L 906 2947 
L 1038 2947 
z
" transform="scale(0.015625)"/>
       <path id="TimesNewRomanPSMT-71" d="M 2734 2947 
L 2734 -734 
Q 2734 -1009 2771 -1087 
Q 2809 -1166 2889 -1209 
Q 2969 -1253 3200 -1253 
L 3200 -1369 
L 1756 -1369 
L 1756 -1253 
L 1816 -1253 
Q 1991 -1253 2081 -1203 
Q 2144 -1169 2181 -1080 
Q 2219 -991 2219 -734 
L 2219 497 
Q 1934 159 1721 35 
Q 1509 -88 1281 -88 
Q 866 -88 539 290 
Q 213 669 213 1303 
Q 213 2031 644 2489 
Q 1075 2947 1684 2947 
Q 1863 2947 2013 2897 
Q 2163 2847 2281 2747 
Q 2463 2834 2628 2947 
L 2734 2947 
z
M 2219 694 
L 2219 2038 
Q 2219 2272 2158 2406 
Q 2097 2541 1940 2634 
Q 1784 2728 1588 2728 
Q 1238 2728 988 2431 
Q 738 2134 738 1531 
Q 738 953 992 653 
Q 1247 353 1606 353 
Q 1791 353 1934 433 
Q 2078 513 2219 694 
z
" transform="scale(0.015625)"/>
       <path id="TimesNewRomanPSMT-75" d="M 2709 2863 
L 2709 1128 
Q 2709 631 2732 520 
Q 2756 409 2807 365 
Q 2859 322 2928 322 
Q 3025 322 3147 375 
L 3191 266 
L 2334 -88 
L 2194 -88 
L 2194 519 
Q 1825 119 1631 15 
Q 1438 -88 1222 -88 
Q 981 -88 804 51 
Q 628 191 559 409 
Q 491 628 491 1028 
L 491 2306 
Q 491 2509 447 2587 
Q 403 2666 317 2708 
Q 231 2750 6 2747 
L 6 2863 
L 1009 2863 
L 1009 947 
Q 1009 547 1148 422 
Q 1288 297 1484 297 
Q 1619 297 1789 381 
Q 1959 466 2194 703 
L 2194 2325 
Q 2194 2569 2105 2655 
Q 2016 2741 1734 2747 
L 1734 2863 
L 2709 2863 
z
" transform="scale(0.015625)"/>
       <path id="TimesNewRomanPSMT-48" d="M 1316 2272 
L 3284 2272 
L 3284 3484 
Q 3284 3809 3244 3913 
Q 3213 3991 3113 4047 
Q 2978 4122 2828 4122 
L 2678 4122 
L 2678 4238 
L 4491 4238 
L 4491 4122 
L 4341 4122 
Q 4191 4122 4056 4050 
Q 3956 4000 3920 3898 
Q 3884 3797 3884 3484 
L 3884 750 
Q 3884 428 3925 325 
Q 3956 247 4053 191 
Q 4191 116 4341 116 
L 4491 116 
L 4491 0 
L 2678 0 
L 2678 116 
L 2828 116 
Q 3088 116 3206 269 
Q 3284 369 3284 750 
L 3284 2041 
L 1316 2041 
L 1316 750 
Q 1316 428 1356 325 
Q 1388 247 1488 191 
Q 1622 116 1772 116 
L 1925 116 
L 1925 0 
L 109 0 
L 109 116 
L 259 116 
Q 522 116 641 269 
Q 716 369 716 750 
L 716 3484 
Q 716 3809 675 3913 
Q 644 3991 547 4047 
Q 409 4122 259 4122 
L 109 4122 
L 109 4238 
L 1925 4238 
L 1925 4122 
L 1772 4122 
Q 1622 4122 1488 4050 
Q 1391 4000 1353 3898 
Q 1316 3797 1316 3484 
L 1316 2272 
z
" transform="scale(0.015625)"/>
       <path id="TimesNewRomanPSMT-7a" d="M 2688 878 
L 2653 0 
L 128 0 
L 128 113 
L 2028 2644 
L 1091 2644 
Q 788 2644 694 2605 
Q 600 2566 541 2456 
Q 456 2300 444 2069 
L 319 2069 
L 338 2863 
L 2738 2863 
L 2738 2747 
L 819 209 
L 1863 209 
Q 2191 209 2308 264 
Q 2425 319 2497 456 
Q 2547 556 2581 878 
L 2688 878 
z
" transform="scale(0.015625)"/>
      </defs>
      <use xlink:href="#TimesNewRomanPSMT-46"/>
      <use xlink:href="#TimesNewRomanPSMT-72" x="55.615234"/>
      <use xlink:href="#TimesNewRomanPSMT-65" x="88.916016"/>
      <use xlink:href="#TimesNewRomanPSMT-71" x="133.300781"/>
      <use xlink:href="#TimesNewRomanPSMT-75" x="183.300781"/>
      <use xlink:href="#TimesNewRomanPSMT-65" x="233.300781"/>
      <use xlink:href="#TimesNewRomanPSMT-6e" x="277.685547"/>
      <use xlink:href="#TimesNewRomanPSMT-63" x="327.685547"/>
      <use xlink:href="#TimesNewRomanPSMT-79" x="372.070312"/>
      <use xlink:href="#TimesNewRomanPSMT-20" x="422.070312"/>
      <use xlink:href="#TimesNewRomanPSMT-5b" x="447.070312"/>
      <use xlink:href="#TimesNewRomanPSMT-48" x="480.371094"/>
      <use xlink:href="#TimesNewRomanPSMT-7a" x="552.587891"/>
      <use xlink:href="#TimesNewRomanPSMT-5d" x="596.972656"/>
     </g>
    </g>
   </g>
   <g id="line2d_52">
    <path d="M 56.932889 288.209114 
L 68.501918 287.995316 
L 80.171548 287.791014 
L 91.943096 287.553777 
L 103.817902 287.260441 
L 115.797334 286.897582 
L 127.882777 286.463839 
L 140.075647 285.990035 
L 152.377382 285.660387 
L 164.789442 286.52664 
L 177.313325 294.938768 
L 189.950557 306.945613 
L 202.702654 306.945613 
L 215.571219 306.945613 
L 228.557855 306.945613 
L 241.664165 306.945613 
L 254.891843 306.945613 
L 268.242555 306.945613 
L 281.718045 306.945613 
L 295.320069 306.945613 
L 309.050421 306.945613 
L 322.910908 301.046505 
L 336.903402 297.971777 
L 351.029798 296.084631 
L 365.292018 294.664107 
L 379.692046 293.472009 
L 394.23187 292.382964 
L 408.913561 291.29836 
L 423.739171 290.10007 
L 438.710861 288.750333 
" clip-path="url(#pfcda59c233)" style="fill: none; stroke: #1f77b4; stroke-width: 1.5; stroke-linecap: square"/>
    <g clip-path="url(#pfcda59c233)">
     <use xlink:href="#m74902be4a7" x="56.932889" y="288.209114" style="fill: #1f77b4; stroke: #1f77b4"/>
     <use xlink:href="#m74902be4a7" x="68.501918" y="287.995316" style="fill: #1f77b4; stroke: #1f77b4"/>
     <use xlink:href="#m74902be4a7" x="80.171548" y="287.791014" style="fill: #1f77b4; stroke: #1f77b4"/>
     <use xlink:href="#m74902be4a7" x="91.943096" y="287.553777" style="fill: #1f77b4; stroke: #1f77b4"/>
     <use xlink:href="#m74902be4a7" x="103.817902" y="287.260441" style="fill: #1f77b4; stroke: #1f77b4"/>
     <use xlink:href="#m74902be4a7" x="115.797334" y="286.897582" style="fill: #1f77b4; stroke: #1f77b4"/>
     <use xlink:href="#m74902be4a7" x="127.882777" y="286.463839" style="fill: #1f77b4; stroke: #1f77b4"/>
     <use xlink:href="#m74902be4a7" x="140.075647" y="285.990035" style="fill: #1f77b4; stroke: #1f77b4"/>
     <use xlink:href="#m74902be4a7" x="152.377382" y="285.660387" style="fill: #1f77b4; stroke: #1f77b4"/>
     <use xlink:href="#m74902be4a7" x="164.789442" y="286.52664" style="fill: #1f77b4; stroke: #1f77b4"/>
     <use xlink:href="#m74902be4a7" x="177.313325" y="294.938768" style="fill: #1f77b4; stroke: #1f77b4"/>
     <use xlink:href="#m74902be4a7" x="189.950557" y="306.945613" style="fill: #1f77b4; stroke: #1f77b4"/>
     <use xlink:href="#m74902be4a7" x="202.702654" y="306.945613" style="fill: #1f77b4; stroke: #1f77b4"/>
     <use xlink:href="#m74902be4a7" x="215.571219" y="306.945613" style="fill: #1f77b4; stroke: #1f77b4"/>
     <use xlink:href="#m74902be4a7" x="228.557855" y="306.945613" style="fill: #1f77b4; stroke: #1f77b4"/>
     <use xlink:href="#m74902be4a7" x="241.664165" y="306.945613" style="fill: #1f77b4; stroke: #1f77b4"/>
     <use xlink:href="#m74902be4a7" x="254.891843" y="306.945613" style="fill: #1f77b4; stroke: #1f77b4"/>
     <use xlink:href="#m74902be4a7" x="268.242555" y="306.945613" style="fill: #1f77b4; stroke: #1f77b4"/>
     <use xlink:href="#m74902be4a7" x="281.718045" y="306.945613" style="fill: #1f77b4; stroke: #1f77b4"/>
     <use xlink:href="#m74902be4a7" x="295.320069" y="306.945613" style="fill: #1f77b4; stroke: #1f77b4"/>
     <use xlink:href="#m74902be4a7" x="309.050421" y="306.945613" style="fill: #1f77b4; stroke: #1f77b4"/>
     <use xlink:href="#m74902be4a7" x="322.910908" y="301.046505" style="fill: #1f77b4; stroke: #1f77b4"/>
     <use xlink:href="#m74902be4a7" x="336.903402" y="297.971777" style="fill: #1f77b4; stroke: #1f77b4"/>
     <use xlink:href="#m74902be4a7" x="351.029798" y="296.084631" style="fill: #1f77b4; stroke: #1f77b4"/>
     <use xlink:href="#m74902be4a7" x="365.292018" y="294.664107" style="fill: #1f77b4; stroke: #1f77b4"/>
     <use xlink:href="#m74902be4a7" x="379.692046" y="293.472009" style="fill: #1f77b4; stroke: #1f77b4"/>
     <use xlink:href="#m74902be4a7" x="394.23187" y="292.382964" style="fill: #1f77b4; stroke: #1f77b4"/>
     <use xlink:href="#m74902be4a7" x="408.913561" y="291.29836" style="fill: #1f77b4; stroke: #1f77b4"/>
     <use xlink:href="#m74902be4a7" x="423.739171" y="290.10007" style="fill: #1f77b4; stroke: #1f77b4"/>
     <use xlink:href="#m74902be4a7" x="438.710861" y="288.750333" style="fill: #1f77b4; stroke: #1f77b4"/>
    </g>
   </g>
   <g id="line2d_53">
    <path d="M 56.932889 235.43985 
L 68.501918 235.32426 
L 80.171548 235.175316 
L 91.943096 235.0077 
L 103.817902 234.826576 
L 115.797334 234.631545 
L 127.882777 234.421665 
L 140.075647 234.226625 
L 152.377382 234.364985 
L 164.789442 236.333657 
L 177.313325 239.389263 
L 189.950557 237.621485 
L 202.702654 236.179534 
L 215.571219 235.60491 
L 228.557855 235.289886 
L 241.664165 235.088706 
L 254.891843 234.94857 
L 268.242555 234.858751 
L 281.718045 234.809526 
L 295.320069 234.801244 
L 309.050421 234.838614 
L 322.910908 234.929939 
L 336.903402 235.086216 
L 351.029798 235.319591 
L 365.292018 235.638391 
L 379.692046 236.035611 
L 394.23187 236.734169 
L 408.913561 242.359862 
L 423.739171 251.382502 
L 438.710861 262.667217 
" clip-path="url(#pfcda59c233)" style="fill: none; stroke: #ff7f0e; stroke-width: 1.5; stroke-linecap: square"/>
    <g clip-path="url(#pfcda59c233)">
     <use xlink:href="#m3d2ccb48fe" x="56.932889" y="235.43985" style="fill: #ff7f0e; stroke: #ff7f0e"/>
     <use xlink:href="#m3d2ccb48fe" x="68.501918" y="235.32426" style="fill: #ff7f0e; stroke: #ff7f0e"/>
     <use xlink:href="#m3d2ccb48fe" x="80.171548" y="235.175316" style="fill: #ff7f0e; stroke: #ff7f0e"/>
     <use xlink:href="#m3d2ccb48fe" x="91.943096" y="235.0077" style="fill: #ff7f0e; stroke: #ff7f0e"/>
     <use xlink:href="#m3d2ccb48fe" x="103.817902" y="234.826576" style="fill: #ff7f0e; stroke: #ff7f0e"/>
     <use xlink:href="#m3d2ccb48fe" x="115.797334" y="234.631545" style="fill: #ff7f0e; stroke: #ff7f0e"/>
     <use xlink:href="#m3d2ccb48fe" x="127.882777" y="234.421665" style="fill: #ff7f0e; stroke: #ff7f0e"/>
     <use xlink:href="#m3d2ccb48fe" x="140.075647" y="234.226625" style="fill: #ff7f0e; stroke: #ff7f0e"/>
     <use xlink:href="#m3d2ccb48fe" x="152.377382" y="234.364985" style="fill: #ff7f0e; stroke: #ff7f0e"/>
     <use xlink:href="#m3d2ccb48fe" x="164.789442" y="236.333657" style="fill: #ff7f0e; stroke: #ff7f0e"/>
     <use xlink:href="#m3d2ccb48fe" x="177.313325" y="239.389263" style="fill: #ff7f0e; stroke: #ff7f0e"/>
     <use xlink:href="#m3d2ccb48fe" x="189.950557" y="237.621485" style="fill: #ff7f0e; stroke: #ff7f0e"/>
     <use xlink:href="#m3d2ccb48fe" x="202.702654" y="236.179534" style="fill: #ff7f0e; stroke: #ff7f0e"/>
     <use xlink:href="#m3d2ccb48fe" x="215.571219" y="235.60491" style="fill: #ff7f0e; stroke: #ff7f0e"/>
     <use xlink:href="#m3d2ccb48fe" x="228.557855" y="235.289886" style="fill: #ff7f0e; stroke: #ff7f0e"/>
     <use xlink:href="#m3d2ccb48fe" x="241.664165" y="235.088706" style="fill: #ff7f0e; stroke: #ff7f0e"/>
     <use xlink:href="#m3d2ccb48fe" x="254.891843" y="234.94857" style="fill: #ff7f0e; stroke: #ff7f0e"/>
     <use xlink:href="#m3d2ccb48fe" x="268.242555" y="234.858751" style="fill: #ff7f0e; stroke: #ff7f0e"/>
     <use xlink:href="#m3d2ccb48fe" x="281.718045" y="234.809526" style="fill: #ff7f0e; stroke: #ff7f0e"/>
     <use xlink:href="#m3d2ccb48fe" x="295.320069" y="234.801244" style="fill: #ff7f0e; stroke: #ff7f0e"/>
     <use xlink:href="#m3d2ccb48fe" x="309.050421" y="234.838614" style="fill: #ff7f0e; stroke: #ff7f0e"/>
     <use xlink:href="#m3d2ccb48fe" x="322.910908" y="234.929939" style="fill: #ff7f0e; stroke: #ff7f0e"/>
     <use xlink:href="#m3d2ccb48fe" x="336.903402" y="235.086216" style="fill: #ff7f0e; stroke: #ff7f0e"/>
     <use xlink:href="#m3d2ccb48fe" x="351.029798" y="235.319591" style="fill: #ff7f0e; stroke: #ff7f0e"/>
     <use xlink:href="#m3d2ccb48fe" x="365.292018" y="235.638391" style="fill: #ff7f0e; stroke: #ff7f0e"/>
     <use xlink:href="#m3d2ccb48fe" x="379.692046" y="236.035611" style="fill: #ff7f0e; stroke: #ff7f0e"/>
     <use xlink:href="#m3d2ccb48fe" x="394.23187" y="236.734169" style="fill: #ff7f0e; stroke: #ff7f0e"/>
     <use xlink:href="#m3d2ccb48fe" x="408.913561" y="242.359862" style="fill: #ff7f0e; stroke: #ff7f0e"/>
     <use xlink:href="#m3d2ccb48fe" x="423.739171" y="251.382502" style="fill: #ff7f0e; stroke: #ff7f0e"/>
     <use xlink:href="#m3d2ccb48fe" x="438.710861" y="262.667217" style="fill: #ff7f0e; stroke: #ff7f0e"/>
    </g>
   </g>
   <g id="line2d_54">
    <path d="M 56.932889 213.692208 
L 68.501918 213.702465 
L 80.171548 213.719101 
L 91.943096 213.74551 
L 103.817902 213.788825 
L 115.797334 213.866443 
L 127.882777 214.033227 
L 140.075647 214.578677 
L 152.377382 218.208519 
L 164.789442 224.808179 
L 177.313325 232.027038 
L 189.950557 241.980559 
L 202.702654 248.888114 
L 215.571219 254.119946 
L 228.557855 259.281711 
L 241.664165 265.035425 
L 254.891843 272.040936 
L 268.242555 281.659252 
L 281.718045 306.945613 
L 295.320069 306.945613 
L 309.050421 306.945613 
L 322.910908 306.945613 
L 336.903402 306.945613 
L 351.029798 306.945613 
L 365.292018 306.945613 
L 379.692046 306.945613 
L 394.23187 306.945613 
L 408.913561 306.945613 
L 423.739171 306.945613 
L 438.710861 306.945613 
" clip-path="url(#pfcda59c233)" style="fill: none; stroke: #2ca02c; stroke-width: 1.5; stroke-linecap: square"/>
    <g clip-path="url(#pfcda59c233)">
     <use xlink:href="#m19195a1ffb" x="56.932889" y="213.692208" style="fill: #2ca02c; stroke: #2ca02c"/>
     <use xlink:href="#m19195a1ffb" x="68.501918" y="213.702465" style="fill: #2ca02c; stroke: #2ca02c"/>
     <use xlink:href="#m19195a1ffb" x="80.171548" y="213.719101" style="fill: #2ca02c; stroke: #2ca02c"/>
     <use xlink:href="#m19195a1ffb" x="91.943096" y="213.74551" style="fill: #2ca02c; stroke: #2ca02c"/>
     <use xlink:href="#m19195a1ffb" x="103.817902" y="213.788825" style="fill: #2ca02c; stroke: #2ca02c"/>
     <use xlink:href="#m19195a1ffb" x="115.797334" y="213.866443" style="fill: #2ca02c; stroke: #2ca02c"/>
     <use xlink:href="#m19195a1ffb" x="127.882777" y="214.033227" style="fill: #2ca02c; stroke: #2ca02c"/>
     <use xlink:href="#m19195a1ffb" x="140.075647" y="214.578677" style="fill: #2ca02c; stroke: #2ca02c"/>
     <use xlink:href="#m19195a1ffb" x="152.377382" y="218.208519" style="fill: #2ca02c; stroke: #2ca02c"/>
     <use xlink:href="#m19195a1ffb" x="164.789442" y="224.808179" style="fill: #2ca02c; stroke: #2ca02c"/>
     <use xlink:href="#m19195a1ffb" x="177.313325" y="232.027038" style="fill: #2ca02c; stroke: #2ca02c"/>
     <use xlink:href="#m19195a1ffb" x="189.950557" y="241.980559" style="fill: #2ca02c; stroke: #2ca02c"/>
     <use xlink:href="#m19195a1ffb" x="202.702654" y="248.888114" style="fill: #2ca02c; stroke: #2ca02c"/>
     <use xlink:href="#m19195a1ffb" x="215.571219" y="254.119946" style="fill: #2ca02c; stroke: #2ca02c"/>
     <use xlink:href="#m19195a1ffb" x="228.557855" y="259.281711" style="fill: #2ca02c; stroke: #2ca02c"/>
     <use xlink:href="#m19195a1ffb" x="241.664165" y="265.035425" style="fill: #2ca02c; stroke: #2ca02c"/>
     <use xlink:href="#m19195a1ffb" x="254.891843" y="272.040936" style="fill: #2ca02c; stroke: #2ca02c"/>
     <use xlink:href="#m19195a1ffb" x="268.242555" y="281.659252" style="fill: #2ca02c; stroke: #2ca02c"/>
     <use xlink:href="#m19195a1ffb" x="281.718045" y="306.945613" style="fill: #2ca02c; stroke: #2ca02c"/>
     <use xlink:href="#m19195a1ffb" x="295.320069" y="306.945613" style="fill: #2ca02c; stroke: #2ca02c"/>
     <use xlink:href="#m19195a1ffb" x="309.050421" y="306.945613" style="fill: #2ca02c; stroke: #2ca02c"/>
     <use xlink:href="#m19195a1ffb" x="322.910908" y="306.945613" style="fill: #2ca02c; stroke: #2ca02c"/>
     <use xlink:href="#m19195a1ffb" x="336.903402" y="306.945613" style="fill: #2ca02c; stroke: #2ca02c"/>
     <use xlink:href="#m19195a1ffb" x="351.029798" y="306.945613" style="fill: #2ca02c; stroke: #2ca02c"/>
     <use xlink:href="#m19195a1ffb" x="365.292018" y="306.945613" style="fill: #2ca02c; stroke: #2ca02c"/>
     <use xlink:href="#m19195a1ffb" x="379.692046" y="306.945613" style="fill: #2ca02c; stroke: #2ca02c"/>
     <use xlink:href="#m19195a1ffb" x="394.23187" y="306.945613" style="fill: #2ca02c; stroke: #2ca02c"/>
     <use xlink:href="#m19195a1ffb" x="408.913561" y="306.945613" style="fill: #2ca02c; stroke: #2ca02c"/>
     <use xlink:href="#m19195a1ffb" x="423.739171" y="306.945613" style="fill: #2ca02c; stroke: #2ca02c"/>
     <use xlink:href="#m19195a1ffb" x="438.710861" y="306.945613" style="fill: #2ca02c; stroke: #2ca02c"/>
    </g>
   </g>
   <g id="line2d_55">
    <path d="M 56.932889 189.456418 
L 68.501918 190.491423 
L 80.171548 192.021867 
L 91.943096 194.118831 
L 103.817902 196.85506 
L 115.797334 200.302665 
L 127.882777 204.513515 
L 140.075647 209.372994 
L 152.377382 212.415684 
L 164.789442 213.034878 
L 177.313325 213.232822 
L 189.950557 213.323065 
L 202.702654 213.37381 
L 215.571219 213.406235 
L 228.557855 213.428827 
L 241.664165 213.445672 
L 254.891843 213.458961 
L 268.242555 213.470019 
L 281.718045 213.479694 
L 295.320069 213.488615 
L 309.050421 213.497285 
L 322.910908 213.506118 
L 336.903402 213.515232 
L 351.029798 213.523275 
L 365.292018 213.52945 
L 379.692046 213.512977 
L 394.23187 213.486298 
L 408.913561 213.490641 
L 423.739171 213.502546 
L 438.710861 213.515676 
" clip-path="url(#pfcda59c233)" style="fill: none; stroke: #d62728; stroke-width: 1.5; stroke-linecap: square"/>
    <g clip-path="url(#pfcda59c233)">
     <use xlink:href="#md9da8f7cda" x="56.932889" y="189.456418" style="fill: #d62728; stroke: #d62728"/>
     <use xlink:href="#md9da8f7cda" x="68.501918" y="190.491423" style="fill: #d62728; stroke: #d62728"/>
     <use xlink:href="#md9da8f7cda" x="80.171548" y="192.021867" style="fill: #d62728; stroke: #d62728"/>
     <use xlink:href="#md9da8f7cda" x="91.943096" y="194.118831" style="fill: #d62728; stroke: #d62728"/>
     <use xlink:href="#md9da8f7cda" x="103.817902" y="196.85506" style="fill: #d62728; stroke: #d62728"/>
     <use xlink:href="#md9da8f7cda" x="115.797334" y="200.302665" style="fill: #d62728; stroke: #d62728"/>
     <use xlink:href="#md9da8f7cda" x="127.882777" y="204.513515" style="fill: #d62728; stroke: #d62728"/>
     <use xlink:href="#md9da8f7cda" x="140.075647" y="209.372994" style="fill: #d62728; stroke: #d62728"/>
     <use xlink:href="#md9da8f7cda" x="152.377382" y="212.415684" style="fill: #d62728; stroke: #d62728"/>
     <use xlink:href="#md9da8f7cda" x="164.789442" y="213.034878" style="fill: #d62728; stroke: #d62728"/>
     <use xlink:href="#md9da8f7cda" x="177.313325" y="213.232822" style="fill: #d62728; stroke: #d62728"/>
     <use xlink:href="#md9da8f7cda" x="189.950557" y="213.323065" style="fill: #d62728; stroke: #d62728"/>
     <use xlink:href="#md9da8f7cda" x="202.702654" y="213.37381" style="fill: #d62728; stroke: #d62728"/>
     <use xlink:href="#md9da8f7cda" x="215.571219" y="213.406235" style="fill: #d62728; stroke: #d62728"/>
     <use xlink:href="#md9da8f7cda" x="228.557855" y="213.428827" style="fill: #d62728; stroke: #d62728"/>
     <use xlink:href="#md9da8f7cda" x="241.664165" y="213.445672" style="fill: #d62728; stroke: #d62728"/>
     <use xlink:href="#md9da8f7cda" x="254.891843" y="213.458961" style="fill: #d62728; stroke: #d62728"/>
     <use xlink:href="#md9da8f7cda" x="268.242555" y="213.470019" style="fill: #d62728; stroke: #d62728"/>
     <use xlink:href="#md9da8f7cda" x="281.718045" y="213.479694" style="fill: #d62728; stroke: #d62728"/>
     <use xlink:href="#md9da8f7cda" x="295.320069" y="213.488615" style="fill: #d62728; stroke: #d62728"/>
     <use xlink:href="#md9da8f7cda" x="309.050421" y="213.497285" style="fill: #d62728; stroke: #d62728"/>
     <use xlink:href="#md9da8f7cda" x="322.910908" y="213.506118" style="fill: #d62728; stroke: #d62728"/>
     <use xlink:href="#md9da8f7cda" x="336.903402" y="213.515232" style="fill: #d62728; stroke: #d62728"/>
     <use xlink:href="#md9da8f7cda" x="351.029798" y="213.523275" style="fill: #d62728; stroke: #d62728"/>
     <use xlink:href="#md9da8f7cda" x="365.292018" y="213.52945" style="fill: #d62728; stroke: #d62728"/>
     <use xlink:href="#md9da8f7cda" x="379.692046" y="213.512977" style="fill: #d62728; stroke: #d62728"/>
     <use xlink:href="#md9da8f7cda" x="394.23187" y="213.486298" style="fill: #d62728; stroke: #d62728"/>
     <use xlink:href="#md9da8f7cda" x="408.913561" y="213.490641" style="fill: #d62728; stroke: #d62728"/>
     <use xlink:href="#md9da8f7cda" x="423.739171" y="213.502546" style="fill: #d62728; stroke: #d62728"/>
     <use xlink:href="#md9da8f7cda" x="438.710861" y="213.515676" style="fill: #d62728; stroke: #d62728"/>
    </g>
   </g>
   <g id="patch_9">
    <path d="M 37.84399 312.820072 
L 37.84399 183.581959 
" style="fill: none; stroke: #000000; stroke-width: 0.8; stroke-linejoin: miter; stroke-linecap: square"/>
   </g>
   <g id="patch_10">
    <path d="M 457.79976 312.820072 
L 457.79976 183.581959 
" style="fill: none; stroke: #000000; stroke-width: 0.8; stroke-linejoin: miter; stroke-linecap: square"/>
   </g>
   <g id="patch_11">
    <path d="M 37.84399 312.820072 
L 457.79976 312.820072 
" style="fill: none; stroke: #000000; stroke-width: 0.8; stroke-linejoin: miter; stroke-linecap: square"/>
   </g>
   <g id="patch_12">
    <path d="M 37.84399 183.581959 
L 457.79976 183.581959 
" style="fill: none; stroke: #000000; stroke-width: 0.8; stroke-linejoin: miter; stroke-linecap: square"/>
   </g>
   <g id="text_30">
    <!-- V-f Plot -->
    <g transform="translate(228.870312 177.581959) scale(0.12 -0.12)">
     <defs>
      <path id="TimesNewRomanPSMT-66" d="M 1319 2638 
L 1319 756 
Q 1319 356 1406 250 
Q 1522 113 1716 113 
L 1975 113 
L 1975 0 
L 266 0 
L 266 113 
L 394 113 
Q 519 113 622 175 
Q 725 238 764 344 
Q 803 450 803 756 
L 803 2638 
L 247 2638 
L 247 2863 
L 803 2863 
L 803 3050 
Q 803 3478 940 3775 
Q 1078 4072 1361 4255 
Q 1644 4438 1997 4438 
Q 2325 4438 2600 4225 
Q 2781 4084 2781 3909 
Q 2781 3816 2700 3733 
Q 2619 3650 2525 3650 
Q 2453 3650 2373 3701 
Q 2294 3753 2178 3923 
Q 2063 4094 1966 4153 
Q 1869 4213 1750 4213 
Q 1606 4213 1506 4136 
Q 1406 4059 1362 3898 
Q 1319 3738 1319 3069 
L 1319 2863 
L 2056 2863 
L 2056 2638 
L 1319 2638 
z
" transform="scale(0.015625)"/>
     </defs>
     <use xlink:href="#TimesNewRomanPSMT-56"/>
     <use xlink:href="#TimesNewRomanPSMT-2d" x="63.091797"/>
     <use xlink:href="#TimesNewRomanPSMT-66" x="96.392578"/>
     <use xlink:href="#TimesNewRomanPSMT-20" x="129.693359"/>
     <use xlink:href="#TimesNewRomanPSMT-50" x="154.693359"/>
     <use xlink:href="#TimesNewRomanPSMT-6c" x="210.308594"/>
     <use xlink:href="#TimesNewRomanPSMT-6f" x="238.091797"/>
     <use xlink:href="#TimesNewRomanPSMT-74" x="288.091797"/>
    </g>
   </g>
   <g id="legend_2">
    <g id="patch_13">
     <path d="M 382.010697 279.057266 
L 450.79976 279.057266 
Q 452.79976 279.057266 452.79976 277.057266 
L 452.79976 219.344766 
Q 452.79976 217.344766 450.79976 217.344766 
L 382.010697 217.344766 
Q 380.010697 217.344766 380.010697 219.344766 
L 380.010697 277.057266 
Q 380.010697 279.057266 382.010697 279.057266 
z
" style="fill: #ffffff; opacity: 0.8; stroke: #cccccc; stroke-linejoin: miter"/>
    </g>
    <g id="line2d_56">
     <path d="M 384.010697 225.443203 
L 394.010697 225.443203 
L 404.010697 225.443203 
" style="fill: none; stroke: #1f77b4; stroke-width: 1.5; stroke-linecap: square"/>
     <g>
      <use xlink:href="#m74902be4a7" x="394.010697" y="225.443203" style="fill: #1f77b4; stroke: #1f77b4"/>
     </g>
    </g>
    <g id="text_31">
     <!-- Mode 1 -->
     <g transform="translate(412.010697 228.943203) scale(0.1 -0.1)">
      <use xlink:href="#DejaVuSans-4d"/>
      <use xlink:href="#DejaVuSans-6f" x="86.279297"/>
      <use xlink:href="#DejaVuSans-64" x="147.460938"/>
      <use xlink:href="#DejaVuSans-65" x="210.9375"/>
      <use xlink:href="#DejaVuSans-20" x="272.460938"/>
      <use xlink:href="#DejaVuSans-31" x="304.248047"/>
     </g>
    </g>
    <g id="line2d_57">
     <path d="M 384.010697 240.121328 
L 394.010697 240.121328 
L 404.010697 240.121328 
" style="fill: none; stroke: #ff7f0e; stroke-width: 1.5; stroke-linecap: square"/>
     <g>
      <use xlink:href="#m3d2ccb48fe" x="394.010697" y="240.121328" style="fill: #ff7f0e; stroke: #ff7f0e"/>
     </g>
    </g>
    <g id="text_32">
     <!-- Mode 2 -->
     <g transform="translate(412.010697 243.621328) scale(0.1 -0.1)">
      <use xlink:href="#DejaVuSans-4d"/>
      <use xlink:href="#DejaVuSans-6f" x="86.279297"/>
      <use xlink:href="#DejaVuSans-64" x="147.460938"/>
      <use xlink:href="#DejaVuSans-65" x="210.9375"/>
      <use xlink:href="#DejaVuSans-20" x="272.460938"/>
      <use xlink:href="#DejaVuSans-32" x="304.248047"/>
     </g>
    </g>
    <g id="line2d_58">
     <path d="M 384.010697 254.799453 
L 394.010697 254.799453 
L 404.010697 254.799453 
" style="fill: none; stroke: #2ca02c; stroke-width: 1.5; stroke-linecap: square"/>
     <g>
      <use xlink:href="#m19195a1ffb" x="394.010697" y="254.799453" style="fill: #2ca02c; stroke: #2ca02c"/>
     </g>
    </g>
    <g id="text_33">
     <!-- Mode 3 -->
     <g transform="translate(412.010697 258.299453) scale(0.1 -0.1)">
      <use xlink:href="#DejaVuSans-4d"/>
      <use xlink:href="#DejaVuSans-6f" x="86.279297"/>
      <use xlink:href="#DejaVuSans-64" x="147.460938"/>
      <use xlink:href="#DejaVuSans-65" x="210.9375"/>
      <use xlink:href="#DejaVuSans-20" x="272.460938"/>
      <use xlink:href="#DejaVuSans-33" x="304.248047"/>
     </g>
    </g>
    <g id="line2d_59">
     <path d="M 384.010697 269.477578 
L 394.010697 269.477578 
L 404.010697 269.477578 
" style="fill: none; stroke: #d62728; stroke-width: 1.5; stroke-linecap: square"/>
     <g>
      <use xlink:href="#md9da8f7cda" x="394.010697" y="269.477578" style="fill: #d62728; stroke: #d62728"/>
     </g>
    </g>
    <g id="text_34">
     <!-- Mode 4 -->
     <g transform="translate(412.010697 272.977578) scale(0.1 -0.1)">
      <use xlink:href="#DejaVuSans-4d"/>
      <use xlink:href="#DejaVuSans-6f" x="86.279297"/>
      <use xlink:href="#DejaVuSans-64" x="147.460938"/>
      <use xlink:href="#DejaVuSans-65" x="210.9375"/>
      <use xlink:href="#DejaVuSans-20" x="272.460938"/>
      <use xlink:href="#DejaVuSans-34" x="304.248047"/>
     </g>
    </g>
   </g>
  </g>
 </g>
 <defs>
  <clipPath id="p58baf2110d">
   <rect x="37.84399" y="17.33274" width="419.95577" height="129.238114"/>
  </clipPath>
  <clipPath id="pfcda59c233">
   <rect x="37.84399" y="183.581959" width="419.95577" height="129.238114"/>
  </clipPath>
 </defs>
</svg>
