<svg width="1280" height="720" xmlns="http://www.w3.org/2000/svg" xmlns:xlink="http://www.w3.org/1999/xlink" overflow="hidden"><g><rect x="0" y="0" width="1280" height="720" fill="#FFFFFF"/><rect x="128" y="233" width="389" height="389" stroke="#000000" stroke-width="6" stroke-miterlimit="8" fill="none"/><path d="M323.5 426 597.203 426 597.203 429 323.5 429ZM595.703 423 604.703 427.5 595.703 432Z"/><path d="M323 427.703 323 154 326 154 326 427.703ZM320 155.5 324.5 146.5 329 155.5Z"/><path d="M505 232.5C505 225.596 510.596 220 517.5 220 524.404 220 530 225.596 530 232.5 530 239.404 524.404 245 517.5 245 510.596 245 505 239.404 505 232.5Z" stroke="#000000" stroke-width="2" stroke-miterlimit="8" fill-rule="evenodd"/><path d="M117 232.5C117 225.596 122.82 220 130 220 137.18 220 143 225.596 143 232.5 143 239.404 137.18 245 130 245 122.82 245 117 239.404 117 232.5Z" stroke="#000000" stroke-width="2" stroke-miterlimit="8" fill-rule="evenodd"/><path d="M505 621.5C505 614.596 510.596 609 517.5 609 524.404 609 530 614.596 530 621.5 530 628.404 524.404 634 517.5 634 510.596 634 505 628.404 505 621.5Z" stroke="#000000" stroke-width="2" stroke-miterlimit="8" fill-rule="evenodd"/><path d="M117 621.5C117 614.596 122.82 609 130 609 137.18 609 143 614.596 143 621.5 143 628.404 137.18 634 130 634 122.82 634 117 628.404 117 621.5Z" stroke="#000000" stroke-width="2" stroke-miterlimit="8" fill-rule="evenodd"/><path d="M210.902 330.41 215.587 326.481 220 331.742 224.413 326.481 229.098 330.41 223.991 336.5 229.098 342.59 224.413 346.519 220 341.258 215.587 346.519 210.902 342.59 216.009 336.5Z" stroke="#000000" stroke-width="2" stroke-miterlimit="8" fill-rule="evenodd"/><path d="M409.902 330.41 414.587 326.481 419 331.742 423.413 326.481 428.098 330.41 422.991 336.5 428.098 342.59 423.413 346.519 419 341.258 414.587 346.519 409.902 342.59 415.009 336.5Z" stroke="#000000" stroke-width="2" stroke-miterlimit="8" fill-rule="evenodd"/><path d="M206.902 511.41 211.587 507.481 216 512.742 220.413 507.481 225.098 511.41 219.991 517.5 225.098 523.59 220.413 527.519 216 522.258 211.587 527.519 206.902 523.59 212.009 517.5Z" stroke="#000000" stroke-width="2" stroke-miterlimit="8" fill-rule="evenodd"/><path d="M405.09 511.531 409.879 507.36 414.5 512.666 419.121 507.36 423.91 511.531 418.711 517.5 423.91 523.469 419.121 527.64 414.5 522.334 409.879 527.64 405.09 523.469 410.289 517.5Z" stroke="#000000" stroke-width="2" stroke-miterlimit="8" fill-rule="evenodd"/><path d="M514 94.5C514 87.5964 519.596 82 526.5 82 533.404 82 539 87.5964 539 94.5 539 101.404 533.404 107 526.5 107 519.596 107 514 101.404 514 94.5Z" stroke="#000000" stroke-width="2" stroke-miterlimit="8" fill-rule="evenodd"/><path d="M517.902 143.41 522.587 139.481 527 144.742 531.413 139.481 536.098 143.41 530.991 149.5 536.098 155.59 531.413 159.519 527 154.258 522.587 159.519 517.902 155.59 523.009 149.5Z" stroke="#000000" stroke-width="2" stroke-miterlimit="8" fill-rule="evenodd"/><text font-family="Cambria Math,Cambria Math_MSFontService,sans-serif" font-weight="400" font-size="27" transform="translate(597.033 460)">ğœ‰</text><text font-family="Cambria Math,Cambria Math_MSFontService,sans-serif" font-weight="400" font-size="27" transform="translate(339.801 156)">ğœ‚</text><text font-family="Aptos,Aptos_MSFontService,sans-serif" font-weight="400" font-size="24" transform="translate(582.768 102)">Nodes</text><text font-family="Aptos,Aptos_MSFontService,sans-serif" font-weight="400" font-size="24" transform="translate(551.76 153)">Integration Points</text><rect x="707" y="233" width="389" height="389" stroke="#000000" stroke-width="6" stroke-miterlimit="8" fill="none"/><path d="M902.5 426 1176.2 426 1176.2 429 902.5 429ZM1174.7 423 1183.7 427.5 1174.7 432Z"/><path d="M902 427.703 902 154 905 154 905 427.703ZM899 155.5 903.5 146.5 908 155.5Z"/><path d="M1084 232.5C1084 225.596 1089.6 220 1096.5 220 1103.4 220 1109 225.596 1109 232.5 1109 239.404 1103.4 245 1096.5 245 1089.6 245 1084 239.404 1084 232.5Z" stroke="#000000" stroke-width="2" stroke-miterlimit="8" fill-rule="evenodd"/><path d="M696 232.5C696 225.596 701.82 220 709 220 716.18 220 722 225.596 722 232.5 722 239.404 716.18 245 709 245 701.82 245 696 239.404 696 232.5Z" stroke="#000000" stroke-width="2" stroke-miterlimit="8" fill-rule="evenodd"/><path d="M1084 621.5C1084 614.596 1089.6 609 1096.5 609 1103.4 609 1109 614.596 1109 621.5 1109 628.404 1103.4 634 1096.5 634 1089.6 634 1084 628.404 1084 621.5Z" stroke="#000000" stroke-width="2" stroke-miterlimit="8" fill-rule="evenodd"/><path d="M696 621.5C696 614.596 701.82 609 709 609 716.18 609 722 614.596 722 621.5 722 628.404 716.18 634 709 634 701.82 634 696 628.404 696 621.5Z" stroke="#000000" stroke-width="2" stroke-miterlimit="8" fill-rule="evenodd"/><path d="M893.934 421.208 898.555 417.203 903 422.331 907.445 417.203 912.066 421.208 907.046 427 912.066 432.792 907.445 436.797 903 431.669 898.555 436.797 893.934 432.792 898.954 427Z" stroke="#000000" stroke-width="2" stroke-miterlimit="8" fill-rule="evenodd"/><text font-family="Cambria Math,Cambria Math_MSFontService,sans-serif" font-weight="400" font-size="27" transform="translate(1176.15 460)">ğœ‰</text><text font-family="Cambria Math,Cambria Math_MSFontService,sans-serif" font-weight="400" font-size="27" transform="translate(925.287 161)">ğœ‚</text></g></svg>