<?xml version="1.0" encoding="UTF-8"?> <svg xmlns="http://www.w3.org/2000/svg" xmlns:xlink="http://www.w3.org/1999/xlink" width="942" height="521" viewBox="0 0 942 521"><defs><clipPath id="clip-path"><rect id="Rectangle_13" data-name="Rectangle 13" width="942" height="521" fill="#fff"></rect></clipPath></defs><g id="Mask_Group_8" data-name="Mask Group 8" clip-path="url(#clip-path)"><g id="Group_137" data-name="Group 137" transform="translate(-21 -8)"><circle id="Ellipse_36" data-name="Ellipse 36" cx="34.5" cy="34.5" r="34.5" transform="translate(843 174)" fill="#051c2c"></circle><circle id="Ellipse_35" data-name="Ellipse 35" cx="34.5" cy="34.5" r="34.5" transform="translate(843 289)" fill="#051c2c"></circle><g id="Group_85" data-name="Group 85" transform="translate(123.963 92)"><path id="Path_19" data-name="Path 19" d="M4514.037,58.983H4679.79" transform="translate(-4488 -0.483)" fill="none" stroke="#051c2c" stroke-width="1"></path><path id="Polygon_16" data-name="Polygon 16" d="M5.5,0,11,9H0Z" transform="translate(197.037 53) rotate(90)" fill="#051c2c"></path></g><g id="Group_103" data-name="Group 103" transform="matrix(0.951, 0.309, -0.309, 0.951, 636.5, 78.488)"><path id="Path_19-2" data-name="Path 19" d="M4514.037,58.983h200.813" transform="translate(-4488 -0.483)" fill="none" stroke="#051c2c" stroke-width="1"></path><path id="Polygon_16-2" data-name="Polygon 16" d="M5.5,0,11,9H0Z" transform="translate(232.097 53) rotate(90)" fill="#051c2c"></path></g><g id="Group_105" data-name="Group 105" transform="matrix(0.966, -0.259, 0.259, 0.966, 598.362, 216.876)"><path id="Path_19-3" data-name="Path 19" d="M4514.037,58.983h200.813" transform="translate(-4488 -0.483)" fill="none" stroke="#051c2c" stroke-width="1"></path><path id="Polygon_16-3" data-name="Polygon 16" d="M5.5,0,11,9H0Z" transform="translate(232.097 53) rotate(90)" fill="#051c2c"></path></g><g id="Group_108" data-name="Group 108" transform="translate(606.641 321.994) rotate(-10)"><path id="Path_19-4" data-name="Path 19" d="M4514.037,58.983h200.813" transform="translate(-4488 -0.483)" fill="none" stroke="#051c2c" stroke-width="1"></path><path id="Polygon_16-4" data-name="Polygon 16" d="M5.5,0,11,9H0Z" transform="translate(232.097 53) rotate(90)" fill="#051c2c"></path></g><g id="Group_107" data-name="Group 107" transform="matrix(0.951, 0.309, -0.309, 0.951, 638.489, 201.548)"><path id="Path_19-5" data-name="Path 19" d="M4514.037,58.983h203.546" transform="translate(-4488 -0.483)" fill="none" stroke="#051c2c" stroke-width="1"></path><path id="Polygon_16-5" data-name="Polygon 16" d="M5.5,0,11,9H0Z" transform="translate(234.829 53) rotate(90)" fill="#051c2c"></path></g><g id="Group_106" data-name="Group 106" transform="matrix(0.799, -0.602, 0.602, 0.799, 585.537, 340.628)"><path id="Path_19-6" data-name="Path 19" d="M4514.037,58.983h240.187" transform="translate(-4488 -0.483)" fill="none" stroke="#051c2c" stroke-width="1"></path><path id="Polygon_16-6" data-name="Polygon 16" d="M5.5,0,11,9H0Z" transform="translate(271.471 53) rotate(90)" fill="#051c2c"></path></g><g id="Group_104" data-name="Group 104" transform="matrix(0.755, 0.656, -0.656, 0.755, 661.144, 82.251)"><path id="Path_19-7" data-name="Path 19" d="M4514.037,58.983h263.424" transform="translate(-4488 -0.483)" fill="none" stroke="#051c2c" stroke-width="1"></path><path id="Polygon_16-7" data-name="Polygon 16" d="M5.5,0,11,9H0Z" transform="translate(294.707 53) rotate(90)" fill="#051c2c"></path></g><g id="Group_94" data-name="Group 94" transform="translate(369.963 92)"><path id="Path_19-8" data-name="Path 19" d="M4514.037,58.983H4679.79" transform="translate(-4488 -0.483)" fill="none" stroke="#051c2c" stroke-width="1"></path><path id="Polygon_16-8" data-name="Polygon 16" d="M5.5,0,11,9H0Z" transform="translate(197.037 53) rotate(90)" fill="#051c2c"></path></g><g id="Group_88" data-name="Group 88" transform="translate(155.457 86.481) rotate(29)"><path id="Path_19-9" data-name="Path 19" d="M4514.037,58.983h202.656" transform="translate(-4488 -0.483)" fill="none" stroke="#051c2c" stroke-width="1"></path><path id="Polygon_16-9" data-name="Polygon 16" d="M5.5,0,11,9H0Z" transform="translate(234.106 53) rotate(90)" fill="#051c2c"></path></g><g id="Group_95" data-name="Group 95" transform="translate(401.457 86.481) rotate(29)"><path id="Path_19-10" data-name="Path 19" d="M4514.037,58.983h202.656" transform="translate(-4488 -0.483)" fill="none" stroke="#051c2c" stroke-width="1"></path><path id="Polygon_16-10" data-name="Polygon 16" d="M5.5,0,11,9H0Z" transform="translate(234.106 53) rotate(90)" fill="#051c2c"></path></g><g id="Group_90" data-name="Group 90" transform="matrix(0.839, -0.545, 0.545, 0.839, 95.16, 232.462)"><path id="Path_19-11" data-name="Path 19" d="M4514.037,58.983h201.2" transform="translate(-4488 -0.483)" fill="none" stroke="#051c2c" stroke-width="1"></path><path id="Polygon_16-11" data-name="Polygon 16" d="M5.5,0,11,9H0Z" transform="translate(232.655 53) rotate(90)" fill="#051c2c"></path></g><g id="Group_97" data-name="Group 97" transform="matrix(0.839, -0.545, 0.545, 0.839, 341.16, 232.462)"><path id="Path_19-12" data-name="Path 19" d="M4514.037,58.983h201.2" transform="translate(-4488 -0.483)" fill="none" stroke="#051c2c" stroke-width="1"></path><path id="Polygon_16-12" data-name="Polygon 16" d="M5.5,0,11,9H0Z" transform="translate(232.655 53) rotate(90)" fill="#051c2c"></path></g><g id="Group_92" data-name="Group 92" transform="matrix(0.629, -0.777, 0.777, 0.629, 85.608, 364.125)"><path id="Path_19-13" data-name="Path 19" d="M4514.038,58.983h277.094" transform="translate(-4488.001 -0.483)" fill="none" stroke="#051c2c" stroke-width="1"></path><path id="Polygon_16-13" data-name="Polygon 16" d="M5.5,0,11,9H0Z" transform="translate(308.545 53) rotate(90)" fill="#051c2c"></path></g><g id="Group_100" data-name="Group 100" transform="matrix(0.629, -0.777, 0.777, 0.629, 331.608, 364.125)"><path id="Path_19-14" data-name="Path 19" d="M4514.038,58.983h277.094" transform="translate(-4488.001 -0.483)" fill="none" stroke="#051c2c" stroke-width="1"></path><path id="Polygon_16-14" data-name="Polygon 16" d="M5.5,0,11,9H0Z" transform="translate(308.545 53) rotate(90)" fill="#051c2c"></path></g><g id="Group_93" data-name="Group 93" transform="translate(81.016 351.894) rotate(-30)"><path id="Path_19-15" data-name="Path 19" d="M4514.038,58.983h222.284" transform="translate(-4488.001 -0.483)" fill="none" stroke="#051c2c" stroke-width="1"></path><path id="Polygon_16-15" data-name="Polygon 16" d="M5.5,0,11,9H0Z" transform="translate(253.735 53) rotate(90)" fill="#051c2c"></path></g><g id="Group_101" data-name="Group 101" transform="translate(327.016 351.894) rotate(-30)"><path id="Path_19-16" data-name="Path 19" d="M4514.038,58.983h222.284" transform="translate(-4488.001 -0.483)" fill="none" stroke="#051c2c" stroke-width="1"></path><path id="Polygon_16-16" data-name="Polygon 16" d="M5.5,0,11,9H0Z" transform="translate(253.735 53) rotate(90)" fill="#051c2c"></path></g><g id="Group_91" data-name="Group 91" transform="matrix(0.839, 0.545, -0.545, 0.839, 150.228, 258.944)"><path id="Path_19-17" data-name="Path 19" d="M0,0H196.09" transform="translate(1.939 5.5)" fill="none" stroke="#051c2c" stroke-width="1"></path><path id="Polygon_16-17" data-name="Polygon 16" d="M5.5,0,11,9H0Z" transform="translate(203.444 0) rotate(90)" fill="#051c2c"></path></g><g id="Group_99" data-name="Group 99" transform="matrix(0.839, 0.545, -0.545, 0.839, 399.193, 258.901)"><path id="Path_19-18" data-name="Path 19" d="M0,0H196.09" transform="translate(1.939 5.5)" fill="none" stroke="#051c2c" stroke-width="1"></path><path id="Polygon_16-18" data-name="Polygon 16" d="M5.5,0,11,9H0Z" transform="translate(203.444 0) rotate(90)" fill="#051c2c"></path></g><g id="Group_89" data-name="Group 89" transform="translate(178.465 93.1) rotate(51)"><path id="Path_19-19" data-name="Path 19" d="M4514.037,58.983h275.1" transform="translate(-4488 -0.483)" fill="none" stroke="#051c2c" stroke-width="1"></path><path id="Polygon_16-19" data-name="Polygon 16" d="M5.5,0,11,9H0Z" transform="translate(306.549 53) rotate(90)" fill="#051c2c"></path></g><g id="Group_96" data-name="Group 96" transform="translate(424.465 93.1) rotate(51)"><path id="Path_19-20" data-name="Path 19" d="M4514.037,58.983h275.1" transform="translate(-4488 -0.483)" fill="none" stroke="#051c2c" stroke-width="1"></path><path id="Polygon_16-20" data-name="Polygon 16" d="M5.5,0,11,9H0Z" transform="translate(306.549 53) rotate(90)" fill="#051c2c"></path></g><g id="Group_86" data-name="Group 86" transform="translate(123.963 207)"><path id="Path_19-21" data-name="Path 19" d="M4514.037,58.983h173.586" transform="translate(-4488 -0.483)" fill="none" stroke="#051c2c" stroke-width="1"></path><path id="Polygon_16-21" data-name="Polygon 16" d="M5.5,0,11,9H0Z" transform="translate(205.037 53) rotate(90)" fill="#051c2c"></path></g><g id="Group_98" data-name="Group 98" transform="translate(369.963 207)"><path id="Path_19-22" data-name="Path 19" d="M4514.037,58.983h173.586" transform="translate(-4488 -0.483)" fill="none" stroke="#051c2c" stroke-width="1"></path><path id="Polygon_16-22" data-name="Polygon 16" d="M5.5,0,11,9H0Z" transform="translate(205.037 53) rotate(90)" fill="#051c2c"></path></g><g id="Group_87" data-name="Group 87" transform="translate(123.963 322)"><path id="Path_19-23" data-name="Path 19" d="M4514.037,58.983h165.976" transform="translate(-4488 -0.483)" fill="none" stroke="#051c2c" stroke-width="1"></path><path id="Polygon_16-23" data-name="Polygon 16" d="M5.5,0,11,9H0Z" transform="translate(197.037 53) rotate(90)" fill="#051c2c"></path></g><g id="Group_102" data-name="Group 102" transform="translate(369.963 322)"><path id="Path_19-24" data-name="Path 19" d="M4514.037,58.983h165.976" transform="translate(-4488 -0.483)" fill="none" stroke="#051c2c" stroke-width="1"></path><path id="Polygon_16-24" data-name="Polygon 16" d="M5.5,0,11,9H0Z" transform="translate(197.037 53) rotate(90)" fill="#051c2c"></path></g><circle id="Ellipse_30" data-name="Ellipse 30" cx="34.5" cy="34.5" r="34.5" transform="translate(326 114)" fill="#94bffd"></circle><circle id="Ellipse_29" data-name="Ellipse 29" cx="34.5" cy="34.5" r="34.5" transform="translate(329 231)" fill="#94bffd"></circle><circle id="Ellipse_28" data-name="Ellipse 28" cx="34.5" cy="34.5" r="34.5" transform="translate(329 346)" fill="#94bffd"></circle><circle id="Ellipse_33" data-name="Ellipse 33" cx="34.5" cy="34.5" r="34.5" transform="translate(572 111)" fill="#94bffd"></circle><circle id="Ellipse_32" data-name="Ellipse 32" cx="34.5" cy="34.5" r="34.5" transform="translate(577 231)" fill="#94bffd"></circle><circle id="Ellipse_31" data-name="Ellipse 31" cx="34.5" cy="34.5" r="34.5" transform="translate(577 346)" fill="#94bffd"></circle><circle id="Ellipse_25" data-name="Ellipse 25" cx="34.5" cy="34.5" r="34.5" transform="translate(81 116)" fill="#e6f0ff"></circle><circle id="Ellipse_26" data-name="Ellipse 26" cx="34.5" cy="34.5" r="34.5" transform="translate(81 231)" fill="#e6f0ff"></circle><circle id="Ellipse_27" data-name="Ellipse 27" cx="34.5" cy="34.5" r="34.5" transform="translate(81 346)" fill="#e6f0ff"></circle><text id="X1" transform="translate(59 152)" fill="#051c2c" font-size="22" font-family="OpenSans-Semibold, Open Sans" font-weight="600"><tspan x="-10" y="0">X</tspan><tspan y="0" font-size="12.833" baseline-shift="-7.332599639892578">1</tspan></text><text id="_0.2" data-name="0.2" transform="translate(226 129)" fill="#051c2c" font-size="22" font-family="OpenSans-Semibold, Open Sans" font-weight="600"><tspan x="-15" y="0">0.2</tspan></text><text id="_0.2-2" data-name="0.2" transform="translate(403 213)" fill="#051c2c" font-size="22" font-family="OpenSans-Semibold, Open Sans" font-weight="600"><tspan x="-15" y="0">0.2</tspan></text><text id="_0.7" data-name="0.7" transform="translate(443 285)" fill="#051c2c" font-size="22" font-family="OpenSans-Semibold, Open Sans" font-weight="600"><tspan x="-15" y="0">0.7</tspan></text><text id="_0.61" data-name="0.61" transform="translate(411 244)" fill="#051c2c" font-size="22" font-family="OpenSans-Semibold, Open Sans" font-weight="600"><tspan x="-21" y="0">0.61</tspan></text><text id="_0.25" data-name="0.25" transform="translate(403 311)" fill="#051c2c" font-size="22" font-family="OpenSans-Semibold, Open Sans" font-weight="600"><tspan x="-21" y="0">0.25</tspan></text><text id="_0.3" data-name="0.3" transform="translate(409 342)" fill="#051c2c" font-size="22" font-family="OpenSans-Semibold, Open Sans" font-weight="600"><tspan x="-15" y="0">0.3</tspan></text><text id="_0.1" data-name="0.1" transform="translate(427 405)" fill="#051c2c" font-size="22" font-family="OpenSans-Semibold, Open Sans" font-weight="600"><tspan x="-15" y="0">0.1</tspan></text><text id="_0.1-2" data-name="0.1" transform="translate(455 370)" fill="#051c2c" font-size="22" font-family="OpenSans-Semibold, Open Sans" font-weight="600"><tspan x="-15" y="0">0.1</tspan></text><text id="_0.4" data-name="0.4" transform="translate(458 130)" fill="#051c2c" font-size="22" font-family="OpenSans-Semibold, Open Sans" font-weight="600"><tspan x="-15" y="0">0.4</tspan></text><text id="_0.8" data-name="0.8" transform="translate(361 158)" fill="#fff" font-size="22" font-family="OpenSans-Semibold, Open Sans" font-weight="600"><tspan x="-15" y="0">0.8</tspan></text><text id="_0.1-3" data-name="0.1" transform="translate(607 155)" fill="#fff" font-size="22" font-family="OpenSans-Semibold, Open Sans" font-weight="600"><tspan x="-15" y="0">0.1</tspan></text><text id="_0.9" data-name="0.9" transform="translate(612 275)" fill="#fff" font-size="22" font-family="OpenSans-Semibold, Open Sans" font-weight="600"><tspan x="-15" y="0">0.9</tspan></text><text id="_0.99" data-name="0.99" transform="translate(612 390)" fill="#fff" font-size="22" font-family="OpenSans-Semibold, Open Sans" font-weight="600"><tspan x="-21" y="0">0.99</tspan></text><text id="_0.12" data-name="0.12" transform="translate(364 275)" fill="#fff" font-size="22" font-family="OpenSans-Semibold, Open Sans" font-weight="600"><tspan x="-21" y="0">0.12</tspan></text><text id="_0.3-2" data-name="0.3" transform="translate(364 390)" fill="#fff" font-size="22" font-family="OpenSans-Semibold, Open Sans" font-weight="600"><tspan x="-15" y="0">0.3</tspan></text><text id="_0.2-3" data-name="0.2" transform="translate(672 144)" fill="#051c2c" font-size="22" font-family="OpenSans-Semibold, Open Sans" font-weight="600"><tspan x="-15" y="0">0.2</tspan></text><text id="_0.9-2" data-name="0.9" transform="translate(653 186)" fill="#051c2c" font-size="22" font-family="OpenSans-Semibold, Open Sans" font-weight="600"><tspan x="-15" y="0">0.9</tspan></text><text id="_0.12-2" data-name="0.12" transform="translate(666 244)" fill="#051c2c" font-size="22" font-family="OpenSans-Semibold, Open Sans" font-weight="600"><tspan x="-21" y="0">0.12</tspan></text><text id="_0.8-2" data-name="0.8" transform="translate(662 300)" fill="#051c2c" font-size="22" font-family="OpenSans-Semibold, Open Sans" font-weight="600"><tspan x="-15" y="0">0.8</tspan></text><text id="_0.87" data-name="0.87" transform="translate(656 342)" fill="#051c2c" font-size="22" font-family="OpenSans-Semibold, Open Sans" font-weight="600"><tspan x="-21" y="0">0.87</tspan></text><text id="_0.62" data-name="0.62" transform="translate(669 405)" fill="#051c2c" font-size="22" font-family="OpenSans-Semibold, Open Sans" font-weight="600"><tspan x="-21" y="0">0.62</tspan></text><text id="_0.331" data-name="0.331" transform="translate(469 175)" fill="#051c2c" font-size="22" font-family="OpenSans-Semibold, Open Sans" font-weight="600"><tspan x="-28" y="0">0.331</tspan></text><text id="_0.1-4" data-name="0.1" transform="translate(226 180)" fill="#051c2c" font-size="22" font-family="OpenSans-Semibold, Open Sans" font-weight="600"><tspan x="-15" y="0">0.1</tspan></text><text id="_0.6" data-name="0.6" transform="translate(166 210)" fill="#051c2c" font-size="22" font-family="OpenSans-Semibold, Open Sans" font-weight="600"><tspan x="-15" y="0">0.6</tspan></text><text id="_0.1-5" data-name="0.1" transform="translate(164 342)" fill="#051c2c" font-size="22" font-family="OpenSans-Semibold, Open Sans" font-weight="600"><tspan x="-15" y="0">0.1</tspan></text><text id="_0.9-3" data-name="0.9" transform="translate(202 284)" fill="#051c2c" font-size="22" font-family="OpenSans-Semibold, Open Sans" font-weight="600"><tspan x="-15" y="0">0.9</tspan></text><text id="_0.05" data-name="0.05" transform="translate(164 306)" fill="#051c2c" font-size="22" font-family="OpenSans-Semibold, Open Sans" font-weight="600"><tspan x="-21" y="0">0.05</tspan></text><text id="_0.75" data-name="0.75" transform="translate(218 369)" fill="#051c2c" font-size="22" font-family="OpenSans-Semibold, Open Sans" font-weight="600"><tspan x="-21" y="0">0.75</tspan></text><text id="_0.5" data-name="0.5" transform="translate(194 405)" fill="#051c2c" font-size="22" font-family="OpenSans-Semibold, Open Sans" font-weight="600"><tspan x="-15" y="0">0.5</tspan></text><text id="_0.12-3" data-name="0.12" transform="translate(200 262)" fill="#051c2c" font-size="22" font-family="OpenSans-Semibold, Open Sans" font-weight="600"><tspan x="-21" y="0">0.12</tspan></text><text id="X2" transform="translate(59 269)" fill="#051c2c" font-size="22" font-family="OpenSans-Semibold, Open Sans" font-weight="600"><tspan x="-10" y="0">X</tspan><tspan y="0" font-size="12.833" baseline-shift="-7.332599639892578">2</tspan></text><text id="X3" transform="translate(59 386)" fill="#051c2c" font-size="22" font-family="OpenSans-Semibold, Open Sans" font-weight="600"><tspan x="-10" y="0">X</tspan><tspan y="0" font-size="12.833" baseline-shift="-7.332599639892578">3</tspan></text><text id="Weights" transform="translate(226 468)" fill="#051c2c" font-size="22" font-family="OpenSans-Semibold, Open Sans" font-weight="600"><tspan x="-42" y="0">Weights</tspan></text><text id="Biases" transform="translate(477 468)" fill="#051c2c" font-size="22" font-family="OpenSans-Semibold, Open Sans" font-weight="600"><tspan x="-33" y="0">Biases</tspan></text><text id="LeewayHertz" transform="translate(796 492)" fill="#051c2c" font-size="20" font-family="Georgia"><tspan x="0" y="0">LeewayHertz</tspan></text><path id="Polygon_17" data-name="Polygon 17" d="M5.5,0,11,9H0Z" transform="translate(220 372)" fill="#1b54f8"></path><path id="Polygon_23" data-name="Polygon 23" d="M5.5,0,11,9H0Z" transform="matrix(0.391, -0.921, 0.921, 0.391, 357.209, 399.305)" fill="#1b54f8"></path><path id="Polygon_24" data-name="Polygon 24" d="M5.5,0,11,9H0Z" transform="matrix(0.391, 0.921, -0.921, 0.391, 607.702, 389.179)" fill="#1b54f8"></path><path id="Polygon_22" data-name="Polygon 22" d="M5.5,0,11,9H0Z" transform="translate(186.894 412.588) rotate(-40)" fill="#1b54f8"></path><path id="Path_49" data-name="Path 49" d="M196.322,374l29.416,33.269V333.939" transform="translate(0 41)" fill="none" stroke="#1b54f8" stroke-width="1" stroke-dasharray="4 4"></path><path id="Path_50" data-name="Path 50" d="M364,355l108.626,51.165L604.858,355" transform="translate(0 41)" fill="none" stroke="#1b54f8" stroke-width="1" stroke-dasharray="4 4"></path><text id="Input_Layer" data-name="Input Layer" transform="translate(59 66)" fill="#051c2c" font-size="22" font-family="OpenSans-Semibold, Open Sans" font-weight="600"><tspan x="0" y="0">Input Layer</tspan></text><text id="Multiple_Hidden_Layers" data-name="Multiple Hidden Layers" transform="translate(364 66)" fill="#051c2c" font-size="22" font-family="OpenSans-Semibold, Open Sans" font-weight="600"><tspan x="0" y="0">Multiple Hidden Layers</tspan></text><text id="Output_Layer" data-name="Output Layer" transform="translate(796 66)" fill="#051c2c" font-size="22" font-family="OpenSans-Semibold, Open Sans" font-weight="600"><tspan x="0" y="0">Output Layer</tspan></text></g></g></svg> 