<svg width="1280" height="720" xmlns="http://www.w3.org/2000/svg" xmlns:xlink="http://www.w3.org/1999/xlink" overflow="hidden"><defs><clipPath id="clip0"><rect x="0" y="0" width="1280" height="720"/></clipPath></defs><g clip-path="url(#clip0)"><rect x="0" y="0" width="1280" height="720" fill="#FFFFFF"/><path d="M195 112.5C195 90.6848 212.685 73 234.5 73 256.315 73 274 90.6848 274 112.5 274 134.315 256.315 152 234.5 152 212.685 152 195 134.315 195 112.5Z" stroke="#000000" stroke-width="2" stroke-miterlimit="8" fill="none" fill-rule="evenodd"/><path d="M195 211.5C195 189.685 212.685 172 234.5 172 256.315 172 274 189.685 274 211.5 274 233.315 256.315 251 234.5 251 212.685 251 195 233.315 195 211.5Z" stroke="#000000" stroke-width="2" stroke-miterlimit="8" fill="none" fill-rule="evenodd"/><path d="M195 310C195 288.461 212.685 271 234.5 271 256.315 271 274 288.461 274 310 274 331.539 256.315 349 234.5 349 212.685 349 195 331.539 195 310Z" stroke="#000000" stroke-width="2" stroke-miterlimit="8" fill="none" fill-rule="evenodd"/><path d="M195 409C195 387.461 212.685 370 234.5 370 256.315 370 274 387.461 274 409 274 430.539 256.315 448 234.5 448 212.685 448 195 430.539 195 409Z" stroke="#000000" stroke-width="2" stroke-miterlimit="8" fill="none" fill-rule="evenodd"/><path d="M429 258C429 216.579 481.159 183 545.5 183 609.841 183 662 216.579 662 258 662 299.421 609.841 333 545.5 333 481.159 333 429 299.421 429 258Z" stroke="#042433" stroke-width="2" stroke-miterlimit="8" fill="none" fill-rule="evenodd"/><path d="M5.47266-28.2305 19.4531-9.24609 19.4531-7.82812 4.35938 12.6562 24.6914 12.6562C25.5898 12.6562 26.2773 12.3398 26.7539 11.707 27.2305 11.0742 27.6406 9.66016 27.9844 7.46484L29.7188 7.46484 29.1211 16.0547 0.304688 16.0547 0.304688 14.8945 16.7227-7.35938 0.785156-28.6523 0.785156-29.7656 29.0859-29.7656 29.0859-22.8281 27.5391-22.8281C27.3594-24.4922 26.9961-25.8086 26.4492-26.7773 25.9023-27.7461 25.0742-28.2305 23.9648-28.2305Z" transform="translate(472.832 252)"/><text fill="#000000" fill-opacity="0" font-family="Arial,Arial_MSFontService,sans-serif" font-size="45.8203" x="0.304688" y="10.3271">à·</text><text font-family="Cambria Math,Cambria Math_MSFontService,sans-serif" font-weight="400" font-size="24" transform="translate(508.646 252)">ğ‘¤</text><text font-family="Cambria Math,Cambria Math_MSFontService,sans-serif" font-weight="400" font-size="18" transform="translate(525.512 257)">ğ‘–</text><text font-family="Cambria Math,Cambria Math_MSFontService,sans-serif" font-weight="400" font-size="24" transform="translate(538.606 252)">â‹…</text><text font-family="Cambria Math,Cambria Math_MSFontService,sans-serif" font-weight="400" font-size="24" transform="translate(550.772 252)">ğ‘¥</text><text font-family="Cambria Math,Cambria Math_MSFontService,sans-serif" font-weight="400" font-size="18" transform="translate(563.372 257)">ğ‘–</text><text font-family="Cambria Math,Cambria Math_MSFontService,sans-serif" font-weight="400" font-size="18" transform="translate(482.919 217)">ğ‘›</text><text font-family="Cambria Math,Cambria Math_MSFontService,sans-serif" font-weight="400" font-size="18" transform="translate(473.939 283)">ğ‘–</text><text font-family="Cambria Math,Cambria Math_MSFontService,sans-serif" font-weight="400" font-size="18" transform="translate(480.706 283)">=</text><text font-family="Cambria Math,Cambria Math_MSFontService,sans-serif" font-weight="400" font-size="18" transform="translate(493.372 283)">0</text><text font-family="Cambria Math,Cambria Math_MSFontService,sans-serif" font-weight="400" font-size="24" transform="translate(576.466 252)">+</text><text font-family="Cambria Math,Cambria Math_MSFontService,sans-serif" font-weight="400" font-size="24" transform="translate(599.799 252)">ğ‘</text><path d="M723 225.5C723 216.387 730.387 209 739.5 209L850.5 209C859.613 209 867 216.387 867 225.5L867 291.5C867 300.613 859.613 308 850.5 308L739.5 308C730.387 308 723 300.613 723 291.5Z" stroke="#042433" stroke-width="2" stroke-miterlimit="8" fill="none" fill-rule="evenodd"/><text font-family="Cambria Math,Cambria Math_MSFontService,sans-serif" font-weight="400" font-size="24" transform="translate(785.387 266)">ğ‘“</text><text font-family="Cambria Math,Cambria Math_MSFontService,sans-serif" font-weight="400" font-size="24" transform="translate(226.916 119)">ğ‘¥</text><text font-family="Cambria Math,Cambria Math_MSFontService,sans-serif" font-weight="400" font-size="18" transform="translate(238.963 124)">1</text><text font-family="Cambria Math,Cambria Math_MSFontService,sans-serif" font-weight="400" font-size="24" transform="translate(226.916 219)">ğ‘¥</text><text font-family="Cambria Math,Cambria Math_MSFontService,sans-serif" font-weight="400" font-size="18" transform="translate(239.516 224)">2</text><text font-family="Cambria Math,Cambria Math_MSFontService,sans-serif" font-weight="400" font-size="24" transform="translate(226.916 318)">ğ‘¥</text><text font-family="Cambria Math,Cambria Math_MSFontService,sans-serif" font-weight="400" font-size="18" transform="translate(239.516 323)">3</text><text font-family="Cambria Math,Cambria Math_MSFontService,sans-serif" font-weight="400" font-size="24" transform="translate(226.916 417)">ğ‘¥</text><text font-family="Cambria Math,Cambria Math_MSFontService,sans-serif" font-weight="400" font-size="18" transform="translate(239.516 422)">ğ‘›</text><path d="M274.633 111.226 420.042 230.122 418.776 231.67 273.367 112.774ZM420.908 226.955 424.57 235.116 415.844 233.149Z"/><path d="M274.226 210.026 415.25 242.743 414.798 244.691 273.774 211.974ZM414.629 239.519 421.518 245.224 412.821 247.312Z"/><path d="M0.333432-0.942774 141.566 49.0073 140.899 50.8928-0.333432 0.942774ZM141.31 45.7345 147.518 52.173 138.642 53.2767Z" transform="matrix(1 0 0 -1 274 310.173)"/><path d="M0.684655-0.728867 146.395 136.143 145.026 137.601-0.684655 0.728867ZM147.477 133.044 150.57 141.436 142 138.874Z" transform="matrix(1 0 0 -1 274 409.436)"/><path d="M506 53C506 31.4609 523.685 14 545.5 14 567.315 14 585 31.4609 585 53 585 74.5391 567.315 92 545.5 92 523.685 92 506 74.5391 506 53Z" stroke="#000000" stroke-width="2" stroke-miterlimit="8" fill="none" fill-rule="evenodd"/><path d="M546 92 546 175.897 544 175.897 544 92ZM549 174.564 545 182.564 541 174.564Z"/><text font-family="Aptos,Aptos_MSFontService,sans-serif" font-weight="400" font-size="24" transform="translate(523.517 60)">bia</text><text font-family="Aptos,Aptos_MSFontService,sans-serif" font-weight="400" font-size="24" transform="translate(555.517 60)">s</text><path d="M662 257 716.153 257 716.153 259 662 259ZM714.82 254 722.82 258 714.82 262Z"/><text font-family="Aptos,Aptos_MSFontService,sans-serif" font-weight="400" font-size="24" transform="translate(495.225 372)">Summation</text><text font-family="Aptos,Aptos_MSFontService,sans-serif" font-weight="400" font-size="24" transform="translate(512.285 401)">function</text><text font-family="Aptos,Aptos_MSFontService,sans-serif" font-weight="400" font-size="24" transform="translate(749.072 372)">Activation</text><text font-family="Aptos,Aptos_MSFontService,sans-serif" font-weight="400" font-size="24" transform="translate(757.759 401)">function</text><path d="M962 225.5C962 216.387 969.387 209 978.5 209L1090.5 209C1099.61 209 1107 216.387 1107 225.5L1107 291.5C1107 300.613 1099.61 308 1090.5 308L978.5 308C969.387 308 962 300.613 962 291.5Z" stroke="#042433" stroke-width="2" stroke-miterlimit="8" fill="none" fill-rule="evenodd"/><text font-family="Cambria Math,Cambria Math_MSFontService,sans-serif" font-weight="400" font-size="24" transform="translate(1024.94 266)">ğ‘¦</text><path d="M867 257 955.491 257 955.491 259 867 259ZM954.158 254 962.158 258 954.158 262Z"/><path d="M425 165.667C425 137.132 448.132 114 476.667 114L846.333 114C874.868 114 898 137.132 898 165.667L898 372.333C898 400.868 874.868 424 846.333 424L476.667 424C448.132 424 425 400.868 425 372.333Z" stroke="#F2AA84" stroke-width="2" stroke-miterlimit="8" fill="none" fill-rule="evenodd"/><text fill="#C04F15" font-family="Aptos,Aptos_MSFontService,sans-serif" font-weight="400" font-size="24" transform="translate(625.788 461)">Neuron</text><text font-family="Aptos,Aptos_MSFontService,sans-serif" font-weight="400" font-size="24" transform="translate(1000.34 347)">Output</text><text font-family="Cambria Math,Cambria Math_MSFontService,sans-serif" font-weight="400" font-size="24" transform="translate(348.263 143)">ğ‘¤</text><text font-family="Cambria Math,Cambria Math_MSFontService,sans-serif" font-weight="400" font-size="18" transform="translate(364.576 147)">1</text><text font-family="Cambria Math,Cambria Math_MSFontService,sans-serif" font-weight="400" font-size="24" transform="translate(320.728 219)">ğ‘¤</text><text font-family="Cambria Math,Cambria Math_MSFontService,sans-serif" font-weight="400" font-size="18" transform="translate(337.595 224)">2</text><text font-family="Cambria Math,Cambria Math_MSFontService,sans-serif" font-weight="400" font-size="24" transform="translate(315.938 280)">ğ‘¤</text><text font-family="Cambria Math,Cambria Math_MSFontService,sans-serif" font-weight="400" font-size="18" transform="translate(332.804 285)">3</text><text font-family="Cambria Math,Cambria Math_MSFontService,sans-serif" font-weight="400" font-size="24" transform="translate(315.938 339)">ğ‘¤</text><text font-family="Cambria Math,Cambria Math_MSFontService,sans-serif" font-weight="400" font-size="18" transform="translate(332.078 344)">ğ‘›</text></g></svg>