<?xml version="1.0" encoding="utf-8" standalone="no"?>
<!DOCTYPE svg PUBLIC "-//W3C//DTD SVG 1.1//EN"
  "http://www.w3.org/Graphics/SVG/1.1/DTD/svg11.dtd">
<svg xmlns:xlink="http://www.w3.org/1999/xlink" width="460.8pt" height="345.6pt" viewBox="0 0 460.8 345.6" xmlns="http://www.w3.org/2000/svg" version="1.1">
 <metadata>
  <rdf:RDF xmlns:dc="http://purl.org/dc/elements/1.1/" xmlns:cc="http://creativecommons.org/ns#" xmlns:rdf="http://www.w3.org/1999/02/22-rdf-syntax-ns#">
   <cc:Work>
    <dc:type rdf:resource="http://purl.org/dc/dcmitype/StillImage"/>
    <dc:date>2024-09-07T00:24:21.112442</dc:date>
    <dc:format>image/svg+xml</dc:format>
    <dc:creator>
     <cc:Agent>
      <dc:title>Matplotlib v3.9.1, https://matplotlib.org/</dc:title>
     </cc:Agent>
    </dc:creator>
   </cc:Work>
  </rdf:RDF>
 </metadata>
 <defs>
  <style type="text/css">*{stroke-linejoin: round; stroke-linecap: butt}</style>
 </defs>
 <g id="figure_1">
  <g id="patch_1">
   <path d="M 0 345.6 
L 460.8 345.6 
L 460.8 0 
L 0 0 
z
" style="fill: #ffffff"/>
  </g>
  <g id="axes_1">
   <g id="patch_2">
    <path d="M 57.6 307.584 
L 414.72 307.584 
L 414.72 41.472 
L 57.6 41.472 
z
" style="fill: #ffffff"/>
   </g>
   <g id="matplotlib.axis_1">
    <g id="xtick_1">
     <g id="line2d_1">
      <path d="M 72.201297 307.584 
L 72.201297 41.472 
" clip-path="url(#pda06df4913)" style="fill: none; stroke: #b0b0b0; stroke-width: 0.8; stroke-linecap: square"/>
     </g>
     <g id="line2d_2">
      <defs>
       <path id="m15503f4535" d="M 0 0 
L 0 3.5 
" style="stroke: #000000; stroke-width: 0.8"/>
      </defs>
      <g>
       <use xlink:href="#m15503f4535" x="72.201297" y="307.584" style="stroke: #000000; stroke-width: 0.8"/>
      </g>
     </g>
     <g id="text_1">
      <!-- 0 -->
      <g transform="translate(69.020047 322.182437) scale(0.1 -0.1)">
       <defs>
        <path id="DejaVuSans-30" d="M 2034 4250 
Q 1547 4250 1301 3770 
Q 1056 3291 1056 2328 
Q 1056 1369 1301 889 
Q 1547 409 2034 409 
Q 2525 409 2770 889 
Q 3016 1369 3016 2328 
Q 3016 3291 2770 3770 
Q 2525 4250 2034 4250 
z
M 2034 4750 
Q 2819 4750 3233 4129 
Q 3647 3509 3647 2328 
Q 3647 1150 3233 529 
Q 2819 -91 2034 -91 
Q 1250 -91 836 529 
Q 422 1150 422 2328 
Q 422 3509 836 4129 
Q 1250 4750 2034 4750 
z
" transform="scale(0.015625)"/>
       </defs>
       <use xlink:href="#DejaVuSans-30"/>
      </g>
     </g>
    </g>
    <g id="xtick_2">
     <g id="line2d_3">
      <path d="M 112.987044 307.584 
L 112.987044 41.472 
" clip-path="url(#pda06df4913)" style="fill: none; stroke: #b0b0b0; stroke-width: 0.8; stroke-linecap: square"/>
     </g>
     <g id="line2d_4">
      <g>
       <use xlink:href="#m15503f4535" x="112.987044" y="307.584" style="stroke: #000000; stroke-width: 0.8"/>
      </g>
     </g>
     <g id="text_2">
      <!-- 25 -->
      <g transform="translate(106.624544 322.182437) scale(0.1 -0.1)">
       <defs>
        <path id="DejaVuSans-32" d="M 1228 531 
L 3431 531 
L 3431 0 
L 469 0 
L 469 531 
Q 828 903 1448 1529 
Q 2069 2156 2228 2338 
Q 2531 2678 2651 2914 
Q 2772 3150 2772 3378 
Q 2772 3750 2511 3984 
Q 2250 4219 1831 4219 
Q 1534 4219 1204 4116 
Q 875 4013 500 3803 
L 500 4441 
Q 881 4594 1212 4672 
Q 1544 4750 1819 4750 
Q 2544 4750 2975 4387 
Q 3406 4025 3406 3419 
Q 3406 3131 3298 2873 
Q 3191 2616 2906 2266 
Q 2828 2175 2409 1742 
Q 1991 1309 1228 531 
z
" transform="scale(0.015625)"/>
        <path id="DejaVuSans-35" d="M 691 4666 
L 3169 4666 
L 3169 4134 
L 1269 4134 
L 1269 2991 
Q 1406 3038 1543 3061 
Q 1681 3084 1819 3084 
Q 2600 3084 3056 2656 
Q 3513 2228 3513 1497 
Q 3513 744 3044 326 
Q 2575 -91 1722 -91 
Q 1428 -91 1123 -41 
Q 819 9 494 109 
L 494 744 
Q 775 591 1075 516 
Q 1375 441 1709 441 
Q 2250 441 2565 725 
Q 2881 1009 2881 1497 
Q 2881 1984 2565 2268 
Q 2250 2553 1709 2553 
Q 1456 2553 1204 2497 
Q 953 2441 691 2322 
L 691 4666 
z
" transform="scale(0.015625)"/>
       </defs>
       <use xlink:href="#DejaVuSans-32"/>
       <use xlink:href="#DejaVuSans-35" x="63.623047"/>
      </g>
     </g>
    </g>
    <g id="xtick_3">
     <g id="line2d_5">
      <path d="M 153.772791 307.584 
L 153.772791 41.472 
" clip-path="url(#pda06df4913)" style="fill: none; stroke: #b0b0b0; stroke-width: 0.8; stroke-linecap: square"/>
     </g>
     <g id="line2d_6">
      <g>
       <use xlink:href="#m15503f4535" x="153.772791" y="307.584" style="stroke: #000000; stroke-width: 0.8"/>
      </g>
     </g>
     <g id="text_3">
      <!-- 50 -->
      <g transform="translate(147.410291 322.182437) scale(0.1 -0.1)">
       <use xlink:href="#DejaVuSans-35"/>
       <use xlink:href="#DejaVuSans-30" x="63.623047"/>
      </g>
     </g>
    </g>
    <g id="xtick_4">
     <g id="line2d_7">
      <path d="M 194.558538 307.584 
L 194.558538 41.472 
" clip-path="url(#pda06df4913)" style="fill: none; stroke: #b0b0b0; stroke-width: 0.8; stroke-linecap: square"/>
     </g>
     <g id="line2d_8">
      <g>
       <use xlink:href="#m15503f4535" x="194.558538" y="307.584" style="stroke: #000000; stroke-width: 0.8"/>
      </g>
     </g>
     <g id="text_4">
      <!-- 75 -->
      <g transform="translate(188.196038 322.182437) scale(0.1 -0.1)">
       <defs>
        <path id="DejaVuSans-37" d="M 525 4666 
L 3525 4666 
L 3525 4397 
L 1831 0 
L 1172 0 
L 2766 4134 
L 525 4134 
L 525 4666 
z
" transform="scale(0.015625)"/>
       </defs>
       <use xlink:href="#DejaVuSans-37"/>
       <use xlink:href="#DejaVuSans-35" x="63.623047"/>
      </g>
     </g>
    </g>
    <g id="xtick_5">
     <g id="line2d_9">
      <path d="M 235.344285 307.584 
L 235.344285 41.472 
" clip-path="url(#pda06df4913)" style="fill: none; stroke: #b0b0b0; stroke-width: 0.8; stroke-linecap: square"/>
     </g>
     <g id="line2d_10">
      <g>
       <use xlink:href="#m15503f4535" x="235.344285" y="307.584" style="stroke: #000000; stroke-width: 0.8"/>
      </g>
     </g>
     <g id="text_5">
      <!-- 100 -->
      <g transform="translate(225.800535 322.182437) scale(0.1 -0.1)">
       <defs>
        <path id="DejaVuSans-31" d="M 794 531 
L 1825 531 
L 1825 4091 
L 703 3866 
L 703 4441 
L 1819 4666 
L 2450 4666 
L 2450 531 
L 3481 531 
L 3481 0 
L 794 0 
L 794 531 
z
" transform="scale(0.015625)"/>
       </defs>
       <use xlink:href="#DejaVuSans-31"/>
       <use xlink:href="#DejaVuSans-30" x="63.623047"/>
       <use xlink:href="#DejaVuSans-30" x="127.246094"/>
      </g>
     </g>
    </g>
    <g id="xtick_6">
     <g id="line2d_11">
      <path d="M 276.130032 307.584 
L 276.130032 41.472 
" clip-path="url(#pda06df4913)" style="fill: none; stroke: #b0b0b0; stroke-width: 0.8; stroke-linecap: square"/>
     </g>
     <g id="line2d_12">
      <g>
       <use xlink:href="#m15503f4535" x="276.130032" y="307.584" style="stroke: #000000; stroke-width: 0.8"/>
      </g>
     </g>
     <g id="text_6">
      <!-- 125 -->
      <g transform="translate(266.586282 322.182437) scale(0.1 -0.1)">
       <use xlink:href="#DejaVuSans-31"/>
       <use xlink:href="#DejaVuSans-32" x="63.623047"/>
       <use xlink:href="#DejaVuSans-35" x="127.246094"/>
      </g>
     </g>
    </g>
    <g id="xtick_7">
     <g id="line2d_13">
      <path d="M 316.915779 307.584 
L 316.915779 41.472 
" clip-path="url(#pda06df4913)" style="fill: none; stroke: #b0b0b0; stroke-width: 0.8; stroke-linecap: square"/>
     </g>
     <g id="line2d_14">
      <g>
       <use xlink:href="#m15503f4535" x="316.915779" y="307.584" style="stroke: #000000; stroke-width: 0.8"/>
      </g>
     </g>
     <g id="text_7">
      <!-- 150 -->
      <g transform="translate(307.372029 322.182437) scale(0.1 -0.1)">
       <use xlink:href="#DejaVuSans-31"/>
       <use xlink:href="#DejaVuSans-35" x="63.623047"/>
       <use xlink:href="#DejaVuSans-30" x="127.246094"/>
      </g>
     </g>
    </g>
    <g id="xtick_8">
     <g id="line2d_15">
      <path d="M 357.701526 307.584 
L 357.701526 41.472 
" clip-path="url(#pda06df4913)" style="fill: none; stroke: #b0b0b0; stroke-width: 0.8; stroke-linecap: square"/>
     </g>
     <g id="line2d_16">
      <g>
       <use xlink:href="#m15503f4535" x="357.701526" y="307.584" style="stroke: #000000; stroke-width: 0.8"/>
      </g>
     </g>
     <g id="text_8">
      <!-- 175 -->
      <g transform="translate(348.157776 322.182437) scale(0.1 -0.1)">
       <use xlink:href="#DejaVuSans-31"/>
       <use xlink:href="#DejaVuSans-37" x="63.623047"/>
       <use xlink:href="#DejaVuSans-35" x="127.246094"/>
      </g>
     </g>
    </g>
    <g id="xtick_9">
     <g id="line2d_17">
      <path d="M 398.487273 307.584 
L 398.487273 41.472 
" clip-path="url(#pda06df4913)" style="fill: none; stroke: #b0b0b0; stroke-width: 0.8; stroke-linecap: square"/>
     </g>
     <g id="line2d_18">
      <g>
       <use xlink:href="#m15503f4535" x="398.487273" y="307.584" style="stroke: #000000; stroke-width: 0.8"/>
      </g>
     </g>
     <g id="text_9">
      <!-- 200 -->
      <g transform="translate(388.943523 322.182437) scale(0.1 -0.1)">
       <use xlink:href="#DejaVuSans-32"/>
       <use xlink:href="#DejaVuSans-30" x="63.623047"/>
       <use xlink:href="#DejaVuSans-30" x="127.246094"/>
      </g>
     </g>
    </g>
    <g id="text_10">
     <!-- Epoch -->
     <g transform="translate(220.849063 335.860562) scale(0.1 -0.1)">
      <defs>
       <path id="DejaVuSans-45" d="M 628 4666 
L 3578 4666 
L 3578 4134 
L 1259 4134 
L 1259 2753 
L 3481 2753 
L 3481 2222 
L 1259 2222 
L 1259 531 
L 3634 531 
L 3634 0 
L 628 0 
L 628 4666 
z
" transform="scale(0.015625)"/>
       <path id="DejaVuSans-70" d="M 1159 525 
L 1159 -1331 
L 581 -1331 
L 581 3500 
L 1159 3500 
L 1159 2969 
Q 1341 3281 1617 3432 
Q 1894 3584 2278 3584 
Q 2916 3584 3314 3078 
Q 3713 2572 3713 1747 
Q 3713 922 3314 415 
Q 2916 -91 2278 -91 
Q 1894 -91 1617 61 
Q 1341 213 1159 525 
z
M 3116 1747 
Q 3116 2381 2855 2742 
Q 2594 3103 2138 3103 
Q 1681 3103 1420 2742 
Q 1159 2381 1159 1747 
Q 1159 1113 1420 752 
Q 1681 391 2138 391 
Q 2594 391 2855 752 
Q 3116 1113 3116 1747 
z
" transform="scale(0.015625)"/>
       <path id="DejaVuSans-6f" d="M 1959 3097 
Q 1497 3097 1228 2736 
Q 959 2375 959 1747 
Q 959 1119 1226 758 
Q 1494 397 1959 397 
Q 2419 397 2687 759 
Q 2956 1122 2956 1747 
Q 2956 2369 2687 2733 
Q 2419 3097 1959 3097 
z
M 1959 3584 
Q 2709 3584 3137 3096 
Q 3566 2609 3566 1747 
Q 3566 888 3137 398 
Q 2709 -91 1959 -91 
Q 1206 -91 779 398 
Q 353 888 353 1747 
Q 353 2609 779 3096 
Q 1206 3584 1959 3584 
z
" transform="scale(0.015625)"/>
       <path id="DejaVuSans-63" d="M 3122 3366 
L 3122 2828 
Q 2878 2963 2633 3030 
Q 2388 3097 2138 3097 
Q 1578 3097 1268 2742 
Q 959 2388 959 1747 
Q 959 1106 1268 751 
Q 1578 397 2138 397 
Q 2388 397 2633 464 
Q 2878 531 3122 666 
L 3122 134 
Q 2881 22 2623 -34 
Q 2366 -91 2075 -91 
Q 1284 -91 818 406 
Q 353 903 353 1747 
Q 353 2603 823 3093 
Q 1294 3584 2113 3584 
Q 2378 3584 2631 3529 
Q 2884 3475 3122 3366 
z
" transform="scale(0.015625)"/>
       <path id="DejaVuSans-68" d="M 3513 2113 
L 3513 0 
L 2938 0 
L 2938 2094 
Q 2938 2591 2744 2837 
Q 2550 3084 2163 3084 
Q 1697 3084 1428 2787 
Q 1159 2491 1159 1978 
L 1159 0 
L 581 0 
L 581 4863 
L 1159 4863 
L 1159 2956 
Q 1366 3272 1645 3428 
Q 1925 3584 2291 3584 
Q 2894 3584 3203 3211 
Q 3513 2838 3513 2113 
z
" transform="scale(0.015625)"/>
      </defs>
      <use xlink:href="#DejaVuSans-45"/>
      <use xlink:href="#DejaVuSans-70" x="63.183594"/>
      <use xlink:href="#DejaVuSans-6f" x="126.660156"/>
      <use xlink:href="#DejaVuSans-63" x="187.841797"/>
      <use xlink:href="#DejaVuSans-68" x="242.822266"/>
     </g>
    </g>
   </g>
   <g id="matplotlib.axis_2">
    <g id="ytick_1">
     <g id="line2d_19">
      <path d="M 57.6 281.85197 
L 414.72 281.85197 
" clip-path="url(#pda06df4913)" style="fill: none; stroke: #b0b0b0; stroke-width: 0.8; stroke-linecap: square"/>
     </g>
     <g id="line2d_20">
      <defs>
       <path id="m5fddc0c233" d="M 0 0 
L -3.5 0 
" style="stroke: #000000; stroke-width: 0.8"/>
      </defs>
      <g>
       <use xlink:href="#m5fddc0c233" x="57.6" y="281.85197" style="stroke: #000000; stroke-width: 0.8"/>
      </g>
     </g>
     <g id="text_11">
      <!-- 3 -->
      <g transform="translate(44.2375 285.651189) scale(0.1 -0.1)">
       <defs>
        <path id="DejaVuSans-33" d="M 2597 2516 
Q 3050 2419 3304 2112 
Q 3559 1806 3559 1356 
Q 3559 666 3084 287 
Q 2609 -91 1734 -91 
Q 1441 -91 1130 -33 
Q 819 25 488 141 
L 488 750 
Q 750 597 1062 519 
Q 1375 441 1716 441 
Q 2309 441 2620 675 
Q 2931 909 2931 1356 
Q 2931 1769 2642 2001 
Q 2353 2234 1838 2234 
L 1294 2234 
L 1294 2753 
L 1863 2753 
Q 2328 2753 2575 2939 
Q 2822 3125 2822 3475 
Q 2822 3834 2567 4026 
Q 2313 4219 1838 4219 
Q 1578 4219 1281 4162 
Q 984 4106 628 3988 
L 628 4550 
Q 988 4650 1302 4700 
Q 1616 4750 1894 4750 
Q 2613 4750 3031 4423 
Q 3450 4097 3450 3541 
Q 3450 3153 3228 2886 
Q 3006 2619 2597 2516 
z
" transform="scale(0.015625)"/>
       </defs>
       <use xlink:href="#DejaVuSans-33"/>
      </g>
     </g>
    </g>
    <g id="ytick_2">
     <g id="line2d_21">
      <path d="M 57.6 237.218941 
L 414.72 237.218941 
" clip-path="url(#pda06df4913)" style="fill: none; stroke: #b0b0b0; stroke-width: 0.8; stroke-linecap: square"/>
     </g>
     <g id="line2d_22">
      <g>
       <use xlink:href="#m5fddc0c233" x="57.6" y="237.218941" style="stroke: #000000; stroke-width: 0.8"/>
      </g>
     </g>
     <g id="text_12">
      <!-- 4 -->
      <g transform="translate(44.2375 241.01816) scale(0.1 -0.1)">
       <defs>
        <path id="DejaVuSans-34" d="M 2419 4116 
L 825 1625 
L 2419 1625 
L 2419 4116 
z
M 2253 4666 
L 3047 4666 
L 3047 1625 
L 3713 1625 
L 3713 1100 
L 3047 1100 
L 3047 0 
L 2419 0 
L 2419 1100 
L 313 1100 
L 313 1709 
L 2253 4666 
z
" transform="scale(0.015625)"/>
       </defs>
       <use xlink:href="#DejaVuSans-34"/>
      </g>
     </g>
    </g>
    <g id="ytick_3">
     <g id="line2d_23">
      <path d="M 57.6 192.585913 
L 414.72 192.585913 
" clip-path="url(#pda06df4913)" style="fill: none; stroke: #b0b0b0; stroke-width: 0.8; stroke-linecap: square"/>
     </g>
     <g id="line2d_24">
      <g>
       <use xlink:href="#m5fddc0c233" x="57.6" y="192.585913" style="stroke: #000000; stroke-width: 0.8"/>
      </g>
     </g>
     <g id="text_13">
      <!-- 5 -->
      <g transform="translate(44.2375 196.385131) scale(0.1 -0.1)">
       <use xlink:href="#DejaVuSans-35"/>
      </g>
     </g>
    </g>
    <g id="ytick_4">
     <g id="line2d_25">
      <path d="M 57.6 147.952884 
L 414.72 147.952884 
" clip-path="url(#pda06df4913)" style="fill: none; stroke: #b0b0b0; stroke-width: 0.8; stroke-linecap: square"/>
     </g>
     <g id="line2d_26">
      <g>
       <use xlink:href="#m5fddc0c233" x="57.6" y="147.952884" style="stroke: #000000; stroke-width: 0.8"/>
      </g>
     </g>
     <g id="text_14">
      <!-- 6 -->
      <g transform="translate(44.2375 151.752103) scale(0.1 -0.1)">
       <defs>
        <path id="DejaVuSans-36" d="M 2113 2584 
Q 1688 2584 1439 2293 
Q 1191 2003 1191 1497 
Q 1191 994 1439 701 
Q 1688 409 2113 409 
Q 2538 409 2786 701 
Q 3034 994 3034 1497 
Q 3034 2003 2786 2293 
Q 2538 2584 2113 2584 
z
M 3366 4563 
L 3366 3988 
Q 3128 4100 2886 4159 
Q 2644 4219 2406 4219 
Q 1781 4219 1451 3797 
Q 1122 3375 1075 2522 
Q 1259 2794 1537 2939 
Q 1816 3084 2150 3084 
Q 2853 3084 3261 2657 
Q 3669 2231 3669 1497 
Q 3669 778 3244 343 
Q 2819 -91 2113 -91 
Q 1303 -91 875 529 
Q 447 1150 447 2328 
Q 447 3434 972 4092 
Q 1497 4750 2381 4750 
Q 2619 4750 2861 4703 
Q 3103 4656 3366 4563 
z
" transform="scale(0.015625)"/>
       </defs>
       <use xlink:href="#DejaVuSans-36"/>
      </g>
     </g>
    </g>
    <g id="ytick_5">
     <g id="line2d_27">
      <path d="M 57.6 103.319855 
L 414.72 103.319855 
" clip-path="url(#pda06df4913)" style="fill: none; stroke: #b0b0b0; stroke-width: 0.8; stroke-linecap: square"/>
     </g>
     <g id="line2d_28">
      <g>
       <use xlink:href="#m5fddc0c233" x="57.6" y="103.319855" style="stroke: #000000; stroke-width: 0.8"/>
      </g>
     </g>
     <g id="text_15">
      <!-- 7 -->
      <g transform="translate(44.2375 107.119074) scale(0.1 -0.1)">
       <use xlink:href="#DejaVuSans-37"/>
      </g>
     </g>
    </g>
    <g id="ytick_6">
     <g id="line2d_29">
      <path d="M 57.6 58.686827 
L 414.72 58.686827 
" clip-path="url(#pda06df4913)" style="fill: none; stroke: #b0b0b0; stroke-width: 0.8; stroke-linecap: square"/>
     </g>
     <g id="line2d_30">
      <g>
       <use xlink:href="#m5fddc0c233" x="57.6" y="58.686827" style="stroke: #000000; stroke-width: 0.8"/>
      </g>
     </g>
     <g id="text_16">
      <!-- 8 -->
      <g transform="translate(44.2375 62.486045) scale(0.1 -0.1)">
       <defs>
        <path id="DejaVuSans-38" d="M 2034 2216 
Q 1584 2216 1326 1975 
Q 1069 1734 1069 1313 
Q 1069 891 1326 650 
Q 1584 409 2034 409 
Q 2484 409 2743 651 
Q 3003 894 3003 1313 
Q 3003 1734 2745 1975 
Q 2488 2216 2034 2216 
z
M 1403 2484 
Q 997 2584 770 2862 
Q 544 3141 544 3541 
Q 544 4100 942 4425 
Q 1341 4750 2034 4750 
Q 2731 4750 3128 4425 
Q 3525 4100 3525 3541 
Q 3525 3141 3298 2862 
Q 3072 2584 2669 2484 
Q 3125 2378 3379 2068 
Q 3634 1759 3634 1313 
Q 3634 634 3220 271 
Q 2806 -91 2034 -91 
Q 1263 -91 848 271 
Q 434 634 434 1313 
Q 434 1759 690 2068 
Q 947 2378 1403 2484 
z
M 1172 3481 
Q 1172 3119 1398 2916 
Q 1625 2713 2034 2713 
Q 2441 2713 2670 2916 
Q 2900 3119 2900 3481 
Q 2900 3844 2670 4047 
Q 2441 4250 2034 4250 
Q 1625 4250 1398 4047 
Q 1172 3844 1172 3481 
z
" transform="scale(0.015625)"/>
       </defs>
       <use xlink:href="#DejaVuSans-38"/>
      </g>
     </g>
    </g>
    <g id="text_17">
     <!-- Loss -->
     <g transform="translate(38.157812 185.495187) rotate(-90) scale(0.1 -0.1)">
      <defs>
       <path id="DejaVuSans-4c" d="M 628 4666 
L 1259 4666 
L 1259 531 
L 3531 531 
L 3531 0 
L 628 0 
L 628 4666 
z
" transform="scale(0.015625)"/>
       <path id="DejaVuSans-73" d="M 2834 3397 
L 2834 2853 
Q 2591 2978 2328 3040 
Q 2066 3103 1784 3103 
Q 1356 3103 1142 2972 
Q 928 2841 928 2578 
Q 928 2378 1081 2264 
Q 1234 2150 1697 2047 
L 1894 2003 
Q 2506 1872 2764 1633 
Q 3022 1394 3022 966 
Q 3022 478 2636 193 
Q 2250 -91 1575 -91 
Q 1294 -91 989 -36 
Q 684 19 347 128 
L 347 722 
Q 666 556 975 473 
Q 1284 391 1588 391 
Q 1994 391 2212 530 
Q 2431 669 2431 922 
Q 2431 1156 2273 1281 
Q 2116 1406 1581 1522 
L 1381 1569 
Q 847 1681 609 1914 
Q 372 2147 372 2553 
Q 372 3047 722 3315 
Q 1072 3584 1716 3584 
Q 2034 3584 2315 3537 
Q 2597 3491 2834 3397 
z
" transform="scale(0.015625)"/>
      </defs>
      <use xlink:href="#DejaVuSans-4c"/>
      <use xlink:href="#DejaVuSans-6f" x="53.962891"/>
      <use xlink:href="#DejaVuSans-73" x="115.144531"/>
      <use xlink:href="#DejaVuSans-73" x="167.244141"/>
     </g>
    </g>
   </g>
   <g id="line2d_31">
    <path d="M 73.832727 153.739221 
L 75.464157 164.454968 
L 77.095587 173.538547 
L 78.727017 169.927237 
L 80.358447 178.835871 
L 81.989877 171.938131 
L 83.621307 187.926111 
L 85.252736 181.378535 
L 86.884166 170.253372 
L 88.515596 162.811924 
L 91.778456 178.696491 
L 93.409886 170.653849 
L 95.041316 168.016498 
L 96.672746 173.336765 
L 98.304175 184.87311 
L 99.935605 180.418196 
L 101.567035 190.52909 
L 103.198465 190.347698 
L 104.829895 203.697539 
L 106.461325 189.090253 
L 108.092755 190.572783 
L 111.355614 184.514007 
L 112.987044 200.283392 
L 114.618474 196.387107 
L 116.249904 195.357238 
L 117.881334 175.065409 
L 119.512764 183.151957 
L 121.144194 170.063275 
L 122.775624 196.569797 
L 124.407053 179.474033 
L 126.038483 193.732517 
L 127.669913 191.839422 
L 129.301343 190.319051 
L 130.932773 201.334544 
L 132.564203 201.267695 
L 134.195633 162.108297 
L 135.827063 209.90638 
L 137.458492 202.538357 
L 139.089922 205.136781 
L 140.721352 201.751834 
L 142.352782 213.429261 
L 143.984212 209.656798 
L 145.615642 187.437397 
L 147.247072 201.993052 
L 148.878502 215.015012 
L 150.509931 211.28818 
L 152.141361 193.241355 
L 153.772791 210.249436 
L 155.404221 196.087915 
L 157.035651 197.401333 
L 158.667081 215.267638 
L 160.298511 218.512971 
L 161.929941 212.355443 
L 163.56137 218.576819 
L 165.1928 194.938756 
L 166.82423 232.754664 
L 168.45566 205.176899 
L 170.08709 219.977624 
L 171.71852 215.086927 
L 173.34995 230.061297 
L 174.98138 228.465755 
L 176.61281 215.910843 
L 178.244239 207.722521 
L 179.875669 216.286227 
L 181.507099 210.956915 
L 183.138529 218.977104 
L 184.769959 216.949013 
L 186.401389 222.292435 
L 188.032819 218.630856 
L 189.664249 238.217227 
L 191.295678 231.938345 
L 192.927108 235.990739 
L 194.558538 213.544294 
L 196.189968 230.600366 
L 197.821398 233.899268 
L 199.452828 243.023177 
L 201.084258 226.865936 
L 202.715688 227.393534 
L 204.347117 236.174664 
L 205.978547 234.795673 
L 207.609977 244.630073 
L 209.241407 238.271743 
L 210.872837 238.46848 
L 212.504267 235.582558 
L 214.135697 239.184195 
L 215.767127 237.861593 
L 217.398556 230.438746 
L 219.029986 237.429725 
L 220.661416 245.22967 
L 222.292846 229.034535 
L 223.924276 238.256217 
L 225.555706 254.285474 
L 227.187136 243.069137 
L 228.818566 236.665783 
L 230.449995 245.391174 
L 232.081425 240.0693 
L 233.712855 242.626308 
L 235.344285 238.468639 
L 236.975715 240.901687 
L 238.607145 252.799964 
L 240.238575 238.279862 
L 241.870005 227.942755 
L 243.501434 229.981019 
L 245.132864 243.274334 
L 246.764294 238.483878 
L 248.395724 250.059722 
L 250.027154 257.324301 
L 251.658584 245.773102 
L 253.290014 243.788885 
L 254.921444 254.765644 
L 256.552873 257.678382 
L 258.184303 257.913406 
L 259.815733 243.676949 
L 261.447163 246.466364 
L 263.078593 256.114902 
L 264.710023 257.590835 
L 266.341453 256.96655 
L 267.972883 265.087864 
L 269.604312 263.22432 
L 271.235742 234.209059 
L 272.867172 255.338191 
L 274.498602 255.930509 
L 276.130032 268.314638 
L 277.761462 258.005347 
L 279.392892 258.436109 
L 281.024322 259.778493 
L 282.655751 266.637914 
L 284.287181 267.047031 
L 285.918611 249.856962 
L 287.550041 271.134201 
L 289.181471 266.36225 
L 290.812901 275.381501 
L 292.444331 262.584147 
L 294.075761 257.702431 
L 295.70719 261.526217 
L 297.33862 257.988247 
L 298.97005 269.209607 
L 300.60148 252.318752 
L 302.23291 265.606055 
L 303.86434 253.853234 
L 305.49577 265.952633 
L 307.1272 251.083111 
L 308.75863 269.606657 
L 310.390059 271.324723 
L 312.021489 268.667878 
L 313.652919 278.726171 
L 315.284349 266.095046 
L 316.915779 268.350329 
L 318.547209 269.318798 
L 320.178639 264.439838 
L 321.810069 275.765717 
L 323.441498 279.176906 
L 325.072928 275.03305 
L 326.704358 275.437315 
L 328.335788 272.312059 
L 329.967218 251.976314 
L 331.598648 269.122114 
L 333.230078 274.964648 
L 334.861508 279.625748 
L 336.492937 264.961881 
L 338.124367 262.017262 
L 339.755797 259.402109 
L 341.387227 265.174101 
L 343.018657 278.455966 
L 344.650087 278.882216 
L 346.281517 279.619703 
L 347.912947 281.187567 
L 349.544376 273.302055 
L 351.175806 270.054296 
L 352.807236 255.776571 
L 354.438666 270.954383 
L 356.070096 269.177013 
L 357.701526 288.551866 
L 359.332956 288.134534 
L 362.595815 281.858206 
L 364.227245 276.058599 
L 365.858675 263.30595 
L 367.490105 284.43639 
L 369.121535 291.938686 
L 370.752965 270.299185 
L 372.384395 295.488 
L 374.015825 280.735746 
L 375.647254 268.886759 
L 377.278684 278.198137 
L 378.910114 267.888059 
L 380.541544 287.625516 
L 382.172974 282.102148 
L 383.804404 269.886822 
L 385.435834 283.943952 
L 387.067264 281.543084 
L 388.698693 288.670304 
L 390.330123 284.236269 
L 391.961553 263.603035 
L 393.592983 273.777872 
L 395.224413 286.124107 
L 396.855843 283.686027 
L 398.487273 279.204776 
L 398.487273 279.204776 
" clip-path="url(#pda06df4913)" style="fill: none; stroke: #1f77b4; stroke-width: 1.5; stroke-linecap: square"/>
    <defs>
     <path id="m3860591d3e" d="M 0 1.5 
C 0.397805 1.5 0.77937 1.341951 1.06066 1.06066 
C 1.341951 0.77937 1.5 0.397805 1.5 0 
C 1.5 -0.397805 1.341951 -0.77937 1.06066 -1.06066 
C 0.77937 -1.341951 0.397805 -1.5 0 -1.5 
C -0.397805 -1.5 -0.77937 -1.341951 -1.06066 -1.06066 
C -1.341951 -0.77937 -1.5 -0.397805 -1.5 0 
C -1.5 0.397805 -1.341951 0.77937 -1.06066 1.06066 
C -0.77937 1.341951 -0.397805 1.5 0 1.5 
z
" style="stroke: #1f77b4"/>
    </defs>
    <g clip-path="url(#pda06df4913)">
     <use xlink:href="#m3860591d3e" x="73.832727" y="153.739221" style="fill: #1f77b4; stroke: #1f77b4"/>
     <use xlink:href="#m3860591d3e" x="75.464157" y="164.454968" style="fill: #1f77b4; stroke: #1f77b4"/>
     <use xlink:href="#m3860591d3e" x="77.095587" y="173.538547" style="fill: #1f77b4; stroke: #1f77b4"/>
     <use xlink:href="#m3860591d3e" x="78.727017" y="169.927237" style="fill: #1f77b4; stroke: #1f77b4"/>
     <use xlink:href="#m3860591d3e" x="80.358447" y="178.835871" style="fill: #1f77b4; stroke: #1f77b4"/>
     <use xlink:href="#m3860591d3e" x="81.989877" y="171.938131" style="fill: #1f77b4; stroke: #1f77b4"/>
     <use xlink:href="#m3860591d3e" x="83.621307" y="187.926111" style="fill: #1f77b4; stroke: #1f77b4"/>
     <use xlink:href="#m3860591d3e" x="85.252736" y="181.378535" style="fill: #1f77b4; stroke: #1f77b4"/>
     <use xlink:href="#m3860591d3e" x="86.884166" y="170.253372" style="fill: #1f77b4; stroke: #1f77b4"/>
     <use xlink:href="#m3860591d3e" x="88.515596" y="162.811924" style="fill: #1f77b4; stroke: #1f77b4"/>
     <use xlink:href="#m3860591d3e" x="90.147026" y="170.507552" style="fill: #1f77b4; stroke: #1f77b4"/>
     <use xlink:href="#m3860591d3e" x="91.778456" y="178.696491" style="fill: #1f77b4; stroke: #1f77b4"/>
     <use xlink:href="#m3860591d3e" x="93.409886" y="170.653849" style="fill: #1f77b4; stroke: #1f77b4"/>
     <use xlink:href="#m3860591d3e" x="95.041316" y="168.016498" style="fill: #1f77b4; stroke: #1f77b4"/>
     <use xlink:href="#m3860591d3e" x="96.672746" y="173.336765" style="fill: #1f77b4; stroke: #1f77b4"/>
     <use xlink:href="#m3860591d3e" x="98.304175" y="184.87311" style="fill: #1f77b4; stroke: #1f77b4"/>
     <use xlink:href="#m3860591d3e" x="99.935605" y="180.418196" style="fill: #1f77b4; stroke: #1f77b4"/>
     <use xlink:href="#m3860591d3e" x="101.567035" y="190.52909" style="fill: #1f77b4; stroke: #1f77b4"/>
     <use xlink:href="#m3860591d3e" x="103.198465" y="190.347698" style="fill: #1f77b4; stroke: #1f77b4"/>
     <use xlink:href="#m3860591d3e" x="104.829895" y="203.697539" style="fill: #1f77b4; stroke: #1f77b4"/>
     <use xlink:href="#m3860591d3e" x="106.461325" y="189.090253" style="fill: #1f77b4; stroke: #1f77b4"/>
     <use xlink:href="#m3860591d3e" x="108.092755" y="190.572783" style="fill: #1f77b4; stroke: #1f77b4"/>
     <use xlink:href="#m3860591d3e" x="109.724185" y="187.543576" style="fill: #1f77b4; stroke: #1f77b4"/>
     <use xlink:href="#m3860591d3e" x="111.355614" y="184.514007" style="fill: #1f77b4; stroke: #1f77b4"/>
     <use xlink:href="#m3860591d3e" x="112.987044" y="200.283392" style="fill: #1f77b4; stroke: #1f77b4"/>
     <use xlink:href="#m3860591d3e" x="114.618474" y="196.387107" style="fill: #1f77b4; stroke: #1f77b4"/>
     <use xlink:href="#m3860591d3e" x="116.249904" y="195.357238" style="fill: #1f77b4; stroke: #1f77b4"/>
     <use xlink:href="#m3860591d3e" x="117.881334" y="175.065409" style="fill: #1f77b4; stroke: #1f77b4"/>
     <use xlink:href="#m3860591d3e" x="119.512764" y="183.151957" style="fill: #1f77b4; stroke: #1f77b4"/>
     <use xlink:href="#m3860591d3e" x="121.144194" y="170.063275" style="fill: #1f77b4; stroke: #1f77b4"/>
     <use xlink:href="#m3860591d3e" x="122.775624" y="196.569797" style="fill: #1f77b4; stroke: #1f77b4"/>
     <use xlink:href="#m3860591d3e" x="124.407053" y="179.474033" style="fill: #1f77b4; stroke: #1f77b4"/>
     <use xlink:href="#m3860591d3e" x="126.038483" y="193.732517" style="fill: #1f77b4; stroke: #1f77b4"/>
     <use xlink:href="#m3860591d3e" x="127.669913" y="191.839422" style="fill: #1f77b4; stroke: #1f77b4"/>
     <use xlink:href="#m3860591d3e" x="129.301343" y="190.319051" style="fill: #1f77b4; stroke: #1f77b4"/>
     <use xlink:href="#m3860591d3e" x="130.932773" y="201.334544" style="fill: #1f77b4; stroke: #1f77b4"/>
     <use xlink:href="#m3860591d3e" x="132.564203" y="201.267695" style="fill: #1f77b4; stroke: #1f77b4"/>
     <use xlink:href="#m3860591d3e" x="134.195633" y="162.108297" style="fill: #1f77b4; stroke: #1f77b4"/>
     <use xlink:href="#m3860591d3e" x="135.827063" y="209.90638" style="fill: #1f77b4; stroke: #1f77b4"/>
     <use xlink:href="#m3860591d3e" x="137.458492" y="202.538357" style="fill: #1f77b4; stroke: #1f77b4"/>
     <use xlink:href="#m3860591d3e" x="139.089922" y="205.136781" style="fill: #1f77b4; stroke: #1f77b4"/>
     <use xlink:href="#m3860591d3e" x="140.721352" y="201.751834" style="fill: #1f77b4; stroke: #1f77b4"/>
     <use xlink:href="#m3860591d3e" x="142.352782" y="213.429261" style="fill: #1f77b4; stroke: #1f77b4"/>
     <use xlink:href="#m3860591d3e" x="143.984212" y="209.656798" style="fill: #1f77b4; stroke: #1f77b4"/>
     <use xlink:href="#m3860591d3e" x="145.615642" y="187.437397" style="fill: #1f77b4; stroke: #1f77b4"/>
     <use xlink:href="#m3860591d3e" x="147.247072" y="201.993052" style="fill: #1f77b4; stroke: #1f77b4"/>
     <use xlink:href="#m3860591d3e" x="148.878502" y="215.015012" style="fill: #1f77b4; stroke: #1f77b4"/>
     <use xlink:href="#m3860591d3e" x="150.509931" y="211.28818" style="fill: #1f77b4; stroke: #1f77b4"/>
     <use xlink:href="#m3860591d3e" x="152.141361" y="193.241355" style="fill: #1f77b4; stroke: #1f77b4"/>
     <use xlink:href="#m3860591d3e" x="153.772791" y="210.249436" style="fill: #1f77b4; stroke: #1f77b4"/>
     <use xlink:href="#m3860591d3e" x="155.404221" y="196.087915" style="fill: #1f77b4; stroke: #1f77b4"/>
     <use xlink:href="#m3860591d3e" x="157.035651" y="197.401333" style="fill: #1f77b4; stroke: #1f77b4"/>
     <use xlink:href="#m3860591d3e" x="158.667081" y="215.267638" style="fill: #1f77b4; stroke: #1f77b4"/>
     <use xlink:href="#m3860591d3e" x="160.298511" y="218.512971" style="fill: #1f77b4; stroke: #1f77b4"/>
     <use xlink:href="#m3860591d3e" x="161.929941" y="212.355443" style="fill: #1f77b4; stroke: #1f77b4"/>
     <use xlink:href="#m3860591d3e" x="163.56137" y="218.576819" style="fill: #1f77b4; stroke: #1f77b4"/>
     <use xlink:href="#m3860591d3e" x="165.1928" y="194.938756" style="fill: #1f77b4; stroke: #1f77b4"/>
     <use xlink:href="#m3860591d3e" x="166.82423" y="232.754664" style="fill: #1f77b4; stroke: #1f77b4"/>
     <use xlink:href="#m3860591d3e" x="168.45566" y="205.176899" style="fill: #1f77b4; stroke: #1f77b4"/>
     <use xlink:href="#m3860591d3e" x="170.08709" y="219.977624" style="fill: #1f77b4; stroke: #1f77b4"/>
     <use xlink:href="#m3860591d3e" x="171.71852" y="215.086927" style="fill: #1f77b4; stroke: #1f77b4"/>
     <use xlink:href="#m3860591d3e" x="173.34995" y="230.061297" style="fill: #1f77b4; stroke: #1f77b4"/>
     <use xlink:href="#m3860591d3e" x="174.98138" y="228.465755" style="fill: #1f77b4; stroke: #1f77b4"/>
     <use xlink:href="#m3860591d3e" x="176.61281" y="215.910843" style="fill: #1f77b4; stroke: #1f77b4"/>
     <use xlink:href="#m3860591d3e" x="178.244239" y="207.722521" style="fill: #1f77b4; stroke: #1f77b4"/>
     <use xlink:href="#m3860591d3e" x="179.875669" y="216.286227" style="fill: #1f77b4; stroke: #1f77b4"/>
     <use xlink:href="#m3860591d3e" x="181.507099" y="210.956915" style="fill: #1f77b4; stroke: #1f77b4"/>
     <use xlink:href="#m3860591d3e" x="183.138529" y="218.977104" style="fill: #1f77b4; stroke: #1f77b4"/>
     <use xlink:href="#m3860591d3e" x="184.769959" y="216.949013" style="fill: #1f77b4; stroke: #1f77b4"/>
     <use xlink:href="#m3860591d3e" x="186.401389" y="222.292435" style="fill: #1f77b4; stroke: #1f77b4"/>
     <use xlink:href="#m3860591d3e" x="188.032819" y="218.630856" style="fill: #1f77b4; stroke: #1f77b4"/>
     <use xlink:href="#m3860591d3e" x="189.664249" y="238.217227" style="fill: #1f77b4; stroke: #1f77b4"/>
     <use xlink:href="#m3860591d3e" x="191.295678" y="231.938345" style="fill: #1f77b4; stroke: #1f77b4"/>
     <use xlink:href="#m3860591d3e" x="192.927108" y="235.990739" style="fill: #1f77b4; stroke: #1f77b4"/>
     <use xlink:href="#m3860591d3e" x="194.558538" y="213.544294" style="fill: #1f77b4; stroke: #1f77b4"/>
     <use xlink:href="#m3860591d3e" x="196.189968" y="230.600366" style="fill: #1f77b4; stroke: #1f77b4"/>
     <use xlink:href="#m3860591d3e" x="197.821398" y="233.899268" style="fill: #1f77b4; stroke: #1f77b4"/>
     <use xlink:href="#m3860591d3e" x="199.452828" y="243.023177" style="fill: #1f77b4; stroke: #1f77b4"/>
     <use xlink:href="#m3860591d3e" x="201.084258" y="226.865936" style="fill: #1f77b4; stroke: #1f77b4"/>
     <use xlink:href="#m3860591d3e" x="202.715688" y="227.393534" style="fill: #1f77b4; stroke: #1f77b4"/>
     <use xlink:href="#m3860591d3e" x="204.347117" y="236.174664" style="fill: #1f77b4; stroke: #1f77b4"/>
     <use xlink:href="#m3860591d3e" x="205.978547" y="234.795673" style="fill: #1f77b4; stroke: #1f77b4"/>
     <use xlink:href="#m3860591d3e" x="207.609977" y="244.630073" style="fill: #1f77b4; stroke: #1f77b4"/>
     <use xlink:href="#m3860591d3e" x="209.241407" y="238.271743" style="fill: #1f77b4; stroke: #1f77b4"/>
     <use xlink:href="#m3860591d3e" x="210.872837" y="238.46848" style="fill: #1f77b4; stroke: #1f77b4"/>
     <use xlink:href="#m3860591d3e" x="212.504267" y="235.582558" style="fill: #1f77b4; stroke: #1f77b4"/>
     <use xlink:href="#m3860591d3e" x="214.135697" y="239.184195" style="fill: #1f77b4; stroke: #1f77b4"/>
     <use xlink:href="#m3860591d3e" x="215.767127" y="237.861593" style="fill: #1f77b4; stroke: #1f77b4"/>
     <use xlink:href="#m3860591d3e" x="217.398556" y="230.438746" style="fill: #1f77b4; stroke: #1f77b4"/>
     <use xlink:href="#m3860591d3e" x="219.029986" y="237.429725" style="fill: #1f77b4; stroke: #1f77b4"/>
     <use xlink:href="#m3860591d3e" x="220.661416" y="245.22967" style="fill: #1f77b4; stroke: #1f77b4"/>
     <use xlink:href="#m3860591d3e" x="222.292846" y="229.034535" style="fill: #1f77b4; stroke: #1f77b4"/>
     <use xlink:href="#m3860591d3e" x="223.924276" y="238.256217" style="fill: #1f77b4; stroke: #1f77b4"/>
     <use xlink:href="#m3860591d3e" x="225.555706" y="254.285474" style="fill: #1f77b4; stroke: #1f77b4"/>
     <use xlink:href="#m3860591d3e" x="227.187136" y="243.069137" style="fill: #1f77b4; stroke: #1f77b4"/>
     <use xlink:href="#m3860591d3e" x="228.818566" y="236.665783" style="fill: #1f77b4; stroke: #1f77b4"/>
     <use xlink:href="#m3860591d3e" x="230.449995" y="245.391174" style="fill: #1f77b4; stroke: #1f77b4"/>
     <use xlink:href="#m3860591d3e" x="232.081425" y="240.0693" style="fill: #1f77b4; stroke: #1f77b4"/>
     <use xlink:href="#m3860591d3e" x="233.712855" y="242.626308" style="fill: #1f77b4; stroke: #1f77b4"/>
     <use xlink:href="#m3860591d3e" x="235.344285" y="238.468639" style="fill: #1f77b4; stroke: #1f77b4"/>
     <use xlink:href="#m3860591d3e" x="236.975715" y="240.901687" style="fill: #1f77b4; stroke: #1f77b4"/>
     <use xlink:href="#m3860591d3e" x="238.607145" y="252.799964" style="fill: #1f77b4; stroke: #1f77b4"/>
     <use xlink:href="#m3860591d3e" x="240.238575" y="238.279862" style="fill: #1f77b4; stroke: #1f77b4"/>
     <use xlink:href="#m3860591d3e" x="241.870005" y="227.942755" style="fill: #1f77b4; stroke: #1f77b4"/>
     <use xlink:href="#m3860591d3e" x="243.501434" y="229.981019" style="fill: #1f77b4; stroke: #1f77b4"/>
     <use xlink:href="#m3860591d3e" x="245.132864" y="243.274334" style="fill: #1f77b4; stroke: #1f77b4"/>
     <use xlink:href="#m3860591d3e" x="246.764294" y="238.483878" style="fill: #1f77b4; stroke: #1f77b4"/>
     <use xlink:href="#m3860591d3e" x="248.395724" y="250.059722" style="fill: #1f77b4; stroke: #1f77b4"/>
     <use xlink:href="#m3860591d3e" x="250.027154" y="257.324301" style="fill: #1f77b4; stroke: #1f77b4"/>
     <use xlink:href="#m3860591d3e" x="251.658584" y="245.773102" style="fill: #1f77b4; stroke: #1f77b4"/>
     <use xlink:href="#m3860591d3e" x="253.290014" y="243.788885" style="fill: #1f77b4; stroke: #1f77b4"/>
     <use xlink:href="#m3860591d3e" x="254.921444" y="254.765644" style="fill: #1f77b4; stroke: #1f77b4"/>
     <use xlink:href="#m3860591d3e" x="256.552873" y="257.678382" style="fill: #1f77b4; stroke: #1f77b4"/>
     <use xlink:href="#m3860591d3e" x="258.184303" y="257.913406" style="fill: #1f77b4; stroke: #1f77b4"/>
     <use xlink:href="#m3860591d3e" x="259.815733" y="243.676949" style="fill: #1f77b4; stroke: #1f77b4"/>
     <use xlink:href="#m3860591d3e" x="261.447163" y="246.466364" style="fill: #1f77b4; stroke: #1f77b4"/>
     <use xlink:href="#m3860591d3e" x="263.078593" y="256.114902" style="fill: #1f77b4; stroke: #1f77b4"/>
     <use xlink:href="#m3860591d3e" x="264.710023" y="257.590835" style="fill: #1f77b4; stroke: #1f77b4"/>
     <use xlink:href="#m3860591d3e" x="266.341453" y="256.96655" style="fill: #1f77b4; stroke: #1f77b4"/>
     <use xlink:href="#m3860591d3e" x="267.972883" y="265.087864" style="fill: #1f77b4; stroke: #1f77b4"/>
     <use xlink:href="#m3860591d3e" x="269.604312" y="263.22432" style="fill: #1f77b4; stroke: #1f77b4"/>
     <use xlink:href="#m3860591d3e" x="271.235742" y="234.209059" style="fill: #1f77b4; stroke: #1f77b4"/>
     <use xlink:href="#m3860591d3e" x="272.867172" y="255.338191" style="fill: #1f77b4; stroke: #1f77b4"/>
     <use xlink:href="#m3860591d3e" x="274.498602" y="255.930509" style="fill: #1f77b4; stroke: #1f77b4"/>
     <use xlink:href="#m3860591d3e" x="276.130032" y="268.314638" style="fill: #1f77b4; stroke: #1f77b4"/>
     <use xlink:href="#m3860591d3e" x="277.761462" y="258.005347" style="fill: #1f77b4; stroke: #1f77b4"/>
     <use xlink:href="#m3860591d3e" x="279.392892" y="258.436109" style="fill: #1f77b4; stroke: #1f77b4"/>
     <use xlink:href="#m3860591d3e" x="281.024322" y="259.778493" style="fill: #1f77b4; stroke: #1f77b4"/>
     <use xlink:href="#m3860591d3e" x="282.655751" y="266.637914" style="fill: #1f77b4; stroke: #1f77b4"/>
     <use xlink:href="#m3860591d3e" x="284.287181" y="267.047031" style="fill: #1f77b4; stroke: #1f77b4"/>
     <use xlink:href="#m3860591d3e" x="285.918611" y="249.856962" style="fill: #1f77b4; stroke: #1f77b4"/>
     <use xlink:href="#m3860591d3e" x="287.550041" y="271.134201" style="fill: #1f77b4; stroke: #1f77b4"/>
     <use xlink:href="#m3860591d3e" x="289.181471" y="266.36225" style="fill: #1f77b4; stroke: #1f77b4"/>
     <use xlink:href="#m3860591d3e" x="290.812901" y="275.381501" style="fill: #1f77b4; stroke: #1f77b4"/>
     <use xlink:href="#m3860591d3e" x="292.444331" y="262.584147" style="fill: #1f77b4; stroke: #1f77b4"/>
     <use xlink:href="#m3860591d3e" x="294.075761" y="257.702431" style="fill: #1f77b4; stroke: #1f77b4"/>
     <use xlink:href="#m3860591d3e" x="295.70719" y="261.526217" style="fill: #1f77b4; stroke: #1f77b4"/>
     <use xlink:href="#m3860591d3e" x="297.33862" y="257.988247" style="fill: #1f77b4; stroke: #1f77b4"/>
     <use xlink:href="#m3860591d3e" x="298.97005" y="269.209607" style="fill: #1f77b4; stroke: #1f77b4"/>
     <use xlink:href="#m3860591d3e" x="300.60148" y="252.318752" style="fill: #1f77b4; stroke: #1f77b4"/>
     <use xlink:href="#m3860591d3e" x="302.23291" y="265.606055" style="fill: #1f77b4; stroke: #1f77b4"/>
     <use xlink:href="#m3860591d3e" x="303.86434" y="253.853234" style="fill: #1f77b4; stroke: #1f77b4"/>
     <use xlink:href="#m3860591d3e" x="305.49577" y="265.952633" style="fill: #1f77b4; stroke: #1f77b4"/>
     <use xlink:href="#m3860591d3e" x="307.1272" y="251.083111" style="fill: #1f77b4; stroke: #1f77b4"/>
     <use xlink:href="#m3860591d3e" x="308.75863" y="269.606657" style="fill: #1f77b4; stroke: #1f77b4"/>
     <use xlink:href="#m3860591d3e" x="310.390059" y="271.324723" style="fill: #1f77b4; stroke: #1f77b4"/>
     <use xlink:href="#m3860591d3e" x="312.021489" y="268.667878" style="fill: #1f77b4; stroke: #1f77b4"/>
     <use xlink:href="#m3860591d3e" x="313.652919" y="278.726171" style="fill: #1f77b4; stroke: #1f77b4"/>
     <use xlink:href="#m3860591d3e" x="315.284349" y="266.095046" style="fill: #1f77b4; stroke: #1f77b4"/>
     <use xlink:href="#m3860591d3e" x="316.915779" y="268.350329" style="fill: #1f77b4; stroke: #1f77b4"/>
     <use xlink:href="#m3860591d3e" x="318.547209" y="269.318798" style="fill: #1f77b4; stroke: #1f77b4"/>
     <use xlink:href="#m3860591d3e" x="320.178639" y="264.439838" style="fill: #1f77b4; stroke: #1f77b4"/>
     <use xlink:href="#m3860591d3e" x="321.810069" y="275.765717" style="fill: #1f77b4; stroke: #1f77b4"/>
     <use xlink:href="#m3860591d3e" x="323.441498" y="279.176906" style="fill: #1f77b4; stroke: #1f77b4"/>
     <use xlink:href="#m3860591d3e" x="325.072928" y="275.03305" style="fill: #1f77b4; stroke: #1f77b4"/>
     <use xlink:href="#m3860591d3e" x="326.704358" y="275.437315" style="fill: #1f77b4; stroke: #1f77b4"/>
     <use xlink:href="#m3860591d3e" x="328.335788" y="272.312059" style="fill: #1f77b4; stroke: #1f77b4"/>
     <use xlink:href="#m3860591d3e" x="329.967218" y="251.976314" style="fill: #1f77b4; stroke: #1f77b4"/>
     <use xlink:href="#m3860591d3e" x="331.598648" y="269.122114" style="fill: #1f77b4; stroke: #1f77b4"/>
     <use xlink:href="#m3860591d3e" x="333.230078" y="274.964648" style="fill: #1f77b4; stroke: #1f77b4"/>
     <use xlink:href="#m3860591d3e" x="334.861508" y="279.625748" style="fill: #1f77b4; stroke: #1f77b4"/>
     <use xlink:href="#m3860591d3e" x="336.492937" y="264.961881" style="fill: #1f77b4; stroke: #1f77b4"/>
     <use xlink:href="#m3860591d3e" x="338.124367" y="262.017262" style="fill: #1f77b4; stroke: #1f77b4"/>
     <use xlink:href="#m3860591d3e" x="339.755797" y="259.402109" style="fill: #1f77b4; stroke: #1f77b4"/>
     <use xlink:href="#m3860591d3e" x="341.387227" y="265.174101" style="fill: #1f77b4; stroke: #1f77b4"/>
     <use xlink:href="#m3860591d3e" x="343.018657" y="278.455966" style="fill: #1f77b4; stroke: #1f77b4"/>
     <use xlink:href="#m3860591d3e" x="344.650087" y="278.882216" style="fill: #1f77b4; stroke: #1f77b4"/>
     <use xlink:href="#m3860591d3e" x="346.281517" y="279.619703" style="fill: #1f77b4; stroke: #1f77b4"/>
     <use xlink:href="#m3860591d3e" x="347.912947" y="281.187567" style="fill: #1f77b4; stroke: #1f77b4"/>
     <use xlink:href="#m3860591d3e" x="349.544376" y="273.302055" style="fill: #1f77b4; stroke: #1f77b4"/>
     <use xlink:href="#m3860591d3e" x="351.175806" y="270.054296" style="fill: #1f77b4; stroke: #1f77b4"/>
     <use xlink:href="#m3860591d3e" x="352.807236" y="255.776571" style="fill: #1f77b4; stroke: #1f77b4"/>
     <use xlink:href="#m3860591d3e" x="354.438666" y="270.954383" style="fill: #1f77b4; stroke: #1f77b4"/>
     <use xlink:href="#m3860591d3e" x="356.070096" y="269.177013" style="fill: #1f77b4; stroke: #1f77b4"/>
     <use xlink:href="#m3860591d3e" x="357.701526" y="288.551866" style="fill: #1f77b4; stroke: #1f77b4"/>
     <use xlink:href="#m3860591d3e" x="359.332956" y="288.134534" style="fill: #1f77b4; stroke: #1f77b4"/>
     <use xlink:href="#m3860591d3e" x="360.964386" y="285.00766" style="fill: #1f77b4; stroke: #1f77b4"/>
     <use xlink:href="#m3860591d3e" x="362.595815" y="281.858206" style="fill: #1f77b4; stroke: #1f77b4"/>
     <use xlink:href="#m3860591d3e" x="364.227245" y="276.058599" style="fill: #1f77b4; stroke: #1f77b4"/>
     <use xlink:href="#m3860591d3e" x="365.858675" y="263.30595" style="fill: #1f77b4; stroke: #1f77b4"/>
     <use xlink:href="#m3860591d3e" x="367.490105" y="284.43639" style="fill: #1f77b4; stroke: #1f77b4"/>
     <use xlink:href="#m3860591d3e" x="369.121535" y="291.938686" style="fill: #1f77b4; stroke: #1f77b4"/>
     <use xlink:href="#m3860591d3e" x="370.752965" y="270.299185" style="fill: #1f77b4; stroke: #1f77b4"/>
     <use xlink:href="#m3860591d3e" x="372.384395" y="295.488" style="fill: #1f77b4; stroke: #1f77b4"/>
     <use xlink:href="#m3860591d3e" x="374.015825" y="280.735746" style="fill: #1f77b4; stroke: #1f77b4"/>
     <use xlink:href="#m3860591d3e" x="375.647254" y="268.886759" style="fill: #1f77b4; stroke: #1f77b4"/>
     <use xlink:href="#m3860591d3e" x="377.278684" y="278.198137" style="fill: #1f77b4; stroke: #1f77b4"/>
     <use xlink:href="#m3860591d3e" x="378.910114" y="267.888059" style="fill: #1f77b4; stroke: #1f77b4"/>
     <use xlink:href="#m3860591d3e" x="380.541544" y="287.625516" style="fill: #1f77b4; stroke: #1f77b4"/>
     <use xlink:href="#m3860591d3e" x="382.172974" y="282.102148" style="fill: #1f77b4; stroke: #1f77b4"/>
     <use xlink:href="#m3860591d3e" x="383.804404" y="269.886822" style="fill: #1f77b4; stroke: #1f77b4"/>
     <use xlink:href="#m3860591d3e" x="385.435834" y="283.943952" style="fill: #1f77b4; stroke: #1f77b4"/>
     <use xlink:href="#m3860591d3e" x="387.067264" y="281.543084" style="fill: #1f77b4; stroke: #1f77b4"/>
     <use xlink:href="#m3860591d3e" x="388.698693" y="288.670304" style="fill: #1f77b4; stroke: #1f77b4"/>
     <use xlink:href="#m3860591d3e" x="390.330123" y="284.236269" style="fill: #1f77b4; stroke: #1f77b4"/>
     <use xlink:href="#m3860591d3e" x="391.961553" y="263.603035" style="fill: #1f77b4; stroke: #1f77b4"/>
     <use xlink:href="#m3860591d3e" x="393.592983" y="273.777872" style="fill: #1f77b4; stroke: #1f77b4"/>
     <use xlink:href="#m3860591d3e" x="395.224413" y="286.124107" style="fill: #1f77b4; stroke: #1f77b4"/>
     <use xlink:href="#m3860591d3e" x="396.855843" y="283.686027" style="fill: #1f77b4; stroke: #1f77b4"/>
     <use xlink:href="#m3860591d3e" x="398.487273" y="279.204776" style="fill: #1f77b4; stroke: #1f77b4"/>
    </g>
   </g>
   <g id="line2d_32">
    <path d="M 73.832727 165.1341 
L 78.727017 169.048243 
L 83.621307 172.669597 
L 88.515596 175.998163 
L 93.409886 179.033941 
L 98.304175 181.776931 
L 103.198465 184.227134 
L 104.829895 184.978804 
L 108.092755 185.467815 
L 111.355614 186.083381 
L 112.987044 187.60088 
L 114.618474 188.260964 
L 117.881334 190.104798 
L 119.512764 191.313702 
L 121.144194 191.483278 
L 122.775624 192.353183 
L 124.407053 193.360335 
L 126.038483 193.349642 
L 127.669913 193.104849 
L 129.301343 193.256247 
L 130.932773 193.632458 
L 132.564203 194.692393 
L 134.195633 194.753108 
L 139.089922 198.305075 
L 142.352782 199.756066 
L 143.984212 200.939117 
L 145.615642 203.019226 
L 147.247072 204.676236 
L 148.878502 206.525261 
L 150.509931 207.240828 
L 152.141361 208.223133 
L 153.772791 208.371157 
L 155.404221 209.56524 
L 157.035651 209.391482 
L 158.667081 210.030656 
L 160.298511 210.513123 
L 161.929941 211.729655 
L 165.1928 213.571566 
L 166.82423 212.594978 
L 168.45566 213.946117 
L 170.08709 215.022264 
L 173.34995 216.746555 
L 174.98138 217.777228 
L 176.61281 219.056575 
L 178.244239 219.476603 
L 179.875669 220.468709 
L 183.138529 223.209464 
L 184.769959 224.08887 
L 186.401389 225.240101 
L 188.032819 225.526559 
L 189.664249 226.314722 
L 191.295678 227.312605 
L 192.927108 227.91867 
L 194.558538 228.798333 
L 196.189968 230.140161 
L 197.821398 230.167094 
L 199.452828 231.787076 
L 201.084258 232.266853 
L 202.715688 233.373791 
L 204.347117 234.145911 
L 205.978547 235.07825 
L 207.609977 236.582305 
L 209.241407 237.89876 
L 210.872837 238.583275 
L 212.504267 238.906629 
L 214.135697 239.069434 
L 215.767127 238.989445 
L 217.398556 238.552266 
L 219.029986 238.722535 
L 220.661416 238.732702 
L 222.292846 239.076216 
L 223.924276 239.201376 
L 225.555706 239.591311 
L 227.187136 239.629631 
L 228.818566 240.071208 
L 230.449995 240.284735 
L 232.081425 240.898625 
L 233.712855 241.002251 
L 235.344285 240.842839 
L 236.975715 241.16405 
L 238.607145 242.484028 
L 240.238575 243.336664 
L 241.870005 243.99926 
L 243.501434 244.297932 
L 245.132864 244.95578 
L 248.395724 246.496595 
L 250.027154 246.718108 
L 251.658584 247.225706 
L 253.290014 248.69075 
L 254.921444 248.733804 
L 256.552873 249.321945 
L 258.184303 250.317058 
L 264.710023 254.988121 
L 266.341453 255.785341 
L 267.972883 256.999245 
L 269.604312 257.708214 
L 271.235742 259.277253 
L 274.498602 260.303794 
L 276.130032 259.968175 
L 277.761462 259.998773 
L 281.024322 259.864056 
L 282.655751 260.645475 
L 284.287181 260.900128 
L 285.918611 260.978517 
L 287.550041 261.602261 
L 290.812901 262.284679 
L 294.075761 262.306186 
L 295.70719 262.798416 
L 297.33862 264.028447 
L 298.97005 264.494311 
L 300.60148 265.090099 
L 302.23291 265.557737 
L 303.86434 265.402063 
L 307.1272 266.453346 
L 308.75863 267.14838 
L 312.021489 266.861796 
L 313.652919 266.805793 
L 315.284349 267.033835 
L 316.915779 267.656874 
L 318.547209 267.701685 
L 320.178639 268.963405 
L 321.810069 269.436573 
L 323.441498 270.362176 
L 326.704358 269.949336 
L 329.967218 270.157717 
L 331.598648 270.927059 
L 333.230078 271.437612 
L 334.861508 271.566843 
L 336.492937 271.017037 
L 338.124367 271.705217 
L 339.755797 270.848266 
L 341.387227 271.258794 
L 343.018657 272.157976 
L 344.650087 272.567049 
L 346.281517 273.731843 
L 347.912947 273.699635 
L 349.544376 273.993299 
L 351.175806 274.742125 
L 352.807236 274.724084 
L 357.701526 276.366936 
L 359.332956 277.761864 
L 360.964386 278.575937 
L 362.595815 278.072674 
L 364.227245 278.239849 
L 365.858675 278.796701 
L 367.490105 278.936591 
L 372.384395 279.622102 
L 377.278684 280.043911 
L 382.172974 280.202015 
L 387.067264 280.096417 
L 391.961553 279.727115 
L 396.855843 279.094109 
L 398.487273 278.824507 
L 398.487273 278.824507 
" clip-path="url(#pda06df4913)" style="fill: none; stroke-dasharray: 5.55,2.4; stroke-dashoffset: 0; stroke: #1f77b4; stroke-width: 1.5"/>
   </g>
   <g id="line2d_33">
    <path d="M 73.832727 148.31635 
L 75.464157 128.452814 
L 77.095587 165.837151 
L 78.727017 128.366172 
L 80.358447 176.577672 
L 81.989877 106.783208 
L 83.621307 160.065776 
L 85.252736 53.568 
L 86.884166 148.197252 
L 88.515596 148.981646 
L 90.147026 148.711505 
L 91.778456 137.472395 
L 93.409886 149.970951 
L 95.041316 60.838677 
L 96.672746 150.443256 
L 98.304175 138.801414 
L 99.935605 147.382082 
L 101.567035 182.961286 
L 103.198465 167.532104 
L 104.829895 135.509621 
L 106.461325 135.639679 
L 108.092755 165.727545 
L 109.724185 112.141635 
L 111.355614 182.130431 
L 112.987044 157.826156 
L 114.618474 95.301773 
L 116.249904 159.629779 
L 117.881334 131.621146 
L 119.512764 176.824657 
L 121.144194 94.443634 
L 122.775624 167.214652 
L 124.407053 157.708953 
L 126.038483 142.007119 
L 127.669913 124.681735 
L 129.301343 61.778733 
L 130.932773 186.793744 
L 132.564203 131.255063 
L 134.195633 181.94259 
L 135.827063 158.902379 
L 137.458492 183.515359 
L 139.089922 131.391761 
L 140.721352 183.603001 
L 142.352782 183.513146 
L 143.984212 154.389513 
L 145.615642 116.121476 
L 147.247072 133.632403 
L 148.878502 179.848757 
L 150.509931 80.60942 
L 152.141361 174.083192 
L 153.772791 114.650672 
L 155.404221 137.955448 
L 157.035651 191.420728 
L 158.667081 174.527723 
L 160.298511 166.92625 
L 161.929941 173.135687 
L 163.56137 153.661113 
L 165.1928 199.249926 
L 166.82423 166.480356 
L 168.45566 141.850882 
L 170.08709 126.894517 
L 171.71852 147.069929 
L 173.34995 203.444297 
L 174.98138 168.196656 
L 176.61281 119.478395 
L 178.244239 175.103186 
L 179.875669 179.062425 
L 181.507099 158.149079 
L 183.138529 105.178664 
L 184.769959 188.736215 
L 186.401389 140.561982 
L 188.032819 192.767645 
L 189.664249 185.431099 
L 191.295678 176.4006 
L 192.927108 181.737574 
L 194.558538 179.90639 
L 196.189968 209.816844 
L 197.821398 156.281821 
L 199.452828 166.650214 
L 201.084258 193.619357 
L 202.715688 165.855178 
L 204.347117 155.431961 
L 205.978547 193.292349 
L 207.609977 154.233767 
L 209.241407 202.462143 
L 212.504267 182.797111 
L 214.135697 173.419853 
L 215.767127 156.381062 
L 217.398556 176.877992 
L 219.029986 139.274528 
L 220.661416 211.305972 
L 222.292846 192.457982 
L 223.924276 185.274012 
L 225.555706 193.969053 
L 227.187136 177.85127 
L 228.818566 204.07784 
L 230.449995 184.81073 
L 232.081425 181.823194 
L 233.712855 163.254859 
L 235.344285 180.220416 
L 236.975715 202.221223 
L 238.607145 201.205613 
L 240.238575 189.708004 
L 241.870005 171.669693 
L 243.501434 175.283429 
L 245.132864 171.340449 
L 246.764294 180.2978 
L 248.395724 192.947165 
L 250.027154 188.544522 
L 251.658584 133.360367 
L 253.290014 187.374379 
L 254.921444 221.083111 
L 256.552873 191.16574 
L 258.184303 193.227884 
L 259.815733 209.241445 
L 261.447163 223.344162 
L 263.078593 150.240986 
L 264.710023 189.785196 
L 266.341453 204.038509 
L 267.972883 208.045145 
L 269.604312 207.208033 
L 271.235742 177.339826 
L 272.867172 187.448166 
L 276.130032 220.637749 
L 277.761462 205.150743 
L 279.392892 207.849196 
L 281.024322 204.142646 
L 282.655751 204.03902 
L 284.287181 201.127421 
L 285.918611 218.067588 
L 287.550041 207.369271 
L 289.181471 206.979308 
L 290.812901 201.983623 
L 292.444331 176.488689 
L 294.075761 205.865692 
L 295.70719 154.298913 
L 297.33862 182.983079 
L 298.97005 188.104992 
L 300.60148 157.744495 
L 302.23291 191.745481 
L 303.86434 204.301031 
L 305.49577 175.281343 
L 307.1272 205.88308 
L 308.75863 203.813317 
L 310.390059 180.671247 
L 312.021489 211.556703 
L 313.652919 212.559671 
L 315.284349 165.886378 
L 316.915779 175.852507 
L 318.547209 178.441631 
L 321.810069 216.512356 
L 323.441498 198.369376 
L 325.072928 226.083073 
L 326.704358 198.473449 
L 328.335788 202.624083 
L 329.967218 220.127731 
L 331.598648 221.47086 
L 333.230078 210.177522 
L 334.861508 229.90255 
L 336.492937 198.593057 
L 338.124367 207.147484 
L 339.755797 183.43706 
L 341.387227 222.299948 
L 343.018657 230.863952 
L 344.650087 214.142231 
L 346.281517 229.690702 
L 347.912947 192.956338 
L 349.544376 193.573663 
L 351.175806 198.673953 
L 352.807236 230.603835 
L 354.438666 147.003144 
L 356.070096 222.519564 
L 357.701526 218.164424 
L 359.332956 213.105296 
L 360.964386 194.686727 
L 362.595815 205.679149 
L 364.227245 219.118953 
L 365.858675 161.083642 
L 367.490105 239.640464 
L 369.121535 183.359591 
L 370.752965 187.098981 
L 372.384395 206.800044 
L 374.015825 209.517992 
L 375.647254 205.628007 
L 377.278684 204.907801 
L 378.910114 188.226793 
L 380.541544 208.198402 
L 382.172974 184.88456 
L 383.804404 220.834657 
L 385.435834 215.651514 
L 387.067264 214.484775 
L 388.698693 178.658544 
L 390.330123 202.552169 
L 391.961553 193.217157 
L 393.592983 224.93832 
L 395.224413 202.427495 
L 396.855843 200.975292 
L 398.487273 180.354029 
L 398.487273 180.354029 
" clip-path="url(#pda06df4913)" style="fill: none; stroke: #ff7f0e; stroke-width: 1.5; stroke-linecap: square"/>
    <defs>
     <path id="m6b33974e45" d="M 0 1.5 
C 0.397805 1.5 0.77937 1.341951 1.06066 1.06066 
C 1.341951 0.77937 1.5 0.397805 1.5 0 
C 1.5 -0.397805 1.341951 -0.77937 1.06066 -1.06066 
C 0.77937 -1.341951 0.397805 -1.5 0 -1.5 
C -0.397805 -1.5 -0.77937 -1.341951 -1.06066 -1.06066 
C -1.341951 -0.77937 -1.5 -0.397805 -1.5 0 
C -1.5 0.397805 -1.341951 0.77937 -1.06066 1.06066 
C -0.77937 1.341951 -0.397805 1.5 0 1.5 
z
" style="stroke: #ff7f0e"/>
    </defs>
    <g clip-path="url(#pda06df4913)">
     <use xlink:href="#m6b33974e45" x="73.832727" y="148.31635" style="fill: #ff7f0e; stroke: #ff7f0e"/>
     <use xlink:href="#m6b33974e45" x="75.464157" y="128.452814" style="fill: #ff7f0e; stroke: #ff7f0e"/>
     <use xlink:href="#m6b33974e45" x="77.095587" y="165.837151" style="fill: #ff7f0e; stroke: #ff7f0e"/>
     <use xlink:href="#m6b33974e45" x="78.727017" y="128.366172" style="fill: #ff7f0e; stroke: #ff7f0e"/>
     <use xlink:href="#m6b33974e45" x="80.358447" y="176.577672" style="fill: #ff7f0e; stroke: #ff7f0e"/>
     <use xlink:href="#m6b33974e45" x="81.989877" y="106.783208" style="fill: #ff7f0e; stroke: #ff7f0e"/>
     <use xlink:href="#m6b33974e45" x="83.621307" y="160.065776" style="fill: #ff7f0e; stroke: #ff7f0e"/>
     <use xlink:href="#m6b33974e45" x="85.252736" y="53.568" style="fill: #ff7f0e; stroke: #ff7f0e"/>
     <use xlink:href="#m6b33974e45" x="86.884166" y="148.197252" style="fill: #ff7f0e; stroke: #ff7f0e"/>
     <use xlink:href="#m6b33974e45" x="88.515596" y="148.981646" style="fill: #ff7f0e; stroke: #ff7f0e"/>
     <use xlink:href="#m6b33974e45" x="90.147026" y="148.711505" style="fill: #ff7f0e; stroke: #ff7f0e"/>
     <use xlink:href="#m6b33974e45" x="91.778456" y="137.472395" style="fill: #ff7f0e; stroke: #ff7f0e"/>
     <use xlink:href="#m6b33974e45" x="93.409886" y="149.970951" style="fill: #ff7f0e; stroke: #ff7f0e"/>
     <use xlink:href="#m6b33974e45" x="95.041316" y="60.838677" style="fill: #ff7f0e; stroke: #ff7f0e"/>
     <use xlink:href="#m6b33974e45" x="96.672746" y="150.443256" style="fill: #ff7f0e; stroke: #ff7f0e"/>
     <use xlink:href="#m6b33974e45" x="98.304175" y="138.801414" style="fill: #ff7f0e; stroke: #ff7f0e"/>
     <use xlink:href="#m6b33974e45" x="99.935605" y="147.382082" style="fill: #ff7f0e; stroke: #ff7f0e"/>
     <use xlink:href="#m6b33974e45" x="101.567035" y="182.961286" style="fill: #ff7f0e; stroke: #ff7f0e"/>
     <use xlink:href="#m6b33974e45" x="103.198465" y="167.532104" style="fill: #ff7f0e; stroke: #ff7f0e"/>
     <use xlink:href="#m6b33974e45" x="104.829895" y="135.509621" style="fill: #ff7f0e; stroke: #ff7f0e"/>
     <use xlink:href="#m6b33974e45" x="106.461325" y="135.639679" style="fill: #ff7f0e; stroke: #ff7f0e"/>
     <use xlink:href="#m6b33974e45" x="108.092755" y="165.727545" style="fill: #ff7f0e; stroke: #ff7f0e"/>
     <use xlink:href="#m6b33974e45" x="109.724185" y="112.141635" style="fill: #ff7f0e; stroke: #ff7f0e"/>
     <use xlink:href="#m6b33974e45" x="111.355614" y="182.130431" style="fill: #ff7f0e; stroke: #ff7f0e"/>
     <use xlink:href="#m6b33974e45" x="112.987044" y="157.826156" style="fill: #ff7f0e; stroke: #ff7f0e"/>
     <use xlink:href="#m6b33974e45" x="114.618474" y="95.301773" style="fill: #ff7f0e; stroke: #ff7f0e"/>
     <use xlink:href="#m6b33974e45" x="116.249904" y="159.629779" style="fill: #ff7f0e; stroke: #ff7f0e"/>
     <use xlink:href="#m6b33974e45" x="117.881334" y="131.621146" style="fill: #ff7f0e; stroke: #ff7f0e"/>
     <use xlink:href="#m6b33974e45" x="119.512764" y="176.824657" style="fill: #ff7f0e; stroke: #ff7f0e"/>
     <use xlink:href="#m6b33974e45" x="121.144194" y="94.443634" style="fill: #ff7f0e; stroke: #ff7f0e"/>
     <use xlink:href="#m6b33974e45" x="122.775624" y="167.214652" style="fill: #ff7f0e; stroke: #ff7f0e"/>
     <use xlink:href="#m6b33974e45" x="124.407053" y="157.708953" style="fill: #ff7f0e; stroke: #ff7f0e"/>
     <use xlink:href="#m6b33974e45" x="126.038483" y="142.007119" style="fill: #ff7f0e; stroke: #ff7f0e"/>
     <use xlink:href="#m6b33974e45" x="127.669913" y="124.681735" style="fill: #ff7f0e; stroke: #ff7f0e"/>
     <use xlink:href="#m6b33974e45" x="129.301343" y="61.778733" style="fill: #ff7f0e; stroke: #ff7f0e"/>
     <use xlink:href="#m6b33974e45" x="130.932773" y="186.793744" style="fill: #ff7f0e; stroke: #ff7f0e"/>
     <use xlink:href="#m6b33974e45" x="132.564203" y="131.255063" style="fill: #ff7f0e; stroke: #ff7f0e"/>
     <use xlink:href="#m6b33974e45" x="134.195633" y="181.94259" style="fill: #ff7f0e; stroke: #ff7f0e"/>
     <use xlink:href="#m6b33974e45" x="135.827063" y="158.902379" style="fill: #ff7f0e; stroke: #ff7f0e"/>
     <use xlink:href="#m6b33974e45" x="137.458492" y="183.515359" style="fill: #ff7f0e; stroke: #ff7f0e"/>
     <use xlink:href="#m6b33974e45" x="139.089922" y="131.391761" style="fill: #ff7f0e; stroke: #ff7f0e"/>
     <use xlink:href="#m6b33974e45" x="140.721352" y="183.603001" style="fill: #ff7f0e; stroke: #ff7f0e"/>
     <use xlink:href="#m6b33974e45" x="142.352782" y="183.513146" style="fill: #ff7f0e; stroke: #ff7f0e"/>
     <use xlink:href="#m6b33974e45" x="143.984212" y="154.389513" style="fill: #ff7f0e; stroke: #ff7f0e"/>
     <use xlink:href="#m6b33974e45" x="145.615642" y="116.121476" style="fill: #ff7f0e; stroke: #ff7f0e"/>
     <use xlink:href="#m6b33974e45" x="147.247072" y="133.632403" style="fill: #ff7f0e; stroke: #ff7f0e"/>
     <use xlink:href="#m6b33974e45" x="148.878502" y="179.848757" style="fill: #ff7f0e; stroke: #ff7f0e"/>
     <use xlink:href="#m6b33974e45" x="150.509931" y="80.60942" style="fill: #ff7f0e; stroke: #ff7f0e"/>
     <use xlink:href="#m6b33974e45" x="152.141361" y="174.083192" style="fill: #ff7f0e; stroke: #ff7f0e"/>
     <use xlink:href="#m6b33974e45" x="153.772791" y="114.650672" style="fill: #ff7f0e; stroke: #ff7f0e"/>
     <use xlink:href="#m6b33974e45" x="155.404221" y="137.955448" style="fill: #ff7f0e; stroke: #ff7f0e"/>
     <use xlink:href="#m6b33974e45" x="157.035651" y="191.420728" style="fill: #ff7f0e; stroke: #ff7f0e"/>
     <use xlink:href="#m6b33974e45" x="158.667081" y="174.527723" style="fill: #ff7f0e; stroke: #ff7f0e"/>
     <use xlink:href="#m6b33974e45" x="160.298511" y="166.92625" style="fill: #ff7f0e; stroke: #ff7f0e"/>
     <use xlink:href="#m6b33974e45" x="161.929941" y="173.135687" style="fill: #ff7f0e; stroke: #ff7f0e"/>
     <use xlink:href="#m6b33974e45" x="163.56137" y="153.661113" style="fill: #ff7f0e; stroke: #ff7f0e"/>
     <use xlink:href="#m6b33974e45" x="165.1928" y="199.249926" style="fill: #ff7f0e; stroke: #ff7f0e"/>
     <use xlink:href="#m6b33974e45" x="166.82423" y="166.480356" style="fill: #ff7f0e; stroke: #ff7f0e"/>
     <use xlink:href="#m6b33974e45" x="168.45566" y="141.850882" style="fill: #ff7f0e; stroke: #ff7f0e"/>
     <use xlink:href="#m6b33974e45" x="170.08709" y="126.894517" style="fill: #ff7f0e; stroke: #ff7f0e"/>
     <use xlink:href="#m6b33974e45" x="171.71852" y="147.069929" style="fill: #ff7f0e; stroke: #ff7f0e"/>
     <use xlink:href="#m6b33974e45" x="173.34995" y="203.444297" style="fill: #ff7f0e; stroke: #ff7f0e"/>
     <use xlink:href="#m6b33974e45" x="174.98138" y="168.196656" style="fill: #ff7f0e; stroke: #ff7f0e"/>
     <use xlink:href="#m6b33974e45" x="176.61281" y="119.478395" style="fill: #ff7f0e; stroke: #ff7f0e"/>
     <use xlink:href="#m6b33974e45" x="178.244239" y="175.103186" style="fill: #ff7f0e; stroke: #ff7f0e"/>
     <use xlink:href="#m6b33974e45" x="179.875669" y="179.062425" style="fill: #ff7f0e; stroke: #ff7f0e"/>
     <use xlink:href="#m6b33974e45" x="181.507099" y="158.149079" style="fill: #ff7f0e; stroke: #ff7f0e"/>
     <use xlink:href="#m6b33974e45" x="183.138529" y="105.178664" style="fill: #ff7f0e; stroke: #ff7f0e"/>
     <use xlink:href="#m6b33974e45" x="184.769959" y="188.736215" style="fill: #ff7f0e; stroke: #ff7f0e"/>
     <use xlink:href="#m6b33974e45" x="186.401389" y="140.561982" style="fill: #ff7f0e; stroke: #ff7f0e"/>
     <use xlink:href="#m6b33974e45" x="188.032819" y="192.767645" style="fill: #ff7f0e; stroke: #ff7f0e"/>
     <use xlink:href="#m6b33974e45" x="189.664249" y="185.431099" style="fill: #ff7f0e; stroke: #ff7f0e"/>
     <use xlink:href="#m6b33974e45" x="191.295678" y="176.4006" style="fill: #ff7f0e; stroke: #ff7f0e"/>
     <use xlink:href="#m6b33974e45" x="192.927108" y="181.737574" style="fill: #ff7f0e; stroke: #ff7f0e"/>
     <use xlink:href="#m6b33974e45" x="194.558538" y="179.90639" style="fill: #ff7f0e; stroke: #ff7f0e"/>
     <use xlink:href="#m6b33974e45" x="196.189968" y="209.816844" style="fill: #ff7f0e; stroke: #ff7f0e"/>
     <use xlink:href="#m6b33974e45" x="197.821398" y="156.281821" style="fill: #ff7f0e; stroke: #ff7f0e"/>
     <use xlink:href="#m6b33974e45" x="199.452828" y="166.650214" style="fill: #ff7f0e; stroke: #ff7f0e"/>
     <use xlink:href="#m6b33974e45" x="201.084258" y="193.619357" style="fill: #ff7f0e; stroke: #ff7f0e"/>
     <use xlink:href="#m6b33974e45" x="202.715688" y="165.855178" style="fill: #ff7f0e; stroke: #ff7f0e"/>
     <use xlink:href="#m6b33974e45" x="204.347117" y="155.431961" style="fill: #ff7f0e; stroke: #ff7f0e"/>
     <use xlink:href="#m6b33974e45" x="205.978547" y="193.292349" style="fill: #ff7f0e; stroke: #ff7f0e"/>
     <use xlink:href="#m6b33974e45" x="207.609977" y="154.233767" style="fill: #ff7f0e; stroke: #ff7f0e"/>
     <use xlink:href="#m6b33974e45" x="209.241407" y="202.462143" style="fill: #ff7f0e; stroke: #ff7f0e"/>
     <use xlink:href="#m6b33974e45" x="210.872837" y="192.311621" style="fill: #ff7f0e; stroke: #ff7f0e"/>
     <use xlink:href="#m6b33974e45" x="212.504267" y="182.797111" style="fill: #ff7f0e; stroke: #ff7f0e"/>
     <use xlink:href="#m6b33974e45" x="214.135697" y="173.419853" style="fill: #ff7f0e; stroke: #ff7f0e"/>
     <use xlink:href="#m6b33974e45" x="215.767127" y="156.381062" style="fill: #ff7f0e; stroke: #ff7f0e"/>
     <use xlink:href="#m6b33974e45" x="217.398556" y="176.877992" style="fill: #ff7f0e; stroke: #ff7f0e"/>
     <use xlink:href="#m6b33974e45" x="219.029986" y="139.274528" style="fill: #ff7f0e; stroke: #ff7f0e"/>
     <use xlink:href="#m6b33974e45" x="220.661416" y="211.305972" style="fill: #ff7f0e; stroke: #ff7f0e"/>
     <use xlink:href="#m6b33974e45" x="222.292846" y="192.457982" style="fill: #ff7f0e; stroke: #ff7f0e"/>
     <use xlink:href="#m6b33974e45" x="223.924276" y="185.274012" style="fill: #ff7f0e; stroke: #ff7f0e"/>
     <use xlink:href="#m6b33974e45" x="225.555706" y="193.969053" style="fill: #ff7f0e; stroke: #ff7f0e"/>
     <use xlink:href="#m6b33974e45" x="227.187136" y="177.85127" style="fill: #ff7f0e; stroke: #ff7f0e"/>
     <use xlink:href="#m6b33974e45" x="228.818566" y="204.07784" style="fill: #ff7f0e; stroke: #ff7f0e"/>
     <use xlink:href="#m6b33974e45" x="230.449995" y="184.81073" style="fill: #ff7f0e; stroke: #ff7f0e"/>
     <use xlink:href="#m6b33974e45" x="232.081425" y="181.823194" style="fill: #ff7f0e; stroke: #ff7f0e"/>
     <use xlink:href="#m6b33974e45" x="233.712855" y="163.254859" style="fill: #ff7f0e; stroke: #ff7f0e"/>
     <use xlink:href="#m6b33974e45" x="235.344285" y="180.220416" style="fill: #ff7f0e; stroke: #ff7f0e"/>
     <use xlink:href="#m6b33974e45" x="236.975715" y="202.221223" style="fill: #ff7f0e; stroke: #ff7f0e"/>
     <use xlink:href="#m6b33974e45" x="238.607145" y="201.205613" style="fill: #ff7f0e; stroke: #ff7f0e"/>
     <use xlink:href="#m6b33974e45" x="240.238575" y="189.708004" style="fill: #ff7f0e; stroke: #ff7f0e"/>
     <use xlink:href="#m6b33974e45" x="241.870005" y="171.669693" style="fill: #ff7f0e; stroke: #ff7f0e"/>
     <use xlink:href="#m6b33974e45" x="243.501434" y="175.283429" style="fill: #ff7f0e; stroke: #ff7f0e"/>
     <use xlink:href="#m6b33974e45" x="245.132864" y="171.340449" style="fill: #ff7f0e; stroke: #ff7f0e"/>
     <use xlink:href="#m6b33974e45" x="246.764294" y="180.2978" style="fill: #ff7f0e; stroke: #ff7f0e"/>
     <use xlink:href="#m6b33974e45" x="248.395724" y="192.947165" style="fill: #ff7f0e; stroke: #ff7f0e"/>
     <use xlink:href="#m6b33974e45" x="250.027154" y="188.544522" style="fill: #ff7f0e; stroke: #ff7f0e"/>
     <use xlink:href="#m6b33974e45" x="251.658584" y="133.360367" style="fill: #ff7f0e; stroke: #ff7f0e"/>
     <use xlink:href="#m6b33974e45" x="253.290014" y="187.374379" style="fill: #ff7f0e; stroke: #ff7f0e"/>
     <use xlink:href="#m6b33974e45" x="254.921444" y="221.083111" style="fill: #ff7f0e; stroke: #ff7f0e"/>
     <use xlink:href="#m6b33974e45" x="256.552873" y="191.16574" style="fill: #ff7f0e; stroke: #ff7f0e"/>
     <use xlink:href="#m6b33974e45" x="258.184303" y="193.227884" style="fill: #ff7f0e; stroke: #ff7f0e"/>
     <use xlink:href="#m6b33974e45" x="259.815733" y="209.241445" style="fill: #ff7f0e; stroke: #ff7f0e"/>
     <use xlink:href="#m6b33974e45" x="261.447163" y="223.344162" style="fill: #ff7f0e; stroke: #ff7f0e"/>
     <use xlink:href="#m6b33974e45" x="263.078593" y="150.240986" style="fill: #ff7f0e; stroke: #ff7f0e"/>
     <use xlink:href="#m6b33974e45" x="264.710023" y="189.785196" style="fill: #ff7f0e; stroke: #ff7f0e"/>
     <use xlink:href="#m6b33974e45" x="266.341453" y="204.038509" style="fill: #ff7f0e; stroke: #ff7f0e"/>
     <use xlink:href="#m6b33974e45" x="267.972883" y="208.045145" style="fill: #ff7f0e; stroke: #ff7f0e"/>
     <use xlink:href="#m6b33974e45" x="269.604312" y="207.208033" style="fill: #ff7f0e; stroke: #ff7f0e"/>
     <use xlink:href="#m6b33974e45" x="271.235742" y="177.339826" style="fill: #ff7f0e; stroke: #ff7f0e"/>
     <use xlink:href="#m6b33974e45" x="272.867172" y="187.448166" style="fill: #ff7f0e; stroke: #ff7f0e"/>
     <use xlink:href="#m6b33974e45" x="274.498602" y="203.595425" style="fill: #ff7f0e; stroke: #ff7f0e"/>
     <use xlink:href="#m6b33974e45" x="276.130032" y="220.637749" style="fill: #ff7f0e; stroke: #ff7f0e"/>
     <use xlink:href="#m6b33974e45" x="277.761462" y="205.150743" style="fill: #ff7f0e; stroke: #ff7f0e"/>
     <use xlink:href="#m6b33974e45" x="279.392892" y="207.849196" style="fill: #ff7f0e; stroke: #ff7f0e"/>
     <use xlink:href="#m6b33974e45" x="281.024322" y="204.142646" style="fill: #ff7f0e; stroke: #ff7f0e"/>
     <use xlink:href="#m6b33974e45" x="282.655751" y="204.03902" style="fill: #ff7f0e; stroke: #ff7f0e"/>
     <use xlink:href="#m6b33974e45" x="284.287181" y="201.127421" style="fill: #ff7f0e; stroke: #ff7f0e"/>
     <use xlink:href="#m6b33974e45" x="285.918611" y="218.067588" style="fill: #ff7f0e; stroke: #ff7f0e"/>
     <use xlink:href="#m6b33974e45" x="287.550041" y="207.369271" style="fill: #ff7f0e; stroke: #ff7f0e"/>
     <use xlink:href="#m6b33974e45" x="289.181471" y="206.979308" style="fill: #ff7f0e; stroke: #ff7f0e"/>
     <use xlink:href="#m6b33974e45" x="290.812901" y="201.983623" style="fill: #ff7f0e; stroke: #ff7f0e"/>
     <use xlink:href="#m6b33974e45" x="292.444331" y="176.488689" style="fill: #ff7f0e; stroke: #ff7f0e"/>
     <use xlink:href="#m6b33974e45" x="294.075761" y="205.865692" style="fill: #ff7f0e; stroke: #ff7f0e"/>
     <use xlink:href="#m6b33974e45" x="295.70719" y="154.298913" style="fill: #ff7f0e; stroke: #ff7f0e"/>
     <use xlink:href="#m6b33974e45" x="297.33862" y="182.983079" style="fill: #ff7f0e; stroke: #ff7f0e"/>
     <use xlink:href="#m6b33974e45" x="298.97005" y="188.104992" style="fill: #ff7f0e; stroke: #ff7f0e"/>
     <use xlink:href="#m6b33974e45" x="300.60148" y="157.744495" style="fill: #ff7f0e; stroke: #ff7f0e"/>
     <use xlink:href="#m6b33974e45" x="302.23291" y="191.745481" style="fill: #ff7f0e; stroke: #ff7f0e"/>
     <use xlink:href="#m6b33974e45" x="303.86434" y="204.301031" style="fill: #ff7f0e; stroke: #ff7f0e"/>
     <use xlink:href="#m6b33974e45" x="305.49577" y="175.281343" style="fill: #ff7f0e; stroke: #ff7f0e"/>
     <use xlink:href="#m6b33974e45" x="307.1272" y="205.88308" style="fill: #ff7f0e; stroke: #ff7f0e"/>
     <use xlink:href="#m6b33974e45" x="308.75863" y="203.813317" style="fill: #ff7f0e; stroke: #ff7f0e"/>
     <use xlink:href="#m6b33974e45" x="310.390059" y="180.671247" style="fill: #ff7f0e; stroke: #ff7f0e"/>
     <use xlink:href="#m6b33974e45" x="312.021489" y="211.556703" style="fill: #ff7f0e; stroke: #ff7f0e"/>
     <use xlink:href="#m6b33974e45" x="313.652919" y="212.559671" style="fill: #ff7f0e; stroke: #ff7f0e"/>
     <use xlink:href="#m6b33974e45" x="315.284349" y="165.886378" style="fill: #ff7f0e; stroke: #ff7f0e"/>
     <use xlink:href="#m6b33974e45" x="316.915779" y="175.852507" style="fill: #ff7f0e; stroke: #ff7f0e"/>
     <use xlink:href="#m6b33974e45" x="318.547209" y="178.441631" style="fill: #ff7f0e; stroke: #ff7f0e"/>
     <use xlink:href="#m6b33974e45" x="320.178639" y="197.259612" style="fill: #ff7f0e; stroke: #ff7f0e"/>
     <use xlink:href="#m6b33974e45" x="321.810069" y="216.512356" style="fill: #ff7f0e; stroke: #ff7f0e"/>
     <use xlink:href="#m6b33974e45" x="323.441498" y="198.369376" style="fill: #ff7f0e; stroke: #ff7f0e"/>
     <use xlink:href="#m6b33974e45" x="325.072928" y="226.083073" style="fill: #ff7f0e; stroke: #ff7f0e"/>
     <use xlink:href="#m6b33974e45" x="326.704358" y="198.473449" style="fill: #ff7f0e; stroke: #ff7f0e"/>
     <use xlink:href="#m6b33974e45" x="328.335788" y="202.624083" style="fill: #ff7f0e; stroke: #ff7f0e"/>
     <use xlink:href="#m6b33974e45" x="329.967218" y="220.127731" style="fill: #ff7f0e; stroke: #ff7f0e"/>
     <use xlink:href="#m6b33974e45" x="331.598648" y="221.47086" style="fill: #ff7f0e; stroke: #ff7f0e"/>
     <use xlink:href="#m6b33974e45" x="333.230078" y="210.177522" style="fill: #ff7f0e; stroke: #ff7f0e"/>
     <use xlink:href="#m6b33974e45" x="334.861508" y="229.90255" style="fill: #ff7f0e; stroke: #ff7f0e"/>
     <use xlink:href="#m6b33974e45" x="336.492937" y="198.593057" style="fill: #ff7f0e; stroke: #ff7f0e"/>
     <use xlink:href="#m6b33974e45" x="338.124367" y="207.147484" style="fill: #ff7f0e; stroke: #ff7f0e"/>
     <use xlink:href="#m6b33974e45" x="339.755797" y="183.43706" style="fill: #ff7f0e; stroke: #ff7f0e"/>
     <use xlink:href="#m6b33974e45" x="341.387227" y="222.299948" style="fill: #ff7f0e; stroke: #ff7f0e"/>
     <use xlink:href="#m6b33974e45" x="343.018657" y="230.863952" style="fill: #ff7f0e; stroke: #ff7f0e"/>
     <use xlink:href="#m6b33974e45" x="344.650087" y="214.142231" style="fill: #ff7f0e; stroke: #ff7f0e"/>
     <use xlink:href="#m6b33974e45" x="346.281517" y="229.690702" style="fill: #ff7f0e; stroke: #ff7f0e"/>
     <use xlink:href="#m6b33974e45" x="347.912947" y="192.956338" style="fill: #ff7f0e; stroke: #ff7f0e"/>
     <use xlink:href="#m6b33974e45" x="349.544376" y="193.573663" style="fill: #ff7f0e; stroke: #ff7f0e"/>
     <use xlink:href="#m6b33974e45" x="351.175806" y="198.673953" style="fill: #ff7f0e; stroke: #ff7f0e"/>
     <use xlink:href="#m6b33974e45" x="352.807236" y="230.603835" style="fill: #ff7f0e; stroke: #ff7f0e"/>
     <use xlink:href="#m6b33974e45" x="354.438666" y="147.003144" style="fill: #ff7f0e; stroke: #ff7f0e"/>
     <use xlink:href="#m6b33974e45" x="356.070096" y="222.519564" style="fill: #ff7f0e; stroke: #ff7f0e"/>
     <use xlink:href="#m6b33974e45" x="357.701526" y="218.164424" style="fill: #ff7f0e; stroke: #ff7f0e"/>
     <use xlink:href="#m6b33974e45" x="359.332956" y="213.105296" style="fill: #ff7f0e; stroke: #ff7f0e"/>
     <use xlink:href="#m6b33974e45" x="360.964386" y="194.686727" style="fill: #ff7f0e; stroke: #ff7f0e"/>
     <use xlink:href="#m6b33974e45" x="362.595815" y="205.679149" style="fill: #ff7f0e; stroke: #ff7f0e"/>
     <use xlink:href="#m6b33974e45" x="364.227245" y="219.118953" style="fill: #ff7f0e; stroke: #ff7f0e"/>
     <use xlink:href="#m6b33974e45" x="365.858675" y="161.083642" style="fill: #ff7f0e; stroke: #ff7f0e"/>
     <use xlink:href="#m6b33974e45" x="367.490105" y="239.640464" style="fill: #ff7f0e; stroke: #ff7f0e"/>
     <use xlink:href="#m6b33974e45" x="369.121535" y="183.359591" style="fill: #ff7f0e; stroke: #ff7f0e"/>
     <use xlink:href="#m6b33974e45" x="370.752965" y="187.098981" style="fill: #ff7f0e; stroke: #ff7f0e"/>
     <use xlink:href="#m6b33974e45" x="372.384395" y="206.800044" style="fill: #ff7f0e; stroke: #ff7f0e"/>
     <use xlink:href="#m6b33974e45" x="374.015825" y="209.517992" style="fill: #ff7f0e; stroke: #ff7f0e"/>
     <use xlink:href="#m6b33974e45" x="375.647254" y="205.628007" style="fill: #ff7f0e; stroke: #ff7f0e"/>
     <use xlink:href="#m6b33974e45" x="377.278684" y="204.907801" style="fill: #ff7f0e; stroke: #ff7f0e"/>
     <use xlink:href="#m6b33974e45" x="378.910114" y="188.226793" style="fill: #ff7f0e; stroke: #ff7f0e"/>
     <use xlink:href="#m6b33974e45" x="380.541544" y="208.198402" style="fill: #ff7f0e; stroke: #ff7f0e"/>
     <use xlink:href="#m6b33974e45" x="382.172974" y="184.88456" style="fill: #ff7f0e; stroke: #ff7f0e"/>
     <use xlink:href="#m6b33974e45" x="383.804404" y="220.834657" style="fill: #ff7f0e; stroke: #ff7f0e"/>
     <use xlink:href="#m6b33974e45" x="385.435834" y="215.651514" style="fill: #ff7f0e; stroke: #ff7f0e"/>
     <use xlink:href="#m6b33974e45" x="387.067264" y="214.484775" style="fill: #ff7f0e; stroke: #ff7f0e"/>
     <use xlink:href="#m6b33974e45" x="388.698693" y="178.658544" style="fill: #ff7f0e; stroke: #ff7f0e"/>
     <use xlink:href="#m6b33974e45" x="390.330123" y="202.552169" style="fill: #ff7f0e; stroke: #ff7f0e"/>
     <use xlink:href="#m6b33974e45" x="391.961553" y="193.217157" style="fill: #ff7f0e; stroke: #ff7f0e"/>
     <use xlink:href="#m6b33974e45" x="393.592983" y="224.93832" style="fill: #ff7f0e; stroke: #ff7f0e"/>
     <use xlink:href="#m6b33974e45" x="395.224413" y="202.427495" style="fill: #ff7f0e; stroke: #ff7f0e"/>
     <use xlink:href="#m6b33974e45" x="396.855843" y="200.975292" style="fill: #ff7f0e; stroke: #ff7f0e"/>
     <use xlink:href="#m6b33974e45" x="398.487273" y="180.354029" style="fill: #ff7f0e; stroke: #ff7f0e"/>
    </g>
   </g>
   <g id="line2d_34">
    <path d="M 73.832727 140.736003 
L 77.095587 139.717571 
L 80.358447 138.892859 
L 83.621307 138.26187 
L 86.884166 137.824602 
L 90.147026 137.581056 
L 93.409886 137.531232 
L 96.672746 137.67513 
L 99.935605 138.012749 
L 103.198465 138.54409 
L 104.829895 138.882406 
L 106.461325 140.654103 
L 108.092755 139.632797 
L 111.355614 141.203588 
L 112.987044 145.220459 
L 114.618474 145.763269 
L 116.249904 146.602388 
L 117.881334 146.688739 
L 119.512764 146.244247 
L 121.144194 148.093769 
L 122.775624 148.924199 
L 124.407053 147.49525 
L 126.038483 147.510057 
L 127.669913 144.296205 
L 129.301343 144.02299 
L 130.932773 144.132436 
L 132.564203 143.033822 
L 134.195633 144.946173 
L 135.827063 147.470225 
L 137.458492 149.217874 
L 139.089922 149.955403 
L 140.721352 149.943657 
L 142.352782 149.453697 
L 143.984212 153.313084 
L 145.615642 154.302874 
L 147.247072 152.794281 
L 148.878502 154.402083 
L 150.509931 156.675806 
L 152.141361 157.463194 
L 153.772791 156.906715 
L 155.404221 157.025307 
L 158.667081 157.824185 
L 160.298511 157.334043 
L 161.929941 154.150069 
L 165.1928 155.02579 
L 166.82423 156.9854 
L 168.45566 157.316748 
L 170.08709 159.870724 
L 171.71852 160.796886 
L 173.34995 162.328371 
L 174.98138 165.628883 
L 176.61281 166.228632 
L 178.244239 165.825136 
L 179.875669 166.273455 
L 181.507099 168.839197 
L 183.138529 167.952423 
L 184.769959 169.422295 
L 186.401389 169.749583 
L 188.032819 167.899749 
L 191.295678 170.053602 
L 192.927108 170.649592 
L 194.558538 172.207749 
L 196.189968 172.143975 
L 197.821398 174.761866 
L 199.452828 176.452711 
L 201.084258 177.733375 
L 202.715688 177.424391 
L 204.347117 176.844028 
L 205.978547 178.6592 
L 207.609977 179.849622 
L 209.241407 179.61031 
L 210.872837 181.001753 
L 212.504267 182.637872 
L 214.135697 183.04083 
L 215.767127 180.605564 
L 219.029986 181.8618 
L 220.661416 182.06907 
L 222.292846 181.03548 
L 223.924276 181.022185 
L 225.555706 181.209403 
L 227.187136 180.896204 
L 228.818566 181.612153 
L 230.449995 183.104517 
L 232.081425 183.176231 
L 233.712855 183.825469 
L 235.344285 183.450704 
L 236.975715 182.704692 
L 238.607145 184.465212 
L 240.238575 184.230225 
L 241.870005 185.216487 
L 243.501434 185.521668 
L 245.132864 186.298848 
L 246.764294 186.707601 
L 248.395724 186.555458 
L 250.027154 187.098775 
L 251.658584 186.143773 
L 254.921444 188.388314 
L 256.552873 189.347251 
L 258.184303 190.898452 
L 261.447163 194.337197 
L 263.078593 197.083697 
L 264.710023 198.324984 
L 266.341453 198.419259 
L 267.972883 199.908509 
L 269.604312 200.764842 
L 271.235742 201.251295 
L 272.867172 202.403545 
L 274.498602 201.600383 
L 276.130032 200.941922 
L 277.761462 200.804743 
L 279.392892 199.692479 
L 281.024322 199.10876 
L 282.655751 200.024112 
L 284.287181 197.943149 
L 285.918611 197.298364 
L 287.550041 197.228168 
L 289.181471 195.523142 
L 290.812901 194.663565 
L 292.444331 193.572993 
L 294.075761 194.401043 
L 295.70719 192.282722 
L 297.33862 190.884339 
L 298.97005 190.188477 
L 300.60148 190.316169 
L 302.23291 189.967677 
L 305.49577 189.499322 
L 307.1272 190.662228 
L 308.75863 191.161839 
L 310.390059 191.143387 
L 312.021489 192.136741 
L 313.652919 192.669285 
L 318.547209 198.972296 
L 320.178639 200.00647 
L 321.810069 204.141187 
L 323.441498 205.163256 
L 325.072928 205.494561 
L 326.704358 207.186675 
L 328.335788 207.471302 
L 329.967218 208.105477 
L 331.598648 208.370738 
L 333.230078 209.282527 
L 334.861508 208.227198 
L 336.492937 209.784556 
L 338.124367 209.806466 
L 339.755797 210.05246 
L 341.387227 210.169538 
L 343.018657 209.485222 
L 344.650087 209.921624 
L 346.281517 211.024612 
L 347.912947 209.424322 
L 349.544376 208.683328 
L 351.175806 206.401075 
L 352.807236 204.967377 
L 354.438666 204.3875 
L 357.701526 204.451483 
L 359.332956 203.816598 
L 360.964386 202.132517 
L 362.595815 202.084111 
L 364.227245 202.251193 
L 365.858675 202.739413 
L 367.490105 202.598197 
L 372.384395 201.861268 
L 377.278684 201.313545 
L 382.172974 200.955027 
L 387.067264 200.785714 
L 391.961553 200.805606 
L 396.855843 201.014704 
L 398.487273 201.126448 
L 398.487273 201.126448 
" clip-path="url(#pda06df4913)" style="fill: none; stroke-dasharray: 5.55,2.4; stroke-dashoffset: 0; stroke: #ff7f0e; stroke-width: 1.5"/>
   </g>
   <g id="patch_3">
    <path d="M 57.6 307.584 
L 57.6 41.472 
" style="fill: none; stroke: #000000; stroke-width: 0.8; stroke-linejoin: miter; stroke-linecap: square"/>
   </g>
   <g id="patch_4">
    <path d="M 414.72 307.584 
L 414.72 41.472 
" style="fill: none; stroke: #000000; stroke-width: 0.8; stroke-linejoin: miter; stroke-linecap: square"/>
   </g>
   <g id="patch_5">
    <path d="M 57.6 307.584 
L 414.72 307.584 
" style="fill: none; stroke: #000000; stroke-width: 0.8; stroke-linejoin: miter; stroke-linecap: square"/>
   </g>
   <g id="patch_6">
    <path d="M 57.6 41.472 
L 414.72 41.472 
" style="fill: none; stroke: #000000; stroke-width: 0.8; stroke-linejoin: miter; stroke-linecap: square"/>
   </g>
   <g id="legend_1">
    <g id="patch_7">
     <path d="M 301.22625 78.82825 
L 407.72 78.82825 
Q 409.72 78.82825 409.72 76.82825 
L 409.72 48.472 
Q 409.72 46.472 407.72 46.472 
L 301.22625 46.472 
Q 299.22625 46.472 299.22625 48.472 
L 299.22625 76.82825 
Q 299.22625 78.82825 301.22625 78.82825 
z
" style="fill: #ffffff; opacity: 0.8; stroke: #cccccc; stroke-linejoin: miter"/>
    </g>
    <g id="line2d_35">
     <path d="M 303.22625 54.570437 
L 313.22625 54.570437 
L 323.22625 54.570437 
" style="fill: none; stroke: #1f77b4; stroke-width: 1.5; stroke-linecap: square"/>
     <g>
      <use xlink:href="#m3860591d3e" x="313.22625" y="54.570437" style="fill: #1f77b4; stroke: #1f77b4"/>
     </g>
    </g>
    <g id="text_18">
     <!-- Training Loss -->
     <g transform="translate(331.22625 58.070437) scale(0.1 -0.1)">
      <defs>
       <path id="DejaVuSans-54" d="M -19 4666 
L 3928 4666 
L 3928 4134 
L 2272 4134 
L 2272 0 
L 1638 0 
L 1638 4134 
L -19 4134 
L -19 4666 
z
" transform="scale(0.015625)"/>
       <path id="DejaVuSans-72" d="M 2631 2963 
Q 2534 3019 2420 3045 
Q 2306 3072 2169 3072 
Q 1681 3072 1420 2755 
Q 1159 2438 1159 1844 
L 1159 0 
L 581 0 
L 581 3500 
L 1159 3500 
L 1159 2956 
Q 1341 3275 1631 3429 
Q 1922 3584 2338 3584 
Q 2397 3584 2469 3576 
Q 2541 3569 2628 3553 
L 2631 2963 
z
" transform="scale(0.015625)"/>
       <path id="DejaVuSans-61" d="M 2194 1759 
Q 1497 1759 1228 1600 
Q 959 1441 959 1056 
Q 959 750 1161 570 
Q 1363 391 1709 391 
Q 2188 391 2477 730 
Q 2766 1069 2766 1631 
L 2766 1759 
L 2194 1759 
z
M 3341 1997 
L 3341 0 
L 2766 0 
L 2766 531 
Q 2569 213 2275 61 
Q 1981 -91 1556 -91 
Q 1019 -91 701 211 
Q 384 513 384 1019 
Q 384 1609 779 1909 
Q 1175 2209 1959 2209 
L 2766 2209 
L 2766 2266 
Q 2766 2663 2505 2880 
Q 2244 3097 1772 3097 
Q 1472 3097 1187 3025 
Q 903 2953 641 2809 
L 641 3341 
Q 956 3463 1253 3523 
Q 1550 3584 1831 3584 
Q 2591 3584 2966 3190 
Q 3341 2797 3341 1997 
z
" transform="scale(0.015625)"/>
       <path id="DejaVuSans-69" d="M 603 3500 
L 1178 3500 
L 1178 0 
L 603 0 
L 603 3500 
z
M 603 4863 
L 1178 4863 
L 1178 4134 
L 603 4134 
L 603 4863 
z
" transform="scale(0.015625)"/>
       <path id="DejaVuSans-6e" d="M 3513 2113 
L 3513 0 
L 2938 0 
L 2938 2094 
Q 2938 2591 2744 2837 
Q 2550 3084 2163 3084 
Q 1697 3084 1428 2787 
Q 1159 2491 1159 1978 
L 1159 0 
L 581 0 
L 581 3500 
L 1159 3500 
L 1159 2956 
Q 1366 3272 1645 3428 
Q 1925 3584 2291 3584 
Q 2894 3584 3203 3211 
Q 3513 2838 3513 2113 
z
" transform="scale(0.015625)"/>
       <path id="DejaVuSans-67" d="M 2906 1791 
Q 2906 2416 2648 2759 
Q 2391 3103 1925 3103 
Q 1463 3103 1205 2759 
Q 947 2416 947 1791 
Q 947 1169 1205 825 
Q 1463 481 1925 481 
Q 2391 481 2648 825 
Q 2906 1169 2906 1791 
z
M 3481 434 
Q 3481 -459 3084 -895 
Q 2688 -1331 1869 -1331 
Q 1566 -1331 1297 -1286 
Q 1028 -1241 775 -1147 
L 775 -588 
Q 1028 -725 1275 -790 
Q 1522 -856 1778 -856 
Q 2344 -856 2625 -561 
Q 2906 -266 2906 331 
L 2906 616 
Q 2728 306 2450 153 
Q 2172 0 1784 0 
Q 1141 0 747 490 
Q 353 981 353 1791 
Q 353 2603 747 3093 
Q 1141 3584 1784 3584 
Q 2172 3584 2450 3431 
Q 2728 3278 2906 2969 
L 2906 3500 
L 3481 3500 
L 3481 434 
z
" transform="scale(0.015625)"/>
       <path id="DejaVuSans-20" transform="scale(0.015625)"/>
      </defs>
      <use xlink:href="#DejaVuSans-54"/>
      <use xlink:href="#DejaVuSans-72" x="46.333984"/>
      <use xlink:href="#DejaVuSans-61" x="87.447266"/>
      <use xlink:href="#DejaVuSans-69" x="148.726562"/>
      <use xlink:href="#DejaVuSans-6e" x="176.509766"/>
      <use xlink:href="#DejaVuSans-69" x="239.888672"/>
      <use xlink:href="#DejaVuSans-6e" x="267.671875"/>
      <use xlink:href="#DejaVuSans-67" x="331.050781"/>
      <use xlink:href="#DejaVuSans-20" x="394.527344"/>
      <use xlink:href="#DejaVuSans-4c" x="426.314453"/>
      <use xlink:href="#DejaVuSans-6f" x="480.277344"/>
      <use xlink:href="#DejaVuSans-73" x="541.458984"/>
      <use xlink:href="#DejaVuSans-73" x="593.558594"/>
     </g>
    </g>
    <g id="line2d_36">
     <path d="M 303.22625 69.248562 
L 313.22625 69.248562 
L 323.22625 69.248562 
" style="fill: none; stroke: #ff7f0e; stroke-width: 1.5; stroke-linecap: square"/>
     <g>
      <use xlink:href="#m6b33974e45" x="313.22625" y="69.248562" style="fill: #ff7f0e; stroke: #ff7f0e"/>
     </g>
    </g>
    <g id="text_19">
     <!-- Validation Loss -->
     <g transform="translate(331.22625 72.748562) scale(0.1 -0.1)">
      <defs>
       <path id="DejaVuSans-56" d="M 1831 0 
L 50 4666 
L 709 4666 
L 2188 738 
L 3669 4666 
L 4325 4666 
L 2547 0 
L 1831 0 
z
" transform="scale(0.015625)"/>
       <path id="DejaVuSans-6c" d="M 603 4863 
L 1178 4863 
L 1178 0 
L 603 0 
L 603 4863 
z
" transform="scale(0.015625)"/>
       <path id="DejaVuSans-64" d="M 2906 2969 
L 2906 4863 
L 3481 4863 
L 3481 0 
L 2906 0 
L 2906 525 
Q 2725 213 2448 61 
Q 2172 -91 1784 -91 
Q 1150 -91 751 415 
Q 353 922 353 1747 
Q 353 2572 751 3078 
Q 1150 3584 1784 3584 
Q 2172 3584 2448 3432 
Q 2725 3281 2906 2969 
z
M 947 1747 
Q 947 1113 1208 752 
Q 1469 391 1925 391 
Q 2381 391 2643 752 
Q 2906 1113 2906 1747 
Q 2906 2381 2643 2742 
Q 2381 3103 1925 3103 
Q 1469 3103 1208 2742 
Q 947 2381 947 1747 
z
" transform="scale(0.015625)"/>
       <path id="DejaVuSans-74" d="M 1172 4494 
L 1172 3500 
L 2356 3500 
L 2356 3053 
L 1172 3053 
L 1172 1153 
Q 1172 725 1289 603 
Q 1406 481 1766 481 
L 2356 481 
L 2356 0 
L 1766 0 
Q 1100 0 847 248 
Q 594 497 594 1153 
L 594 3053 
L 172 3053 
L 172 3500 
L 594 3500 
L 594 4494 
L 1172 4494 
z
" transform="scale(0.015625)"/>
      </defs>
      <use xlink:href="#DejaVuSans-56"/>
      <use xlink:href="#DejaVuSans-61" x="60.658203"/>
      <use xlink:href="#DejaVuSans-6c" x="121.9375"/>
      <use xlink:href="#DejaVuSans-69" x="149.720703"/>
      <use xlink:href="#DejaVuSans-64" x="177.503906"/>
      <use xlink:href="#DejaVuSans-61" x="240.980469"/>
      <use xlink:href="#DejaVuSans-74" x="302.259766"/>
      <use xlink:href="#DejaVuSans-69" x="341.46875"/>
      <use xlink:href="#DejaVuSans-6f" x="369.251953"/>
      <use xlink:href="#DejaVuSans-6e" x="430.433594"/>
      <use xlink:href="#DejaVuSans-20" x="493.8125"/>
      <use xlink:href="#DejaVuSans-4c" x="525.599609"/>
      <use xlink:href="#DejaVuSans-6f" x="579.5625"/>
      <use xlink:href="#DejaVuSans-73" x="640.744141"/>
      <use xlink:href="#DejaVuSans-73" x="692.84375"/>
     </g>
    </g>
   </g>
  </g>
 </g>
 <defs>
  <clipPath id="pda06df4913">
   <rect x="57.6" y="41.472" width="357.12" height="266.112"/>
  </clipPath>
 </defs>
</svg>
